SplineFontDB: 3.2
FontName: NotoSansKhudawadi-Regular
FullName: Noto Sans Khudawadi Regular
FamilyName: Noto Sans Khudawadi
Weight: Book
Copyright: Copyright 2018 Google Inc. All Rights Reserved.
Version: 2.000
ItalicAngle: 0
UnderlinePosition: -125
UnderlineWidth: 50
Ascent: 800
Descent: 200
InvalidEm: 0
sfntRevision: 0x00020000
LayerCount: 2
Layer: 0 1 "+BBcEMAQ0BD0EOAQ5 +BD8EOwQwBD0A" 1
Layer: 1 1 "+BB8ENQRABDUENAQ9BDgEOQAA +BD8EOwQwBD0A" 0
XUID: [1021 59 1751208496 23487]
StyleMap: 0x0040
FSType: 0
OS2Version: 4
OS2_WeightWidthSlopeOnly: 1
OS2_UseTypoMetrics: 0
CreationTime: 1449699788
ModificationTime: 1632338264
PfmFamily: 17
TTFWeight: 400
TTFWidth: 5
LineGap: 0
VLineGap: 0
Panose: 2 11 5 2 4 5 4 2 2 4
OS2TypoAscent: 944
OS2TypoAOffset: 0
OS2TypoDescent: -373
OS2TypoDOffset: 0
OS2TypoLinegap: 0
OS2WinAscent: 944
OS2WinAOffset: 0
OS2WinDescent: 373
OS2WinDOffset: 0
HheadAscent: 944
HheadAOffset: 0
HheadDescent: -373
HheadDOffset: 0
OS2SubXSize: 650
OS2SubYSize: 600
OS2SubXOff: 0
OS2SubYOff: 75
OS2SupXSize: 650
OS2SupYSize: 600
OS2SupXOff: 0
OS2SupYOff: 350
OS2StrikeYSize: 50
OS2StrikeYPos: 322
OS2CapHeight: 620
OS2XHeight: 536
OS2Vendor: 'GOOG'
OS2CodePages: 00000001.00000000
OS2UnicodeRanges: 80008003.02002000.00000000.00000000
Lookup: 4 8 0 "'abvf' Above Base Forms in Khudawadi lookup 0" { "'abvf' Above Base Forms in Khudawadi lookup 0 subtable"  } ['abvf' ('sind' <'dflt' > ) ]
Lookup: 4 8 0 "'abvs' Above Base Substitutions in Khudawadi lookup 1" { "'abvs' Above Base Substitutions in Khudawadi lookup 1 subtable"  } ['abvs' ('sind' <'dflt' > ) ]
Lookup: 6 512 0 "'abvs' Above Base Substitutions in Khudawadi lookup 2" { "'abvs' Above Base Substitutions in Khudawadi lookup 2 subtable"  } ['abvs' ('sind' <'dflt' > ) ]
Lookup: 1 0 0 "Single Substitution lookup 3" { "Single Substitution lookup 3 subtable"  } []
Lookup: 1 0 0 "Single Substitution lookup 4" { "Single Substitution lookup 4 subtable"  } []

StartChar: .notdef
Encoding: 90 -1 0
Width: 600
Flags: W
HStem: 0 51<145 454> 663 51<145 454>
VStem: 94 51<51 663> 454 51<51 663>
LayerCount: 2
Fore
SplineSet
94 0 m 1,0,-1
 94 714 l 1,1,-1
 505 714 l 1,2,-1
 505 0 l 1,3,-1
 94 0 l 1,0,-1
145 51 m 1,4,-1
 454 51 l 1,5,-1
 454 663 l 1,6,-1
 145 663 l 1,7,-1
 145 51 l 1,4,-1
EndSplineSet
EndChar

StartChar: uni0964
Encoding: 4 2404 5
Width: 237
GlyphClass: 2
Flags: W
HStem: 0 21G<78 159>
VStem: 78 81<0 622>
LayerCount: 2
Fore
SplineSet
78 0 m 1,0,-1
 78 622 l 1,1,-1
 159 622 l 1,2,-1
 159 0 l 1,3,-1
 78 0 l 1,0,-1
EndSplineSet
EndChar

StartChar: uni0965
Encoding: 5 2405 6
Width: 457
GlyphClass: 2
Flags: W
HStem: 0 21G<78 159 298 379>
VStem: 78 81<0 622> 298 81<0 622>
LayerCount: 2
Fore
SplineSet
298 0 m 1,0,-1
 298 622 l 1,1,-1
 379 622 l 1,2,-1
 379 0 l 1,3,-1
 298 0 l 1,0,-1
78 0 m 1,4,-1
 78 622 l 1,5,-1
 159 622 l 1,6,-1
 159 0 l 1,7,-1
 78 0 l 1,4,-1
EndSplineSet
EndChar

StartChar: uni2013
Encoding: 8 8211 9
Width: 500
GlyphClass: 2
Flags: W
HStem: 229 78<40 460>
LayerCount: 2
Fore
SplineSet
40 229 m 1,0,-1
 40 307 l 1,1,-1
 460 307 l 1,2,-1
 460 229 l 1,3,-1
 40 229 l 1,0,-1
EndSplineSet
EndChar

StartChar: uni2014
Encoding: 9 8212 10
Width: 1000
GlyphClass: 2
Flags: W
HStem: 229 78<40 960>
LayerCount: 2
Fore
SplineSet
40 229 m 1,0,-1
 40 307 l 1,1,-1
 960 307 l 1,2,-1
 960 229 l 1,3,-1
 40 229 l 1,0,-1
EndSplineSet
EndChar

StartChar: uni25CC
Encoding: 10 9676 11
Width: 594
GlyphClass: 2
Flags: W
HStem: 42 52<278.735 315.265> 60 52<194.735 231.265 362.735 399.265> 107 52<120.735 157.265 436.735 473.265> 181 52<73.7352 110.265 483.735 520.265> 265 52<55.7352 92.2648 501.735 538.265> 349 52<73.7352 110.265 483.735 520.265> 423 52<120.735 157.265 436.735 473.265> 470 52<194.735 231.265 362.735 399.265> 488 52<278.735 315.265>
VStem: 48 52<272.735 309.265> 66 52<188.735 225.265 356.735 393.265> 113 52<114.735 151.265 430.735 467.265> 187 52<67.7352 104.265 477.735 514.265> 271 52<49.7352 86.2648 495.735 532.265> 355 52<67.7352 104.265 477.735 514.265> 429 52<114.735 151.265 430.735 467.265> 476 52<188.735 225.265 356.735 393.265> 494 52<272.735 309.265>
AnchorPoint: "+BBEENQQ3BEsEPARPBD0EPQQ+BDUA--0" 294 0 mark 0
AnchorPoint: "+BBEENQQ3BEsEPARPBD0EPQQ+BDUA--6" 294 0 mark 0
AnchorPoint: "+BBEENQQ3BEsEPARPBD0EPQQ+BDUA--3" 294 870 basechar 0
LayerCount: 2
Fore
SplineSet
297 488 m 260,0,1
 286 488 286 488 278.5 495.5 c 132,-1,2
 271 503 271 503 271 514 c 260,3,4
 271 525 271 525 278.5 532.5 c 132,-1,5
 286 540 286 540 297 540 c 260,6,7
 308 540 308 540 315.5 532.5 c 132,-1,8
 323 525 323 525 323 514 c 260,9,10
 323 503 323 503 315.5 495.5 c 132,-1,11
 308 488 308 488 297 488 c 260,0,1
213 470 m 260,12,13
 202 470 202 470 194.5 477.5 c 132,-1,14
 187 485 187 485 187 496 c 260,15,16
 187 507 187 507 194.5 514.5 c 132,-1,17
 202 522 202 522 213 522 c 260,18,19
 224 522 224 522 231.5 514.5 c 132,-1,20
 239 507 239 507 239 496 c 260,21,22
 239 485 239 485 231.5 477.5 c 132,-1,23
 224 470 224 470 213 470 c 260,12,13
381 470 m 260,24,25
 370 470 370 470 362.5 477.5 c 132,-1,26
 355 485 355 485 355 496 c 260,27,28
 355 507 355 507 362.5 514.5 c 132,-1,29
 370 522 370 522 381 522 c 260,30,31
 392 522 392 522 399.5 514.5 c 132,-1,32
 407 507 407 507 407 496 c 260,33,34
 407 485 407 485 399.5 477.5 c 132,-1,35
 392 470 392 470 381 470 c 260,24,25
455 423 m 260,36,37
 444 423 444 423 436.5 430.5 c 132,-1,38
 429 438 429 438 429 449 c 260,39,40
 429 460 429 460 436.5 467.5 c 132,-1,41
 444 475 444 475 455 475 c 260,42,43
 466 475 466 475 473.5 467.5 c 132,-1,44
 481 460 481 460 481 449 c 260,45,46
 481 438 481 438 473.5 430.5 c 132,-1,47
 466 423 466 423 455 423 c 260,36,37
139 423 m 260,48,49
 128 423 128 423 120.5 430.5 c 132,-1,50
 113 438 113 438 113 449 c 260,51,52
 113 460 113 460 120.5 467.5 c 132,-1,53
 128 475 128 475 139 475 c 260,54,55
 150 475 150 475 157.5 467.5 c 132,-1,56
 165 460 165 460 165 449 c 260,57,58
 165 438 165 438 157.5 430.5 c 132,-1,59
 150 423 150 423 139 423 c 260,48,49
92 349 m 260,60,61
 81 349 81 349 73.5 356.5 c 132,-1,62
 66 364 66 364 66 375 c 260,63,64
 66 386 66 386 73.5 393.5 c 132,-1,65
 81 401 81 401 92 401 c 260,66,67
 103 401 103 401 110.5 393.5 c 132,-1,68
 118 386 118 386 118 375 c 260,69,70
 118 364 118 364 110.5 356.5 c 132,-1,71
 103 349 103 349 92 349 c 260,60,61
502 349 m 260,72,73
 491 349 491 349 483.5 356.5 c 132,-1,74
 476 364 476 364 476 375 c 260,75,76
 476 386 476 386 483.5 393.5 c 132,-1,77
 491 401 491 401 502 401 c 260,78,79
 513 401 513 401 520.5 393.5 c 132,-1,80
 528 386 528 386 528 375 c 260,81,82
 528 364 528 364 520.5 356.5 c 132,-1,83
 513 349 513 349 502 349 c 260,72,73
74 265 m 260,84,85
 63 265 63 265 55.5 272.5 c 132,-1,86
 48 280 48 280 48 291 c 260,87,88
 48 302 48 302 55.5 309.5 c 132,-1,89
 63 317 63 317 74 317 c 260,90,91
 85 317 85 317 92.5 309.5 c 132,-1,92
 100 302 100 302 100 291 c 260,93,94
 100 280 100 280 92.5 272.5 c 132,-1,95
 85 265 85 265 74 265 c 260,84,85
520 265 m 260,96,97
 509 265 509 265 501.5 272.5 c 132,-1,98
 494 280 494 280 494 291 c 260,99,100
 494 302 494 302 501.5 309.5 c 132,-1,101
 509 317 509 317 520 317 c 260,102,103
 531 317 531 317 538.5 309.5 c 132,-1,104
 546 302 546 302 546 291 c 260,105,106
 546 280 546 280 538.5 272.5 c 132,-1,107
 531 265 531 265 520 265 c 260,96,97
92 181 m 260,108,109
 81 181 81 181 73.5 188.5 c 132,-1,110
 66 196 66 196 66 207 c 260,111,112
 66 218 66 218 73.5 225.5 c 132,-1,113
 81 233 81 233 92 233 c 260,114,115
 103 233 103 233 110.5 225.5 c 132,-1,116
 118 218 118 218 118 207 c 260,117,118
 118 196 118 196 110.5 188.5 c 132,-1,119
 103 181 103 181 92 181 c 260,108,109
502 181 m 260,120,121
 491 181 491 181 483.5 188.5 c 132,-1,122
 476 196 476 196 476 207 c 260,123,124
 476 218 476 218 483.5 225.5 c 132,-1,125
 491 233 491 233 502 233 c 260,126,127
 513 233 513 233 520.5 225.5 c 132,-1,128
 528 218 528 218 528 207 c 260,129,130
 528 196 528 196 520.5 188.5 c 132,-1,131
 513 181 513 181 502 181 c 260,120,121
139 107 m 260,132,133
 128 107 128 107 120.5 114.5 c 132,-1,134
 113 122 113 122 113 133 c 260,135,136
 113 144 113 144 120.5 151.5 c 132,-1,137
 128 159 128 159 139 159 c 260,138,139
 150 159 150 159 157.5 151.5 c 132,-1,140
 165 144 165 144 165 133 c 260,141,142
 165 122 165 122 157.5 114.5 c 132,-1,143
 150 107 150 107 139 107 c 260,132,133
455 107 m 260,144,145
 444 107 444 107 436.5 114.5 c 132,-1,146
 429 122 429 122 429 133 c 260,147,148
 429 144 429 144 436.5 151.5 c 132,-1,149
 444 159 444 159 455 159 c 260,150,151
 466 159 466 159 473.5 151.5 c 132,-1,152
 481 144 481 144 481 133 c 260,153,154
 481 122 481 122 473.5 114.5 c 132,-1,155
 466 107 466 107 455 107 c 260,144,145
213 60 m 260,156,157
 202 60 202 60 194.5 67.5 c 132,-1,158
 187 75 187 75 187 86 c 260,159,160
 187 97 187 97 194.5 104.5 c 132,-1,161
 202 112 202 112 213 112 c 260,162,163
 224 112 224 112 231.5 104.5 c 132,-1,164
 239 97 239 97 239 86 c 260,165,166
 239 75 239 75 231.5 67.5 c 132,-1,167
 224 60 224 60 213 60 c 260,156,157
381 60 m 260,168,169
 370 60 370 60 362.5 67.5 c 132,-1,170
 355 75 355 75 355 86 c 260,171,172
 355 97 355 97 362.5 104.5 c 132,-1,173
 370 112 370 112 381 112 c 260,174,175
 392 112 392 112 399.5 104.5 c 132,-1,176
 407 97 407 97 407 86 c 260,177,178
 407 75 407 75 399.5 67.5 c 132,-1,179
 392 60 392 60 381 60 c 260,168,169
297 42 m 260,180,181
 286 42 286 42 278.5 49.5 c 132,-1,182
 271 57 271 57 271 68 c 260,183,184
 271 79 271 79 278.5 86.5 c 132,-1,185
 286 94 286 94 297 94 c 260,186,187
 308 94 308 94 315.5 86.5 c 132,-1,188
 323 79 323 79 323 68 c 260,189,190
 323 57 323 57 315.5 49.5 c 132,-1,191
 308 42 308 42 297 42 c 260,180,181
EndSplineSet
EndChar

StartChar: uniA830
Encoding: 11 43056 12
Width: 237
GlyphClass: 2
Flags: W
HStem: 0 21G<78 159>
VStem: 78 81<0 622>
LayerCount: 2
Fore
SplineSet
78 0 m 1,0,-1
 78 622 l 1,1,-1
 159 622 l 1,2,-1
 159 0 l 1,3,-1
 78 0 l 1,0,-1
EndSplineSet
EndChar

StartChar: uniA831
Encoding: 12 43057 13
Width: 437
GlyphClass: 2
Flags: W
HStem: 0 21G<78 159 278 359>
VStem: 78 81<0 622> 278 81<0 622>
LayerCount: 2
Fore
SplineSet
278 0 m 1,0,-1
 278 622 l 1,1,-1
 359 622 l 1,2,-1
 359 0 l 1,3,-1
 278 0 l 1,0,-1
78 0 m 1,4,-1
 78 622 l 1,5,-1
 159 622 l 1,6,-1
 159 0 l 1,7,-1
 78 0 l 1,4,-1
EndSplineSet
EndChar

StartChar: uniA832
Encoding: 13 43058 14
Width: 637
GlyphClass: 2
Flags: W
HStem: 0 21G<78 159 278 359 478 559>
VStem: 78 81<0 622> 278 81<0 622> 478 81<0 622>
CounterMasks: 1 70
LayerCount: 2
Fore
SplineSet
478 0 m 1,0,-1
 478 622 l 1,1,-1
 559 622 l 1,2,-1
 559 0 l 1,3,-1
 478 0 l 1,0,-1
78 0 m 1,4,-1
 78 622 l 1,5,-1
 159 622 l 1,6,-1
 159 0 l 1,7,-1
 78 0 l 1,4,-1
278 0 m 1,8,-1
 278 622 l 1,9,-1
 359 622 l 1,10,-1
 359 0 l 1,11,-1
 278 0 l 1,8,-1
EndSplineSet
EndChar

StartChar: uniA833
Encoding: 14 43059 15
Width: 623
GlyphClass: 2
Flags: W
HStem: 412 210
LayerCount: 2
Fore
SplineSet
60 412 m 1,0,-1
 40 491 l 1,1,-1
 563 622 l 1,2,-1
 583 542 l 1,3,-1
 60 412 l 1,0,-1
EndSplineSet
EndChar

StartChar: uniA834
Encoding: 15 43060 16
Width: 623
GlyphClass: 2
Flags: W
LayerCount: 2
Fore
SplineSet
60 412 m 1,0,-1
 40 491 l 1,1,-1
 563 622 l 1,2,-1
 583 542 l 1,3,-1
 60 412 l 1,0,-1
60 215 m 1,4,-1
 40 294 l 1,5,-1
 563 425 l 1,6,-1
 583 345 l 1,7,-1
 60 215 l 1,4,-1
EndSplineSet
EndChar

StartChar: uniA835
Encoding: 16 43061 17
Width: 623
GlyphClass: 2
Flags: W
LayerCount: 2
Fore
SplineSet
60 412 m 1,0,-1
 40 491 l 1,1,-1
 563 622 l 1,2,-1
 583 542 l 1,3,-1
 60 412 l 1,0,-1
60 215 m 1,4,-1
 40 294 l 1,5,-1
 563 425 l 1,6,-1
 583 345 l 1,7,-1
 60 215 l 1,4,-1
60 18 m 1,8,-1
 40 97 l 1,9,-1
 563 228 l 1,10,-1
 583 148 l 1,11,-1
 60 18 l 1,8,-1
EndSplineSet
EndChar

StartChar: uniA836
Encoding: 17 43062 18
Width: 460
GlyphClass: 2
Flags: W
HStem: 167 70<167.32 293.715> 404 69<167.411 291.176>
VStem: 67 76<261.032 378.953> 317 76<260.499 378.343>
LayerCount: 2
Fore
SplineSet
230 167 m 0,0,1
 157 167 157 167 112 210.5 c 128,-1,2
 67 254 67 254 67 320 c 256,3,4
 67 386 67 386 112 429.5 c 128,-1,5
 157 473 157 473 230 473 c 0,6,7
 280 473 280 473 316.5 453 c 128,-1,8
 353 433 353 433 373 398.5 c 128,-1,9
 393 364 393 364 393 321 c 0,10,11
 393 279 393 279 373 244 c 128,-1,12
 353 209 353 209 316.5 188 c 128,-1,13
 280 167 280 167 230 167 c 0,0,1
230 237 m 256,14,15
 272 237 272 237 294.5 259.5 c 128,-1,16
 317 282 317 282 317 319 c 0,17,18
 317 357 317 357 293.5 380.5 c 128,-1,19
 270 404 270 404 229 404 c 0,20,21
 187 404 187 404 165 380 c 128,-1,22
 143 356 143 356 143 321 c 0,23,24
 143 283 143 283 165.5 260 c 128,-1,25
 188 237 188 237 230 237 c 256,14,15
EndSplineSet
EndChar

StartChar: uniA837
Encoding: 18 43063 19
Width: 509
GlyphClass: 2
Flags: W
HStem: 86 70<156.47 282.124>
VStem: 57 76<179.862 298.104> 307 76<180.827 297.215>
LayerCount: 2
Fore
SplineSet
221 86 m 0,0,1
 148 86 148 86 102.5 127.5 c 128,-1,2
 57 169 57 169 57 236 c 0,3,4
 57 276 57 276 73.5 305.5 c 128,-1,5
 90 335 90 335 113.5 357 c 128,-1,6
 137 379 137 379 158 395 c 2,7,-1
 453 623 l 1,8,-1
 499 565 l 1,9,-1
 407 492 l 2,10,11
 375 466 375 466 338 439 c 128,-1,12
 301 412 301 412 264 387 c 1,13,14
 318 375 318 375 350.5 336 c 128,-1,15
 383 297 383 297 383 241 c 0,16,17
 383 171 383 171 339 128.5 c 128,-1,18
 295 86 295 86 221 86 c 0,0,1
219 156 m 0,19,20
 262 156 262 156 284.5 179.5 c 128,-1,21
 307 203 307 203 307 238 c 0,22,23
 307 276 307 276 283.5 299.5 c 128,-1,24
 260 323 260 323 219 323 c 256,25,26
 178 323 178 323 155.5 299 c 128,-1,27
 133 275 133 275 133 238 c 256,28,29
 133 201 133 201 155.5 178.5 c 128,-1,30
 178 156 178 156 219 156 c 0,19,20
EndSplineSet
EndChar

StartChar: uniA838
Encoding: 19 43064 20
Width: 326
GlyphClass: 2
Flags: W
HStem: -188 73<-149.22 53.7391>
VStem: 104 81<529.956 603.556> 164 82<14.5162 425.672>
LayerCount: 2
Fore
SplineSet
-53 -188 m 0,0,1
 -85 -188 -85 -188 -111.5 -184.5 c 128,-1,2
 -138 -181 -138 -181 -157 -177 c 1,3,-1
 -150 -104 l 1,4,5
 -125 -109 -125 -109 -103.5 -112 c 128,-1,6
 -82 -115 -82 -115 -58 -115 c 0,7,8
 27 -115 27 -115 75.5 -80.5 c 128,-1,9
 124 -46 124 -46 144 20 c 128,-1,10
 164 86 164 86 164 182 c 0,11,12
 164 259 164 259 155.5 334.5 c 128,-1,13
 147 410 147 410 133 478.5 c 128,-1,14
 119 547 119 547 104 602 c 1,15,-1
 185 620 l 1,16,17
 202 558 202 558 216 482.5 c 128,-1,18
 230 407 230 407 238 328 c 128,-1,19
 246 249 246 249 246 175 c 0,20,21
 246 106 246 106 234.5 41 c 128,-1,22
 223 -24 223 -24 191 -75.5 c 128,-1,23
 159 -127 159 -127 100.5 -157.5 c 128,-1,24
 42 -188 42 -188 -53 -188 c 0,0,1
EndSplineSet
EndChar

StartChar: uniA839
Encoding: 20 43065 21
Width: 337
GlyphClass: 2
Flags: W
HStem: -240 80<-149.686 54.5946> 547 73<252.593 314.918>
VStem: 65 86<316.164 474.875> 176 86<-58.2296 134.755>
LayerCount: 2
Fore
SplineSet
-95 -240 m 0,0,1
 -113 -240 -113 -240 -125.5 -239 c 128,-1,2
 -138 -238 -138 -238 -157 -237 c 1,3,-1
 -150 -157 l 1,4,5
 -140 -158 -140 -158 -125 -159 c 128,-1,6
 -110 -160 -110 -160 -101 -160 c 0,7,8
 6 -160 6 -160 66.5 -134 c 128,-1,9
 127 -108 127 -108 151.5 -64 c 128,-1,10
 176 -20 176 -20 176 32 c 0,11,12
 176 76 176 76 157.5 125.5 c 128,-1,13
 139 175 139 175 118 222 c 0,14,15
 98 268 98 268 81.5 313 c 128,-1,16
 65 358 65 358 65 405 c 0,17,18
 65 496 65 496 132 546 c 128,-1,19
 199 596 199 596 313 620 c 1,20,-1
 333 547 l 1,21,22
 244 530 244 530 197.5 498 c 128,-1,23
 151 466 151 466 151 406 c 0,24,25
 151 375 151 375 163.5 340.5 c 128,-1,26
 176 306 176 306 197 259 c 0,27,28
 222 203 222 203 242 147 c 128,-1,29
 262 91 262 91 262 35 c 0,30,31
 262 -10 262 -10 247 -58 c 128,-1,32
 232 -106 232 -106 193 -147.5 c 128,-1,33
 154 -189 154 -189 84.5 -214.5 c 128,-1,34
 15 -240 15 -240 -95 -240 c 0,0,1
EndSplineSet
EndChar

StartChar: u112B0
Encoding: 21 70320 22
Width: 996
GlyphClass: 2
Flags: W
HStem: -10 75<865.568 965.562> 0 21G<177 264.468 477 564.035> 535 85<360.865 453.728 676.614 764.883>
VStem: 761 86<86.6619 402.697> 782 85<178.97 519.418>
AnchorPoint: "+BBEENQQ3BEsEPARPBD0EPQQ+BDUA--3" 540 680 basechar 0
AnchorPoint: "+BBEENQQ3BEsEPARPBD0EPQQ+BDUA--0" 530 0 basechar 0
LayerCount: 2
Fore
SplineSet
904 -10 m 0,0,1
 828 -10 828 -10 794.5 25.5 c 128,-1,2
 761 61 761 61 761 129 c 0,3,4
 761 170 761 170 763.5 211 c 128,-1,5
 766 252 766 252 770 283 c 0,6,7
 775 321 775 321 778.5 354.5 c 128,-1,8
 782 388 782 388 782 423 c 0,9,10
 782 448 782 448 779 474 c 128,-1,11
 776 500 776 500 764 517.5 c 128,-1,12
 752 535 752 535 725 535 c 0,13,14
 676 535 676 535 639 461 c 128,-1,15
 602 387 602 387 585 226 c 2,16,-1
 562 0 l 1,17,-1
 477 0 l 1,18,-1
 499 197 l 1,19,20
 499 263 499 263 496 323.5 c 128,-1,21
 493 384 493 384 484.5 432 c 128,-1,22
 476 480 476 480 458 507.5 c 128,-1,23
 440 535 440 535 410 535 c 0,24,25
 377 535 377 535 355.5 507 c 128,-1,26
 334 479 334 479 321.5 430 c 128,-1,27
 309 381 309 381 301 316 c 2,28,-1
 262 0 l 1,29,-1
 177 0 l 1,30,-1
 197 164 l 1,31,32
 193 241 193 241 167 316 c 128,-1,33
 141 391 141 391 102.5 455.5 c 128,-1,34
 64 520 64 520 22 566 c 1,35,-1
 82 620 l 1,36,37
 133 567 133 567 170 491.5 c 128,-1,38
 207 416 207 416 230 339 c 1,39,40
 237 421 237 421 259 484.5 c 128,-1,41
 281 548 281 548 318 584 c 128,-1,42
 355 620 355 620 409 620 c 0,43,44
 481 620 481 620 511 570 c 128,-1,45
 541 520 541 520 555 429 c 1,46,47
 580 519 580 519 624.5 569.5 c 128,-1,48
 669 620 669 620 738 620 c 0,49,50
 812 620 812 620 839.5 571.5 c 128,-1,51
 867 523 867 523 867 437 c 0,52,53
 867 399 867 399 863.5 355.5 c 128,-1,54
 860 312 860 312 855 268 c 0,55,56
 851 232 851 232 849 201 c 128,-1,57
 847 170 847 170 847 151 c 0,58,59
 847 107 847 107 865 86 c 128,-1,60
 883 65 883 65 923 65 c 0,61,62
 931 65 931 65 946 67.5 c 128,-1,63
 961 70 961 70 976 75 c 1,64,-1
 966 0 l 1,65,66
 952 -6 952 -6 936 -8 c 128,-1,67
 920 -10 920 -10 904 -10 c 0,0,1
EndSplineSet
EndChar

StartChar: u112B2
Encoding: 23 70322 24
Width: 607
GlyphClass: 2
Flags: W
HStem: -10 80<184.601 326.763> 552 68<492.156 601>
VStem: 50 85<121.499 307.925> 375 85<121.499 282.25>
AnchorPoint: "+BBEENQQ3BEsEPARPBD0EPQQ+BDUA--3" 344 680 basechar 0
AnchorPoint: "+BBEENQQ3BEsEPARPBD0EPQQ+BDUA--0" 264 0 basechar 0
LayerCount: 2
Fore
SplineSet
255 -10 m 0,0,1
 196 -10 196 -10 156.5 9.5 c 128,-1,2
 117 29 117 29 93.5 61 c 128,-1,3
 70 93 70 93 60 131 c 128,-1,4
 50 169 50 169 50 206 c 0,5,6
 50 276 50 276 77 333 c 128,-1,7
 104 390 104 390 150 435.5 c 128,-1,8
 196 481 196 481 253.5 515 c 128,-1,9
 311 549 311 549 373 571.5 c 128,-1,10
 435 594 435 594 494 606 c 128,-1,11
 553 618 553 618 601 620 c 1,12,-1
 617 552 l 1,13,14
 505 539 505 539 412 507.5 c 128,-1,15
 319 476 319 476 254 426 c 1,16,17
 315 418 315 418 361.5 387 c 128,-1,18
 408 356 408 356 434 307.5 c 128,-1,19
 460 259 460 259 460 199 c 0,20,21
 460 163 460 163 449 126 c 128,-1,22
 438 89 438 89 413.5 58 c 128,-1,23
 389 27 389 27 350 8.5 c 128,-1,24
 311 -10 311 -10 255 -10 c 0,0,1
135 204 m 0,25,26
 135 169 135 169 148 138.5 c 128,-1,27
 161 108 161 108 188 89 c 128,-1,28
 215 70 215 70 256 70 c 0,29,30
 300 70 300 70 326 91 c 128,-1,31
 352 112 352 112 363.5 142 c 128,-1,32
 375 172 375 172 375 198 c 0,33,34
 375 271 375 271 325.5 316.5 c 128,-1,35
 276 362 276 362 193 368 c 1,36,37
 165 333 165 333 150 292 c 128,-1,38
 135 251 135 251 135 204 c 0,25,26
EndSplineSet
EndChar

StartChar: u112B3
Encoding: 24 70323 25
Width: 967
GlyphClass: 2
Flags: W
HStem: -10 80<178.664 298.447 597.631 717.702> 500 80<315.701 580.903> 552 68<879.375 952.647>
VStem: 50 85<115.577 331.121> 331 85<104.865 314.503> 478 85<107.456 314.422> 759 85<114.613 333.268>
AnchorPoint: "+BBEENQQ3BEsEPARPBD0EPQQ+BDUA--3" 442 680 basechar 0
AnchorPoint: "+BBEENQQ3BEsEPARPBD0EPQQ+BDUA--0" 446 0 basechar 0
LayerCount: 2
Fore
SplineSet
238 -10 m 256,0,1
 149 -10 149 -10 99.5 49.5 c 128,-1,2
 50 109 50 109 50 215 c 0,3,4
 50 303 50 303 82.5 371 c 128,-1,5
 115 439 115 439 171.5 485.5 c 128,-1,6
 228 532 228 532 300.5 556 c 128,-1,7
 373 580 373 580 453 580 c 0,8,9
 517 580 517 580 574 565 c 128,-1,10
 631 550 631 550 678 522 c 1,11,12
 738 558 738 558 808.5 582.5 c 128,-1,13
 879 607 879 607 951 620 c 1,14,-1
 967 552 l 1,15,16
 905 540 905 540 847.5 520.5 c 128,-1,17
 790 501 790 501 741 474 c 1,18,19
 789 428 789 428 816.5 364.5 c 128,-1,20
 844 301 844 301 844 224 c 0,21,22
 844 156 844 156 822 103 c 128,-1,23
 800 50 800 50 758 20 c 128,-1,24
 716 -10 716 -10 656 -10 c 0,25,26
 598 -10 598 -10 558.5 18.5 c 128,-1,27
 519 47 519 47 498.5 95.5 c 128,-1,28
 478 144 478 144 478 205 c 0,29,30
 478 287 478 287 512.5 353 c 128,-1,31
 547 419 547 419 605 469 c 1,32,33
 536 500 536 500 448 500 c 0,34,35
 358 500 358 500 288 467 c 1,36,37
 343 431 343 431 379.5 368.5 c 128,-1,38
 416 306 416 306 416 208 c 0,39,40
 416 107 416 107 371.5 48.5 c 128,-1,41
 327 -10 327 -10 238 -10 c 256,0,1
563 205 m 0,42,43
 563 190 563 190 565.5 167 c 128,-1,44
 568 144 568 144 577 122 c 128,-1,45
 586 100 586 100 605 85 c 128,-1,46
 624 70 624 70 657 70 c 0,47,48
 701 70 701 70 730 104 c 128,-1,49
 759 138 759 138 759 217 c 0,50,51
 759 285 759 285 735.5 337.5 c 128,-1,52
 712 390 712 390 671 426 c 1,53,54
 621 385 621 385 592 330 c 128,-1,55
 563 275 563 275 563 205 c 0,42,43
135 216 m 0,56,57
 135 140 135 140 164.5 105 c 128,-1,58
 194 70 194 70 240 70 c 0,59,60
 280 70 280 70 299 91 c 128,-1,61
 318 112 318 112 324.5 142.5 c 128,-1,62
 331 173 331 173 331 201 c 0,63,64
 331 273 331 273 302.5 329 c 128,-1,65
 274 385 274 385 214 417 c 1,66,67
 177 380 177 380 156 329.5 c 128,-1,68
 135 279 135 279 135 216 c 0,56,57
EndSplineSet
EndChar

StartChar: u112B4
Encoding: 25 70324 26
Width: 648
GlyphClass: 2
Flags: W
HStem: -10 80<221.34 460.096> 270 80<285.751 470.561> 535 75<199.536 487.756>
VStem: 50 85<165.755 457.7> 523 85<123.309 253.232 391.218 499.153>
AnchorPoint: "+BBEENQQ3BEsEPARPBD0EPQQ+BDUA--3" 344 680 basechar 0
AnchorPoint: "+BBEENQQ3BEsEPARPBD0EPQQ+BDUA--0" 340 0 basechar 0
LayerCount: 2
Fore
SplineSet
335 -10 m 0,0,1
 235 -10 235 -10 172 22 c 128,-1,2
 109 54 109 54 79.5 125 c 128,-1,3
 50 196 50 196 50 311 c 0,4,5
 50 397 50 397 65 452.5 c 128,-1,6
 80 508 80 508 105 540 c 128,-1,7
 130 572 130 572 159 587 c 128,-1,8
 188 602 188 602 216.5 606 c 128,-1,9
 245 610 245 610 267 610 c 2,10,-1
 406 610 l 2,11,12
 462 610 462 610 506.5 592 c 128,-1,13
 551 574 551 574 577.5 536 c 128,-1,14
 604 498 604 498 604 438 c 0,15,16
 604 397 604 397 590.5 367.5 c 128,-1,17
 577 338 577 338 554 318 c 1,18,19
 579 298 579 298 593.5 268 c 128,-1,20
 608 238 608 238 608 192 c 0,21,22
 608 91 608 91 536.5 40.5 c 128,-1,23
 465 -10 465 -10 335 -10 c 0,0,1
336 70 m 0,24,25
 523 70 523 70 523 188 c 0,26,27
 523 214 523 214 512 237 c 128,-1,28
 501 260 501 260 471 277 c 1,29,30
 457 273 457 273 437 271.5 c 128,-1,31
 417 270 417 270 394 270 c 0,32,33
 372 270 372 270 341 272 c 128,-1,34
 310 274 310 274 274 280 c 1,35,-1
 285 359 l 1,36,37
 309 355 309 355 338 352.5 c 128,-1,38
 367 350 367 350 389 350 c 0,39,40
 463 350 463 350 491 379 c 128,-1,41
 519 408 519 408 519 447 c 0,42,43
 519 483 519 483 493 509 c 128,-1,44
 467 535 467 535 399 535 c 2,45,-1
 290 535 l 2,46,47
 265 535 265 535 237.5 529.5 c 128,-1,48
 210 524 210 524 187 503.5 c 128,-1,49
 164 483 164 483 149.5 438 c 128,-1,50
 135 393 135 393 135 315 c 256,51,52
 135 237 135 237 149 188.5 c 128,-1,53
 163 140 163 140 189.5 114.5 c 128,-1,54
 216 89 216 89 253 79.5 c 128,-1,55
 290 70 290 70 336 70 c 0,24,25
EndSplineSet
EndChar

StartChar: u112B5
Encoding: 26 70325 27
Width: 648
GlyphClass: 2
Flags: W
HStem: -10 80<221.34 460.096> 270 80<285.751 470.561> 535 75<210.337 453.281> 743 77<281.077 444.56>
VStem: 50 85<165.755 457.618> 470 85<607.127 721.424> 523 85<123.309 253.232 391.218 499.538>
AnchorPoint: "+BBEENQQ3BEsEPARPBD0EPQQ+BDUA--3" 372 865 basechar 0
AnchorPoint: "+BBEENQQ3BEsEPARPBD0EPQQ+BDUA--0" 340 0 basechar 0
LayerCount: 2
Fore
SplineSet
335 -10 m 0,0,1
 235 -10 235 -10 172 22 c 128,-1,2
 109 54 109 54 79.5 125 c 128,-1,3
 50 196 50 196 50 311 c 0,4,5
 50 401 50 401 67 457.5 c 128,-1,6
 84 514 84 514 110 547 c 1,7,8
 125 673 125 673 191 746.5 c 128,-1,9
 257 820 257 820 372 820 c 0,10,11
 457 820 457 820 506 785.5 c 128,-1,12
 555 751 555 751 555 685 c 0,13,14
 555 629 555 629 531 579 c 1,15,16
 565 559 565 559 584.5 524 c 128,-1,17
 604 489 604 489 604 438 c 0,18,19
 604 397 604 397 590.5 367.5 c 128,-1,20
 577 338 577 338 554 318 c 1,21,22
 579 298 579 298 593.5 268 c 128,-1,23
 608 238 608 238 608 192 c 0,24,25
 608 91 608 91 536.5 40.5 c 128,-1,26
 465 -10 465 -10 335 -10 c 0,0,1
369 743 m 0,27,28
 307 743 307 743 267 711.5 c 128,-1,29
 227 680 227 680 210 605 c 1,30,31
 226 608 226 608 240.5 609 c 128,-1,32
 255 610 255 610 267 610 c 2,33,-1
 406 610 l 2,34,35
 431 610 431 610 454 606 c 1,36,37
 462 627 462 627 466 642 c 128,-1,38
 470 657 470 657 470 672 c 0,39,40
 470 709 470 709 442 726 c 128,-1,41
 414 743 414 743 369 743 c 0,27,28
336 70 m 0,42,43
 523 70 523 70 523 188 c 0,44,45
 523 214 523 214 512 237 c 128,-1,46
 501 260 501 260 471 277 c 1,47,48
 457 273 457 273 437 271.5 c 128,-1,49
 417 270 417 270 394 270 c 0,50,51
 372 270 372 270 341 272 c 128,-1,52
 310 274 310 274 274 280 c 1,53,-1
 285 359 l 1,54,55
 309 355 309 355 338 352.5 c 128,-1,56
 367 350 367 350 389 350 c 0,57,58
 463 350 463 350 491 379 c 128,-1,59
 519 408 519 408 519 447 c 0,60,61
 519 483 519 483 493 509 c 128,-1,62
 467 535 467 535 399 535 c 2,63,-1
 290 535 l 2,64,65
 265 535 265 535 237.5 529.5 c 128,-1,66
 210 524 210 524 187 503.5 c 128,-1,67
 164 483 164 483 149.5 438 c 128,-1,68
 135 393 135 393 135 315 c 256,69,70
 135 237 135 237 149 188.5 c 128,-1,71
 163 140 163 140 189.5 114.5 c 128,-1,72
 216 89 216 89 253 79.5 c 128,-1,73
 290 70 290 70 336 70 c 0,42,43
EndSplineSet
EndChar

StartChar: u112BA
Encoding: 31 70330 32
Width: 767
GlyphClass: 2
Flags: W
HStem: -10 75<636.568 736.562> 0 21G<228 315.035> 535 85<132.579 209.976 433.053 532.142>
VStem: 24 74<379.581 483.129> 532 86<84.6161 391.716> 553 85<178.489 516.334>
AnchorPoint: "+BBEENQQ3BEsEPARPBD0EPQQ+BDUA--4" 544 680 basechar 0
AnchorPoint: "+BBEENQQ3BEsEPARPBD0EPQQ+BDUA--3" 400 680 basechar 0
AnchorPoint: "+BBEENQQ3BEsEPARPBD0EPQQ+BDUA--1" 510 600 basechar 0
AnchorPoint: "+BBEENQQ3BEsEPARPBD0EPQQ+BDUA--0" 450 0 basechar 0
LayerCount: 2
Fore
SplineSet
675 -10 m 0,0,1
 599 -10 599 -10 565.5 25.5 c 128,-1,2
 532 61 532 61 532 129 c 0,3,4
 532 170 532 170 534.5 203.5 c 128,-1,5
 537 237 537 237 541 273 c 0,6,7
 546 312 546 312 549.5 352 c 128,-1,8
 553 392 553 392 553 423 c 0,9,10
 553 448 553 448 549 474 c 128,-1,11
 545 500 545 500 531 517.5 c 128,-1,12
 517 535 517 535 486 535 c 0,13,14
 433 535 433 535 393 461 c 128,-1,15
 353 387 353 387 336 226 c 2,16,-1
 313 0 l 1,17,-1
 228 0 l 1,18,-1
 250 197 l 1,19,20
 250 263 250 263 248 323.5 c 128,-1,21
 246 384 246 384 238 432 c 128,-1,22
 230 480 230 480 214 507.5 c 128,-1,23
 198 535 198 535 170 535 c 0,24,25
 136 535 136 535 121.5 489 c 128,-1,26
 107 443 107 443 98 366 c 1,27,-1
 24 381 l 1,28,29
 32 452 32 452 48 506 c 128,-1,30
 64 560 64 560 94.5 590 c 128,-1,31
 125 620 125 620 176 620 c 0,32,33
 241 620 241 620 268.5 570.5 c 128,-1,34
 296 521 296 521 307 431 c 1,35,36
 334 520 334 520 380 570 c 128,-1,37
 426 620 426 620 499 620 c 0,38,39
 579 620 579 620 608.5 571.5 c 128,-1,40
 638 523 638 523 638 437 c 0,41,42
 638 399 638 399 634.5 355.5 c 128,-1,43
 631 312 631 312 626 268 c 0,44,45
 622 232 622 232 620 201 c 128,-1,46
 618 170 618 170 618 151 c 0,47,48
 618 107 618 107 636 86 c 128,-1,49
 654 65 654 65 694 65 c 0,50,51
 702 65 702 65 717 67.5 c 128,-1,52
 732 70 732 70 747 75 c 1,53,-1
 737 0 l 1,54,55
 723 -6 723 -6 707 -8 c 128,-1,56
 691 -10 691 -10 675 -10 c 0,0,1
EndSplineSet
EndChar

StartChar: u112BB
Encoding: 32 70331 33
Width: 596
GlyphClass: 2
Flags: W
HStem: -10 80<242.035 435.822> 264 75<153.48 425.624> 547 73<315.466 409.062>
VStem: 20 85<381.189 533.367> 481 85<113.403 247.016 370.287 494.991>
AnchorPoint: "+BBEENQQ3BEsEPARPBD0EPQQ+BDUA--4" 434 680 basechar 0
AnchorPoint: "+BBEENQQ3BEsEPARPBD0EPQQ+BDUA--3" 274 680 basechar 0
AnchorPoint: "+BBEENQQ3BEsEPARPBD0EPQQ+BDUA--1" 420 580 basechar 0
AnchorPoint: "+BBEENQQ3BEsEPARPBD0EPQQ+BDUA--0" 322 0 basechar 0
LayerCount: 2
Fore
SplineSet
354 -10 m 0,0,1
 288 -10 288 -10 230 7.5 c 128,-1,2
 172 25 172 25 120 63 c 1,3,-1
 164 132 l 1,4,5
 202 108 202 108 248.5 89 c 128,-1,6
 295 70 295 70 352 70 c 0,7,8
 386 70 386 70 415 81 c 128,-1,9
 444 92 444 92 462.5 117.5 c 128,-1,10
 481 143 481 143 481 184 c 0,11,12
 481 205 481 205 471 229.5 c 128,-1,13
 461 254 461 254 426 268 c 1,14,15
 414 266 414 266 398.5 265 c 128,-1,16
 383 264 383 264 368 264 c 2,17,-1
 246 264 l 2,18,19
 143 264 143 264 81.5 308 c 128,-1,20
 20 352 20 352 20 437 c 0,21,22
 20 490 20 490 41.5 537.5 c 128,-1,23
 63 585 63 585 86 620 c 1,24,-1
 156 586 l 1,25,26
 132 548 132 548 118.5 514.5 c 128,-1,27
 105 481 105 481 105 448 c 0,28,29
 105 388 105 388 148 363.5 c 128,-1,30
 191 339 191 339 261 339 c 2,31,-1
 362 339 l 2,32,33
 432 339 432 339 456.5 367 c 128,-1,34
 481 395 481 395 481 435 c 0,35,36
 481 491 481 491 430 516.5 c 128,-1,37
 379 542 379 542 301 547 c 1,38,-1
 317 620 l 1,39,40
 381 615 381 615 438 595.5 c 128,-1,41
 495 576 495 576 530.5 536 c 128,-1,42
 566 496 566 496 566 431 c 0,43,44
 566 396 566 396 553.5 364 c 128,-1,45
 541 332 541 332 513 308 c 1,46,47
 542 282 542 282 554 247 c 128,-1,48
 566 212 566 212 566 176 c 0,49,50
 566 88 566 88 510 39 c 128,-1,51
 454 -10 454 -10 354 -10 c 0,0,1
EndSplineSet
PairPos2: "'dist' Distance in Khudawadi lookup 1 subtable" u112E2.alt dx=0 dy=0 dh=0 dv=0 dx=-8 dy=0 dh=-8 dv=0
EndChar

StartChar: u112BC
Encoding: 33 70332 34
Width: 688
GlyphClass: 2
Flags: W
HStem: -10 79<374.848 448.989> 0 21G<197.5 226.704> 535 75<169.777 435.287>
VStem: 85 84<126.006 535> 563 85<199.246 399.039>
AnchorPoint: "+BBEENQQ3BEsEPARPBD0EPQQ+BDUA--4" 494 680 basechar 0
AnchorPoint: "+BBEENQQ3BEsEPARPBD0EPQQ+BDUA--3" 308 680 basechar 0
AnchorPoint: "+BBEENQQ3BEsEPARPBD0EPQQ+BDUA--1" 430 585 basechar 0
AnchorPoint: "+BBEENQQ3BEsEPARPBD0EPQQ+BDUA--0" 320 0 basechar 0
LayerCount: 2
Fore
SplineSet
309 176 m 1,0,-1
 256 233 l 1,1,-1
 510 466 l 1,2,3
 443 535 443 535 300 535 c 2,4,-1
 169 535 l 1,5,-1
 169 210 l 2,6,7
 169 158 169 158 190.5 126 c 128,-1,8
 212 94 212 94 254 71 c 1,9,-1
 216 0 l 1,10,11
 179 21 179 21 149 45.5 c 128,-1,12
 119 70 119 70 102 103.5 c 128,-1,13
 85 137 85 137 85 186 c 2,14,-1
 85 542 l 1,15,16
 68 546 68 546 52 551 c 128,-1,17
 36 556 36 556 25 564 c 1,18,-1
 49 632 l 1,19,20
 70 623 70 623 105 616.5 c 128,-1,21
 140 610 140 610 203 610 c 2,22,-1
 318 610 l 2,23,24
 431 610 431 610 504 572.5 c 128,-1,25
 577 535 577 535 612.5 468.5 c 128,-1,26
 648 402 648 402 648 315 c 0,27,28
 648 216 648 216 610.5 144.5 c 128,-1,29
 573 73 573 73 511.5 33.5 c 128,-1,30
 450 -6 450 -6 376 -10 c 1,31,-1
 363 69 l 1,32,33
 434 73 434 73 478 110 c 128,-1,34
 522 147 522 147 542.5 202.5 c 128,-1,35
 563 258 563 258 563 315 c 0,36,37
 563 362 563 362 550 400 c 1,38,-1
 309 176 l 1,0,-1
EndSplineSet
EndChar

StartChar: u112BD
Encoding: 34 70333 35
Width: 694
GlyphClass: 2
Flags: W
HStem: -10 80<149.842 267.46> 269 78<150.73 285.697>
VStem: 40 83<97.9485 240.06> 307 82<117.277 247.165 319 610> 516 84<0 610>
AnchorPoint: "+BBEENQQ3BEsEPARPBD0EPQQ+BDUA--4" 504 680 basechar 0
AnchorPoint: "+BBEENQQ3BEsEPARPBD0EPQQ+BDUA--3" 463 680 basechar 0
AnchorPoint: "+BBEENQQ3BEsEPARPBD0EPQQ+BDUA--1" 532 620 basechar 0
AnchorPoint: "+BBEENQQ3BEsEPARPBD0EPQQ+BDUA--0" 367 0 basechar 0
LayerCount: 2
Fore
SplineSet
211 -10 m 0,0,1
 152 -10 152 -10 114 14.5 c 128,-1,2
 76 39 76 39 58 79 c 128,-1,3
 40 119 40 119 40 167 c 0,4,5
 40 244 40 244 83 295.5 c 128,-1,6
 126 347 126 347 206 347 c 0,7,8
 237 347 237 347 261.5 339.5 c 128,-1,9
 286 332 286 332 307 319 c 1,10,-1
 307 620 l 1,11,-1
 389 610 l 1,12,-1
 389 246 l 2,13,14
 389 221 389 221 387 188 c 128,-1,15
 385 155 385 155 377 120.5 c 128,-1,16
 369 86 369 86 350 56.5 c 128,-1,17
 331 27 331 27 297.5 8.5 c 128,-1,18
 264 -10 264 -10 211 -10 c 0,0,1
600 -10 m 1,19,-1
 516 0 l 1,20,-1
 516 620 l 1,21,-1
 600 610 l 1,22,-1
 600 -10 l 1,19,-1
123 171 m 0,23,24
 123 131 123 131 143 100.5 c 128,-1,25
 163 70 163 70 209 70 c 0,26,27
 250 70 250 70 270.5 94.5 c 128,-1,28
 291 119 291 119 298.5 157 c 128,-1,29
 306 195 306 195 307 234 c 1,30,31
 283 250 283 250 260.5 259.5 c 128,-1,32
 238 269 238 269 212 269 c 0,33,34
 166 269 166 269 144.5 240.5 c 128,-1,35
 123 212 123 212 123 171 c 0,23,24
EndSplineSet
PairPos2: "'dist' Distance in Khudawadi lookup 1 subtable" u112E2.alt dx=0 dy=0 dh=0 dv=0 dx=94 dy=0 dh=94 dv=0
EndChar

StartChar: u112BE
Encoding: 35 70334 36
Width: 629
GlyphClass: 2
Flags: W
HStem: -10 79<192.953 372.418> 156 72<141.934 244.537> 336 72<143.241 235.846> 541 79<167.614 379.974>
VStem: 54 76<241.154 323.952> 495 84<196.834 383.269>
AnchorPoint: "+BBEENQQ3BEsEPARPBD0EPQQ+BDUA--4" 424 680 basechar 0
AnchorPoint: "+BBEENQQ3BEsEPARPBD0EPQQ+BDUA--3" 308 680 basechar 0
AnchorPoint: "+BBEENQQ3BEsEPARPBD0EPQQ+BDUA--1" 380 585 basechar 0
AnchorPoint: "+BBEENQQ3BEsEPARPBD0EPQQ+BDUA--0" 296 0 basechar 0
LayerCount: 2
Fore
SplineSet
184 156 m 0,0,1
 125 156 125 156 89.5 191.5 c 128,-1,2
 54 227 54 227 54 281 c 256,3,4
 54 335 54 335 90 371.5 c 128,-1,5
 126 408 126 408 187 408 c 0,6,7
 229 408 229 408 265 386.5 c 128,-1,8
 301 365 301 365 315 317 c 1,9,-1
 453 458 l 1,10,11
 425 498 425 498 379.5 519.5 c 128,-1,12
 334 541 334 541 275 541 c 0,13,14
 217 541 217 541 167.5 519.5 c 128,-1,15
 118 498 118 498 76 451 c 1,16,-1
 20 508 l 1,17,18
 63 557 63 557 126 588.5 c 128,-1,19
 189 620 189 620 276 620 c 0,20,21
 361 620 361 620 429.5 585 c 128,-1,22
 498 550 498 550 538.5 481.5 c 128,-1,23
 579 413 579 413 579 313 c 0,24,25
 579 216 579 216 540.5 143.5 c 128,-1,26
 502 71 502 71 433.5 30.5 c 128,-1,27
 365 -10 365 -10 275 -10 c 0,28,29
 233 -10 233 -10 192 0 c 1,30,-1
 192 77 l 1,31,32
 212 73 212 73 232.5 71 c 128,-1,33
 253 69 253 69 272 69 c 0,34,35
 339 69 339 69 389 99 c 128,-1,36
 439 129 439 129 467 183.5 c 128,-1,37
 495 238 495 238 495 312 c 0,38,39
 495 351 495 351 487 384 c 1,40,-1
 327 224 l 2,41,42
 289 186 289 186 254 171 c 128,-1,43
 219 156 219 156 184 156 c 0,0,1
130 283 m 0,44,45
 130 261 130 261 143.5 244.5 c 128,-1,46
 157 228 157 228 188 228 c 0,47,48
 209 228 209 228 225.5 237 c 128,-1,49
 242 246 242 246 258 261 c 1,50,51
 255 301 255 301 234 318.5 c 128,-1,52
 213 336 213 336 187 336 c 0,53,54
 162 336 162 336 146 322 c 128,-1,55
 130 308 130 308 130 283 c 0,44,45
EndSplineSet
EndChar

StartChar: u112C0
Encoding: 37 70336 38
Width: 578
GlyphClass: 2
Flags: W
HStem: -10 80<218.202 349.427>
VStem: 107 85<96.3356 222.858> 372 85<92.7881 227.759>
AnchorPoint: "+BBEENQQ3BEsEPARPBD0EPQQ+BDUA--4" 414 680 basechar 0
AnchorPoint: "+BBEENQQ3BEsEPARPBD0EPQQ+BDUA--3" 281 680 basechar 0
AnchorPoint: "+BBEENQQ3BEsEPARPBD0EPQQ+BDUA--1" 488 573 basechar 0
AnchorPoint: "+BBEENQQ3BEsEPARPBD0EPQQ+BDUA--0" 285 0 basechar 0
LayerCount: 2
Fore
SplineSet
280 -10 m 0,0,1
 202 -10 202 -10 154.5 30.5 c 128,-1,2
 107 71 107 71 107 147 c 0,3,4
 107 211 107 211 140 258.5 c 128,-1,5
 173 306 173 306 228 360 c 1,6,-1
 22 560 l 1,7,-1
 78 620 l 1,8,-1
 288 417 l 1,9,-1
 501 620 l 1,10,-1
 556 562 l 1,11,-1
 345 362 l 1,12,13
 400 307 400 307 428.5 261 c 128,-1,14
 457 215 457 215 457 153 c 0,15,16
 457 97 457 97 433.5 60.5 c 128,-1,17
 410 24 410 24 370 7 c 128,-1,18
 330 -10 330 -10 280 -10 c 0,0,1
192 155 m 0,19,20
 192 113 192 113 218 91.5 c 128,-1,21
 244 70 244 70 284 70 c 0,22,23
 319 70 319 70 345.5 88.5 c 128,-1,24
 372 107 372 107 372 152 c 0,25,26
 372 193 372 193 352.5 225 c 128,-1,27
 333 257 333 257 285 304 c 1,28,29
 233 253 233 253 212.5 221.5 c 128,-1,30
 192 190 192 190 192 155 c 0,19,20
EndSplineSet
PairPos2: "'dist' Distance in Khudawadi lookup 1 subtable" u112E2 dx=0 dy=0 dh=0 dv=0 dx=200 dy=0 dh=200 dv=0
EndChar

StartChar: u112C1
Encoding: 38 70337 39
Width: 675
GlyphClass: 2
Flags: W
HStem: 0 75<206.876 411> 210 72<472.408 558.336> 283 75<241.844 383.22> 535 75<55 133 203.508 412>
VStem: 78 85<113.621 243.927> 103 85<390.143 521.322> 380 80<92.7766 195.921> 570 79<101.425 196.036>
AnchorPoint: "+BBEENQQ3BEsEPARPBD0EPQQ+BDUA--4" 494 680 basechar 0
AnchorPoint: "+BBEENQQ3BEsEPARPBD0EPQQ+BDUA--3" 365 680 basechar 0
AnchorPoint: "+BBEENQQ3BEsEPARPBD0EPQQ+BDUA--1" 354 600 basechar 0
AnchorPoint: "+BBEENQQ3BEsEPARPBD0EPQQ+BDUA--0" 344 0 basechar 0
LayerCount: 2
Fore
SplineSet
322 0 m 2,0,1
 283 0 283 0 240.5 5.5 c 128,-1,2
 198 11 198 11 161 27.5 c 128,-1,3
 124 44 124 44 101 77 c 128,-1,4
 78 110 78 110 78 165 c 0,5,6
 78 214 78 214 101.5 254 c 128,-1,7
 125 294 125 294 163 321 c 1,8,9
 135 341 135 341 119 370.5 c 128,-1,10
 103 400 103 400 103 439 c 0,11,12
 103 462 103 462 111 488 c 128,-1,13
 119 514 119 514 133 535 c 1,14,-1
 40 535 l 1,15,-1
 55 610 l 1,16,-1
 427 610 l 1,17,-1
 412 535 l 1,18,-1
 218 535 l 1,19,20
 205 519 205 519 196.5 498.5 c 128,-1,21
 188 478 188 478 188 455 c 0,22,23
 188 358 188 358 304 358 c 0,24,25
 316 358 316 358 341.5 360 c 128,-1,26
 367 362 367 362 396 366 c 1,27,-1
 384 289 l 1,28,29
 359 286 359 286 340 284.5 c 128,-1,30
 321 283 321 283 298 283 c 0,31,32
 268 283 268 283 241 289 c 1,33,34
 206 274 206 274 184.5 244 c 128,-1,35
 163 214 163 214 163 177 c 0,36,37
 163 133 163 133 187 111 c 128,-1,38
 211 89 211 89 247 82 c 128,-1,39
 283 75 283 75 317 75 c 2,40,-1
 411 75 l 1,41,42
 380 106 380 106 380 155 c 0,43,44
 380 215 380 215 416 248.5 c 128,-1,45
 452 282 452 282 512 282 c 0,46,47
 568 282 568 282 608.5 249 c 128,-1,48
 649 216 649 216 649 154 c 0,49,50
 649 117 649 117 631.5 81.5 c 128,-1,51
 614 46 614 46 572 23 c 128,-1,52
 530 0 530 0 455 0 c 2,53,-1
 322 0 l 2,0,1
460 148 m 0,54,55
 460 121 460 121 472.5 104 c 128,-1,56
 485 87 485 87 499 78 c 1,57,58
 538 84 538 84 554 104 c 128,-1,59
 570 124 570 124 570 150 c 0,60,61
 570 173 570 173 557.5 191.5 c 128,-1,62
 545 210 545 210 516 210 c 0,63,64
 488 210 488 210 474 193 c 128,-1,65
 460 176 460 176 460 148 c 0,54,55
EndSplineSet
PairPos2: "'dist' Distance in Khudawadi lookup 1 subtable" u112E2 dx=0 dy=0 dh=0 dv=0 dx=-40 dy=0 dh=-40 dv=0
EndChar

StartChar: u112C2
Encoding: 39 70338 40
Width: 750
GlyphClass: 2
Flags: W
HStem: -10 80<164.522 283.93> 0 75<580.238 705> 291 73<147 237.824> 540 80<286.917 541.75>
VStem: 41 85<112.256 290.031> 306 83<91.6984 228.974> 470 86<82.4387 173.114> 624 86<320.272 468.381>
AnchorPoint: "+BBEENQQ3BEsEPARPBD0EPQQ+BDUA--4" 544 680 basechar 0
AnchorPoint: "+BBEENQQ3BEsEPARPBD0EPQQ+BDUA--3" 400 680 basechar 0
AnchorPoint: "+BBEENQQ3BEsEPARPBD0EPQQ+BDUA--1" 540 580 basechar 0
AnchorPoint: "+BBEENQQ3BEsEPARPBD0EPQQ+BDUA--0" 408 0 basechar 0
LayerCount: 2
Fore
SplineSet
226 -10 m 0,0,1
 168 -10 168 -10 131.5 11.5 c 128,-1,2
 95 33 95 33 75.5 68 c 128,-1,3
 56 103 56 103 48.5 143 c 128,-1,4
 41 183 41 183 41 220 c 0,5,6
 41 299 41 299 63 371 c 128,-1,7
 85 443 85 443 131.5 499 c 128,-1,8
 178 555 178 555 250 587.5 c 128,-1,9
 322 620 322 620 421 620 c 0,10,11
 509 620 509 620 573.5 593 c 128,-1,12
 638 566 638 566 674 517.5 c 128,-1,13
 710 469 710 469 710 405 c 0,14,15
 710 358 710 358 695.5 323.5 c 128,-1,16
 681 289 681 289 659.5 263 c 128,-1,17
 638 237 638 237 615 214 c 0,18,19
 590 189 590 189 573 167 c 128,-1,20
 556 145 556 145 556 119 c 0,21,22
 556 88 556 88 579.5 81.5 c 128,-1,23
 603 75 603 75 641 75 c 2,24,-1
 717 75 l 1,25,-1
 705 0 l 1,26,-1
 629 0 l 2,27,28
 585 0 585 0 549 9 c 128,-1,29
 513 18 513 18 491.5 42.5 c 128,-1,30
 470 67 470 67 470 113 c 0,31,32
 470 156 470 156 492.5 189 c 128,-1,33
 515 222 515 222 546 252 c 0,34,35
 578 282 578 282 601 318 c 128,-1,36
 624 354 624 354 624 400 c 0,37,38
 624 457 624 457 574 498.5 c 128,-1,39
 524 540 524 540 419 540 c 0,40,41
 303 540 303 540 238 491.5 c 128,-1,42
 173 443 173 443 147 364 c 1,43,44
 227 364 227 364 281 336 c 128,-1,45
 335 308 335 308 362 262 c 128,-1,46
 389 216 389 216 389 162 c 0,47,48
 389 117 389 117 372 78 c 128,-1,49
 355 39 355 39 319 14.5 c 128,-1,50
 283 -10 283 -10 226 -10 c 0,0,1
126 217 m 0,51,52
 126 196 126 196 129 171 c 128,-1,53
 132 146 132 146 142 123 c 128,-1,54
 152 100 152 100 173 85 c 128,-1,55
 194 70 194 70 229 70 c 0,56,57
 271 70 271 70 288.5 97.5 c 128,-1,58
 306 125 306 125 306 161 c 0,59,60
 306 213 306 213 265 251 c 128,-1,61
 224 289 224 289 131 291 c 1,62,63
 126 256 126 256 126 217 c 0,51,52
EndSplineSet
EndChar

StartChar: u112C3
Encoding: 40 70339 41
Width: 1011
GlyphClass: 2
Flags: W
HStem: -10 80<704.379 827.663> 0 21G<88 175.386 346.585 429.5> 285 77<685.815 819.727> 546 74<27.2027 63.1182 864.856 974>
VStem: 88 83<159 521.308> 340 73<159 337> 347 66<0 48.9551 159 337> 579 83<118.512 233.445> 857 83<100.744 247.873>
AnchorPoint: "+BBEENQQ3BEsEPARPBD0EPQQ+BDUA--4" 774 680 basechar 0
AnchorPoint: "+BBEENQQ3BEsEPARPBD0EPQQ+BDUA--3" 435 680 basechar 0
AnchorPoint: "+BBEENQQ3BEsEPARPBD0EPQQ+BDUA--1" 871 600 basechar 0
AnchorPoint: "+BBEENQQ3BEsEPARPBD0EPQQ+BDUA--0" 450 0 basechar 0
LayerCount: 2
Fore
SplineSet
764 -10 m 0,0,1
 670 -10 670 -10 624.5 53 c 128,-1,2
 579 116 579 116 579 220 c 0,3,4
 579 227 579 227 579 234 c 1,5,6
 530 199 530 199 488 140.5 c 128,-1,7
 446 82 446 82 413 0 c 1,8,-1
 347 0 l 1,9,-1
 340 337 l 1,10,-1
 165 0 l 1,11,-1
 88 0 l 1,12,-1
 88 458 l 2,13,14
 88 500 88 500 67 522 c 128,-1,15
 46 544 46 544 10 546 c 1,16,-1
 29 620 l 1,17,18
 113 612 113 612 142 566.5 c 128,-1,19
 171 521 171 521 171 444 c 2,20,-1
 171 159 l 1,21,-1
 344 500 l 1,22,-1
 413 485 l 1,23,-1
 419 159 l 1,24,25
 486 276 486 276 592 327 c 1,26,27
 613 416 613 416 668.5 481.5 c 128,-1,28
 724 547 724 547 806 583.5 c 128,-1,29
 888 620 888 620 991 620 c 1,30,-1
 974 540 l 1,31,32
 867 540 867 540 792.5 490.5 c 128,-1,33
 718 441 718 441 685 357 c 1,34,35
 714 362 714 362 744 362 c 0,36,37
 802 362 802 362 840 343.5 c 128,-1,38
 878 325 878 325 900 296 c 128,-1,39
 922 267 922 267 931 233.5 c 128,-1,40
 940 200 940 200 940 169 c 0,41,42
 940 123 940 123 922 82.5 c 128,-1,43
 904 42 904 42 865 16 c 128,-1,44
 826 -10 826 -10 764 -10 c 0,0,1
662 228 m 0,45,46
 662 191 662 191 670.5 154.5 c 128,-1,47
 679 118 679 118 701.5 94 c 128,-1,48
 724 70 724 70 766 70 c 0,49,50
 814 70 814 70 835.5 101 c 128,-1,51
 857 132 857 132 857 176 c 0,52,53
 857 226 857 226 828.5 255.5 c 128,-1,54
 800 285 800 285 732 285 c 0,55,56
 698 285 698 285 665 276 c 1,57,58
 662 253 662 253 662 228 c 0,45,46
EndSplineSet
PairPos2: "'dist' Distance in Khudawadi lookup 1 subtable" u112E2 dx=0 dy=0 dh=0 dv=0 dx=130 dy=0 dh=130 dv=0
EndChar

StartChar: u112C4
Encoding: 41 70340 42
Width: 805
GlyphClass: 2
Flags: W
HStem: -10 80<163.522 282.93 545.397 661.234> 291 73<146 236.824> 540 80<285.03 541.339>
VStem: 40 85<112.256 290.031> 305 83<91.6984 228.974> 443 85<87.5793 196> 624 86<351.775 473.872> 682 85<88.4749 201.202>
AnchorPoint: "+BBEENQQ3BEsEPARPBD0EPQQ+BDUA--4" 564 680 basechar 0
AnchorPoint: "+BBEENQQ3BEsEPARPBD0EPQQ+BDUA--3" 421 680 basechar 0
AnchorPoint: "+BBEENQQ3BEsEPARPBD0EPQQ+BDUA--1" 550 580 basechar 0
AnchorPoint: "+BBEENQQ3BEsEPARPBD0EPQQ+BDUA--0" 410 0 basechar 0
LayerCount: 2
Fore
SplineSet
225 -10 m 0,0,1
 167 -10 167 -10 130.5 11.5 c 128,-1,2
 94 33 94 33 74.5 68 c 128,-1,3
 55 103 55 103 47.5 143 c 128,-1,4
 40 183 40 183 40 220 c 0,5,6
 40 299 40 299 62 371 c 128,-1,7
 84 443 84 443 130 499 c 128,-1,8
 176 555 176 555 248 587.5 c 128,-1,9
 320 620 320 620 419 620 c 0,10,11
 508 620 508 620 573 593.5 c 128,-1,12
 638 567 638 567 674 522 c 128,-1,13
 710 477 710 477 710 419 c 0,14,15
 710 377 710 377 693 346 c 128,-1,16
 676 315 676 315 656 294 c 1,17,18
 712 275 712 275 739.5 234 c 128,-1,19
 767 193 767 193 767 141 c 0,20,21
 767 76 767 76 724.5 33 c 128,-1,22
 682 -10 682 -10 600 -10 c 0,23,24
 541 -10 541 -10 506.5 12 c 128,-1,25
 472 34 472 34 457.5 67 c 128,-1,26
 443 100 443 100 443 133 c 0,27,28
 443 186 443 186 473 222.5 c 128,-1,29
 503 259 503 259 541 292 c 0,30,31
 576 321 576 321 600 349 c 128,-1,32
 624 377 624 377 624 412 c 0,33,34
 624 445 624 445 602 474 c 128,-1,35
 580 503 580 503 534.5 521.5 c 128,-1,36
 489 540 489 540 417 540 c 0,37,38
 301 540 301 540 236.5 491.5 c 128,-1,39
 172 443 172 443 146 364 c 1,40,41
 226 364 226 364 280 336 c 128,-1,42
 334 308 334 308 361 262 c 128,-1,43
 388 216 388 216 388 162 c 0,44,45
 388 117 388 117 371 78 c 128,-1,46
 354 39 354 39 318 14.5 c 128,-1,47
 282 -10 282 -10 225 -10 c 0,0,1
125 217 m 0,48,49
 125 196 125 196 128 171 c 128,-1,50
 131 146 131 146 141 123 c 128,-1,51
 151 100 151 100 172 85 c 128,-1,52
 193 70 193 70 228 70 c 0,53,54
 270 70 270 70 287.5 97.5 c 128,-1,55
 305 125 305 125 305 161 c 0,56,57
 305 213 305 213 264 251 c 128,-1,58
 223 289 223 289 130 291 c 1,59,60
 125 256 125 256 125 217 c 0,48,49
528 137 m 0,61,62
 528 108 528 108 546 89 c 128,-1,63
 564 70 564 70 601 70 c 0,64,65
 636 70 636 70 659 87.5 c 128,-1,66
 682 105 682 105 682 143 c 0,67,68
 682 176 682 176 661 201.5 c 128,-1,69
 640 227 640 227 588 235 c 1,70,71
 561 212 561 212 544.5 189.5 c 128,-1,72
 528 167 528 167 528 137 c 0,61,62
EndSplineSet
EndChar

StartChar: u112C6
Encoding: 43 70342 44
Width: 550
GlyphClass: 2
Flags: W
HStem: 0 75<235.696 507> 535 75<93 233 311.052 480>
VStem: 50 85<173.255 380.4>
AnchorPoint: "+BBEENQQ3BEsEPARPBD0EPQQ+BDUA--4" 394 680 basechar 0
AnchorPoint: "+BBEENQQ3BEsEPARPBD0EPQQ+BDUA--3" 302 680 basechar 0
AnchorPoint: "+BBEENQQ3BEsEPARPBD0EPQQ+BDUA--1" 411 600 basechar 0
AnchorPoint: "+BBEENQQ3BEsEPARPBD0EPQQ+BDUA--0" 294 0 basechar 0
LayerCount: 2
Fore
SplineSet
336 0 m 2,0,1
 254 0 254 0 189 29.5 c 128,-1,2
 124 59 124 59 87 120.5 c 128,-1,3
 50 182 50 182 50 276 c 0,4,5
 50 361 50 361 97.5 429 c 128,-1,6
 145 497 145 497 233 535 c 1,7,-1
 78 535 l 1,8,-1
 93 610 l 1,9,-1
 495 610 l 1,10,-1
 480 535 l 1,11,-1
 406 535 l 1,12,13
 355 530 355 530 306.5 511.5 c 128,-1,14
 258 493 258 493 219 460.5 c 128,-1,15
 180 428 180 428 157.5 382 c 128,-1,16
 135 336 135 336 135 276 c 0,17,18
 135 218 135 218 153.5 179 c 128,-1,19
 172 140 172 140 202 117 c 128,-1,20
 232 94 232 94 269.5 84.5 c 128,-1,21
 307 75 307 75 344 75 c 2,22,-1
 520 75 l 1,23,-1
 507 0 l 1,24,-1
 336 0 l 2,0,1
EndSplineSet
EndChar

StartChar: u112C7
Encoding: 44 70343 45
Width: 640
GlyphClass: 2
Flags: W
HStem: 0 75<260.789 557> 324 75<221.367 493.919> 540 80<272.62 482.887>
VStem: 50 85<193.117 373.267> 515 85<420.352 510.909>
AnchorPoint: "+BBEENQQ3BEsEPARPBD0EPQQ+BDUA--4" 494 680 basechar 0
AnchorPoint: "+BBEENQQ3BEsEPARPBD0EPQQ+BDUA--3" 372 680 basechar 0
AnchorPoint: "+BBEENQQ3BEsEPARPBD0EPQQ+BDUA--1" 475 580 basechar 0
AnchorPoint: "+BBEENQQ3BEsEPARPBD0EPQQ+BDUA--0" 343 0 basechar 0
LayerCount: 2
Fore
SplineSet
376 0 m 2,0,1
 281 0 281 0 207 31.5 c 128,-1,2
 133 63 133 63 91.5 126.5 c 128,-1,3
 50 190 50 190 50 287 c 0,4,5
 50 381 50 381 90.5 456.5 c 128,-1,6
 131 532 131 532 205.5 576 c 128,-1,7
 280 620 280 620 382 620 c 0,8,9
 443 620 443 620 492 603 c 128,-1,10
 541 586 541 586 570.5 552 c 128,-1,11
 600 518 600 518 600 466 c 0,12,13
 600 410 600 410 567 379 c 128,-1,14
 534 348 534 348 483 336 c 128,-1,15
 432 324 432 324 376 324 c 0,16,17
 346 324 346 324 306 328.5 c 128,-1,18
 266 333 266 333 224 344 c 128,-1,19
 182 355 182 355 146 374 c 1,20,21
 135 336 135 336 135 295 c 0,22,23
 135 237 135 237 160 186.5 c 128,-1,24
 185 136 185 136 242 105.5 c 128,-1,25
 299 75 299 75 396 75 c 2,26,-1
 570 75 l 1,27,-1
 557 0 l 1,28,-1
 376 0 l 2,0,1
382 540 m 0,29,30
 312 540 312 540 260.5 513 c 128,-1,31
 209 486 209 486 178 440 c 1,32,33
 227 414 227 414 278.5 406.5 c 128,-1,34
 330 399 330 399 371 399 c 0,35,36
 443 399 443 399 479 413 c 128,-1,37
 515 427 515 427 515 466 c 0,38,39
 515 492 515 492 496.5 508.5 c 128,-1,40
 478 525 478 525 447.5 532.5 c 128,-1,41
 417 540 417 540 382 540 c 0,29,30
EndSplineSet
EndChar

StartChar: u112C8
Encoding: 45 70344 46
Width: 647
GlyphClass: 2
Flags: W
HStem: -10 79<210.953 390.418> 541 79<185.614 396.848>
VStem: 513 84<198.774 324>
AnchorPoint: "+BBEENQQ3BEsEPARPBD0EPQQ+BDUA--4" 454 680 basechar 0
AnchorPoint: "+BBEENQQ3BEsEPARPBD0EPQQ+BDUA--3" 302 680 basechar 0
AnchorPoint: "+BBEENQQ3BEsEPARPBD0EPQQ+BDUA--1" 400 580 basechar 0
AnchorPoint: "+BBEENQQ3BEsEPARPBD0EPQQ+BDUA--0" 345 0 basechar 0
LayerCount: 2
Fore
SplineSet
249 152 m 1,0,-1
 211 215 l 1,1,-1
 500 402 l 1,2,3
 486 442 486 442 461 472 c 1,4,-1
 173 278 l 1,5,-1
 135 341 l 1,6,-1
 402 517 l 1,7,8
 355 541 355 541 293 541 c 0,9,10
 235 541 235 541 185.5 519.5 c 128,-1,11
 136 498 136 498 94 451 c 1,12,-1
 38 508 l 1,13,14
 81 557 81 557 144 588.5 c 128,-1,15
 207 620 207 620 294 620 c 0,16,17
 379 620 379 620 447.5 585 c 128,-1,18
 516 550 516 550 556.5 481.5 c 128,-1,19
 597 413 597 413 597 313 c 0,20,21
 597 216 597 216 558.5 143.5 c 128,-1,22
 520 71 520 71 451.5 30.5 c 128,-1,23
 383 -10 383 -10 293 -10 c 0,24,25
 251 -10 251 -10 210 0 c 1,26,-1
 210 77 l 1,27,28
 230 73 230 73 250.5 71 c 128,-1,29
 271 69 271 69 290 69 c 0,30,31
 357 69 357 69 407 99 c 128,-1,32
 457 129 457 129 485 184 c 128,-1,33
 513 239 513 239 513 312 c 0,34,35
 513 319 513 319 513 324 c 1,36,-1
 249 152 l 1,0,-1
EndSplineSet
EndChar

StartChar: u112C9
Encoding: 46 70345 47
Width: 468
GlyphClass: 2
Flags: W
HStem: 0 75<135 433> 535 75<133 428>
AnchorPoint: "+BBEENQQ3BEsEPARPBD0EPQQ+BDUA--4" 304 680 basechar 0
AnchorPoint: "+BBEENQQ3BEsEPARPBD0EPQQ+BDUA--3" 253 680 basechar 0
AnchorPoint: "+BBEENQQ3BEsEPARPBD0EPQQ+BDUA--1" 372 600 basechar 0
AnchorPoint: "+BBEENQQ3BEsEPARPBD0EPQQ+BDUA--0" 235 0 basechar 0
LayerCount: 2
Fore
SplineSet
41 0 m 1,0,-1
 31 66 l 1,1,-1
 201 302 l 1,2,-1
 30 548 l 1,3,-1
 40 610 l 1,4,-1
 443 610 l 1,5,-1
 428 535 l 1,6,-1
 133 535 l 1,7,-1
 287 313 l 1,8,-1
 287 293 l 1,9,-1
 135 75 l 1,10,-1
 448 75 l 1,11,-1
 433 0 l 1,12,-1
 41 0 l 1,0,-1
EndSplineSet
EndChar

StartChar: u112CA
Encoding: 47 70346 48
Width: 519
GlyphClass: 2
Flags: W
HStem: -10 80<108.866 334.43> 273 80<140.377 307.687> 283 74<139.703 243.592> 535 75<106 340.789>
VStem: 374 85<385.773 504.807> 384 85<114.225 242.377>
AnchorPoint: "+BBEENQQ3BEsEPARPBD0EPQQ+BDUA--4" 324 680 basechar 0
AnchorPoint: "+BBEENQQ3BEsEPARPBD0EPQQ+BDUA--3" 253 680 basechar 0
AnchorPoint: "+BBEENQQ3BEsEPARPBD0EPQQ+BDUA--1" 338 580 basechar 0
AnchorPoint: "+BBEENQQ3BEsEPARPBD0EPQQ+BDUA--0" 256 0 basechar 0
LayerCount: 2
Fore
SplineSet
240 -10 m 0,0,1
 184 -10 184 -10 132.5 4 c 128,-1,2
 81 18 81 18 40 37 c 1,3,-1
 70 110 l 1,4,5
 99 92 99 92 147.5 81 c 128,-1,6
 196 70 196 70 236 70 c 0,7,8
 273 70 273 70 306.5 79.5 c 128,-1,9
 340 89 340 89 362 113 c 128,-1,10
 384 137 384 137 384 181 c 0,11,12
 384 217 384 217 366 240.5 c 128,-1,13
 348 264 348 264 308 276 c 0,14,15
 298 275 298 275 287.5 274 c 128,-1,16
 277 273 277 273 257 273 c 0,17,18
 229 273 229 273 197 275 c 128,-1,19
 165 277 165 277 129 283 c 1,20,-1
 140 362 l 1,21,22
 152 359 152 359 171.5 357 c 128,-1,23
 191 355 191 355 211 354 c 128,-1,24
 231 353 231 353 244 353 c 0,25,26
 296 353 296 353 324 366 c 128,-1,27
 352 379 352 379 363 400.5 c 128,-1,28
 374 422 374 422 374 445 c 0,29,30
 374 495 374 495 339 515 c 128,-1,31
 304 535 304 535 245 535 c 2,32,-1
 91 535 l 1,33,-1
 106 610 l 1,34,-1
 246 610 l 2,35,36
 303 610 303 610 351.5 596 c 128,-1,37
 400 582 400 582 429.5 545.5 c 128,-1,38
 459 509 459 509 459 443 c 0,39,40
 459 397 459 397 444 366.5 c 128,-1,41
 429 336 429 336 404 316 c 1,42,43
 436 293 436 293 452.5 262.5 c 128,-1,44
 469 232 469 232 469 183 c 0,45,46
 469 86 469 86 408.5 38 c 128,-1,47
 348 -10 348 -10 240 -10 c 0,0,1
EndSplineSet
EndChar

StartChar: u112CB
Encoding: 48 70347 49
Width: 747
GlyphClass: 2
Flags: W
HStem: -10 75<251.562 513.591> 146 65<516.723 604.625> 362 78<512.173 614.632> 535 75<93 235 312.205 480>
VStem: 50 85<173.461 380.438> 407 86<232.571 342.979> 636 81<221.868 341.234>
AnchorPoint: "+BBEENQQ3BEsEPARPBD0EPQQ+BDUA--4" 544 680 basechar 0
AnchorPoint: "+BBEENQQ3BEsEPARPBD0EPQQ+BDUA--3" 316 680 basechar 0
AnchorPoint: "+BBEENQQ3BEsEPARPBD0EPQQ+BDUA--1" 402 600 basechar 0
AnchorPoint: "+BBEENQQ3BEsEPARPBD0EPQQ+BDUA--0" 365 0 basechar 0
LayerCount: 2
Fore
SplineSet
368 -10 m 0,0,1
 265 -10 265 -10 194 25 c 128,-1,2
 123 60 123 60 86.5 123.5 c 128,-1,3
 50 187 50 187 50 272 c 0,4,5
 50 366 50 366 97 429.5 c 128,-1,6
 144 493 144 493 235 535 c 1,7,-1
 78 535 l 1,8,-1
 93 610 l 1,9,-1
 495 610 l 1,10,-1
 480 535 l 1,11,-1
 406 535 l 1,12,13
 332 527 332 527 270.5 495 c 128,-1,14
 209 463 209 463 172 408 c 128,-1,15
 135 353 135 353 135 275 c 0,16,17
 135 176 135 176 197 120.5 c 128,-1,18
 259 65 259 65 377 65 c 0,19,20
 420 65 420 65 463.5 73 c 128,-1,21
 507 81 507 81 544 100 c 128,-1,22
 581 119 581 119 605 153 c 1,23,24
 593 150 593 150 579.5 148 c 128,-1,25
 566 146 566 146 550 146 c 0,26,27
 486 146 486 146 446.5 186.5 c 128,-1,28
 407 227 407 227 407 291 c 256,29,30
 407 355 407 355 448 397.5 c 128,-1,31
 489 440 489 440 562 440 c 0,32,33
 638 440 638 440 677.5 395 c 128,-1,34
 717 350 717 350 717 269 c 0,35,36
 717 174 717 174 671 112 c 128,-1,37
 625 50 625 50 546 20 c 128,-1,38
 467 -10 467 -10 368 -10 c 0,0,1
493 288 m 0,39,40
 493 251 493 251 516 231 c 128,-1,41
 539 211 539 211 579 211 c 0,42,43
 596 211 596 211 608.5 214.5 c 128,-1,44
 621 218 621 218 633 225 c 1,45,46
 636 243 636 243 636 262 c 0,47,48
 636 362 636 362 563 362 c 0,49,50
 531 362 531 362 512 342 c 128,-1,51
 493 322 493 322 493 288 c 0,39,40
EndSplineSet
PairPos2: "'dist' Distance in Khudawadi lookup 1 subtable" u112E2 dx=0 dy=0 dh=0 dv=0 dx=-65 dy=0 dh=-65 dv=0
EndChar

StartChar: u112CC
Encoding: 49 70348 50
Width: 727
GlyphClass: 2
Flags: W
HStem: 0 21G<318 403 548 633>
VStem: 85 85<6.26697 610> 318 85<0 610> 548 85<0 610>
AnchorPoint: "+BBEENQQ3BEsEPARPBD0EPQQ+BDUA--4" 534 680 basechar 0
AnchorPoint: "+BBEENQQ3BEsEPARPBD0EPQQ+BDUA--3" 351 680 basechar 0
AnchorPoint: "+BBEENQQ3BEsEPARPBD0EPQQ+BDUA--1" 565 620 basechar 0
AnchorPoint: "+BBEENQQ3BEsEPARPBD0EPQQ+BDUA--0" 380 -200 basechar 0
LayerCount: 2
Fore
SplineSet
518 -249 m 1,0,1
 395 -210 395 -210 281.5 -145 c 128,-1,2
 168 -80 168 -80 85 -4 c 1,3,-1
 85 620 l 1,4,-1
 170 610 l 1,5,-1
 170 24 l 1,6,7
 241 -40 241 -40 335 -90.5 c 128,-1,8
 429 -141 429 -141 530 -178 c 1,9,-1
 518 -249 l 1,0,1
318 0 m 1,10,-1
 318 620 l 1,11,-1
 403 610 l 1,12,-1
 403 0 l 1,13,-1
 318 0 l 1,10,-1
548 0 m 1,14,-1
 548 620 l 1,15,-1
 633 610 l 1,16,-1
 633 0 l 1,17,-1
 548 0 l 1,14,-1
EndSplineSet
PairPos2: "'dist' Distance in Khudawadi lookup 1 subtable" u112E2.alt dx=0 dy=0 dh=0 dv=0 dx=92 dy=0 dh=92 dv=0
EndChar

StartChar: u112CD
Encoding: 50 70349 51
Width: 654
GlyphClass: 2
Flags: W
HStem: -10 80<161.984 390.215> 316 80<177.869 358.497> 540 80<177.824 387.448>
VStem: 64 85<421.832 513.144> 519 85<197.843 404.976>
AnchorPoint: "+BBEENQQ3BEsEPARPBD0EPQQ+BDUA--4" 444 680 basechar 0
AnchorPoint: "+BBEENQQ3BEsEPARPBD0EPQQ+BDUA--3" 308 680 basechar 0
AnchorPoint: "+BBEENQQ3BEsEPARPBD0EPQQ+BDUA--1" 399 580 basechar 0
AnchorPoint: "+BBEENQQ3BEsEPARPBD0EPQQ+BDUA--0" 308 0 basechar 0
LayerCount: 2
Fore
SplineSet
271 -10 m 0,0,1
 200 -10 200 -10 138.5 14 c 128,-1,2
 77 38 77 38 30 87 c 1,3,-1
 80 144 l 1,4,5
 118 111 118 111 165 90.5 c 128,-1,6
 212 70 212 70 274 70 c 0,7,8
 356 70 356 70 410.5 102 c 128,-1,9
 465 134 465 134 492 186 c 128,-1,10
 519 238 519 238 519 299 c 0,11,12
 519 331 519 331 511.5 362.5 c 128,-1,13
 504 394 504 394 489 423 c 1,14,15
 456 379 456 379 397 347.5 c 128,-1,16
 338 316 338 316 258 316 c 0,17,18
 227 316 227 316 193 323.5 c 128,-1,19
 159 331 159 331 130 348.5 c 128,-1,20
 101 366 101 366 82.5 395 c 128,-1,21
 64 424 64 424 64 466 c 0,22,23
 64 519 64 519 93.5 553 c 128,-1,24
 123 587 123 587 172 603.5 c 128,-1,25
 221 620 221 620 280 620 c 0,26,27
 358 620 358 620 418.5 594 c 128,-1,28
 479 568 479 568 520.5 522.5 c 128,-1,29
 562 477 562 477 583 419 c 128,-1,30
 604 361 604 361 604 296 c 0,31,32
 604 218 604 218 577 160 c 128,-1,33
 550 102 550 102 503.5 64.5 c 128,-1,34
 457 27 457 27 397 8.5 c 128,-1,35
 337 -10 337 -10 271 -10 c 0,0,1
149 469 m 0,36,37
 149 436 149 436 178.5 416 c 128,-1,38
 208 396 208 396 255 396 c 0,39,40
 312 396 312 396 357.5 417 c 128,-1,41
 403 438 403 438 444 480 c 1,42,43
 415 508 415 508 374 524 c 128,-1,44
 333 540 333 540 279 540 c 0,45,46
 246 540 246 540 216.5 533.5 c 128,-1,47
 187 527 187 527 168 511.5 c 128,-1,48
 149 496 149 496 149 469 c 0,36,37
EndSplineSet
EndChar

StartChar: u112CE
Encoding: 51 70350 52
Width: 842
GlyphClass: 2
Flags: W
VStem: 85 83<277 594> 362 72<422.733 474> 375 74<227 299.077> 655 84<98.1366 456>
AnchorPoint: "+BBEENQQ3BEsEPARPBD0EPQQ+BDUA--4" 614 680 basechar 0
AnchorPoint: "+BBEENQQ3BEsEPARPBD0EPQQ+BDUA--3" 400 680 basechar 0
AnchorPoint: "+BBEENQQ3BEsEPARPBD0EPQQ+BDUA--1" 671 602 basechar 0
AnchorPoint: "+BBEENQQ3BEsEPARPBD0EPQQ+BDUA--0" 401 0 basechar 0
LayerCount: 2
Fore
SplineSet
800 -10 m 1,0,1
 738 8 738 8 707 31 c 128,-1,2
 676 54 676 54 665.5 81.5 c 128,-1,3
 655 109 655 109 655 140 c 2,4,-1
 655 456 l 1,5,-1
 460 85 l 1,6,-1
 375 95 l 1,7,-1
 362 474 l 1,8,-1
 174 140 l 1,9,-1
 85 150 l 1,10,-1
 85 620 l 1,11,-1
 168 594 l 1,12,-1
 168 277 l 1,13,-1
 362 620 l 1,14,-1
 434 594 l 1,15,-1
 449 227 l 1,16,-1
 666 620 l 1,17,-1
 739 594 l 1,18,-1
 739 160 l 2,19,20
 739 136 739 136 744.5 120.5 c 128,-1,21
 750 105 750 105 767.5 93 c 128,-1,22
 785 81 785 81 822 65 c 1,23,-1
 800 -10 l 1,0,1
EndSplineSet
PairPos2: "'dist' Distance in Khudawadi lookup 1 subtable" u112E2 dx=0 dy=0 dh=0 dv=0 dx=95 dy=0 dh=95 dv=0
EndChar

StartChar: u112CF
Encoding: 52 70351 53
Width: 767
GlyphClass: 2
Flags: W
HStem: -26 106.5<690.8 752.487> 14 82<581 702.985> 150 80<143.377 246.121> 380 70<162.382 242.194> 545 75<260.555 481.444>
VStem: 40 85<249.863 369.173> 264 83<248.661 360.326> 592 85<226.505 441.917>
AnchorPoint: "+BBEENQQ3BEsEPARPBD0EPQQ+BDUA--4" 534 680 basechar 0
AnchorPoint: "+BBEENQQ3BEsEPARPBD0EPQQ+BDUA--3" 365 680 basechar 0
AnchorPoint: "+BBEENQQ3BEsEPARPBD0EPQQ+BDUA--1" 490 580 basechar 0
AnchorPoint: "+BBEENQQ3BEsEPARPBD0EPQQ+BDUA--0" 380 0 basechar 0
LayerCount: 2
Fore
SplineSet
750 -26 m 1,0,1
 713 -8 713 -8 661.5 3 c 128,-1,2
 610 14 610 14 545 14 c 0,3,4
 501 14 501 14 465.5 8 c 128,-1,5
 430 2 430 2 390 -10 c 1,6,-1
 363 67 l 1,7,8
 385 76 385 76 411 83 c 128,-1,9
 437 90 437 90 471 93 c 1,10,11
 504 115 504 115 531.5 153.5 c 128,-1,12
 559 192 559 192 575.5 240.5 c 128,-1,13
 592 289 592 289 592 341 c 0,14,15
 592 409 592 409 563.5 454 c 128,-1,16
 535 499 535 499 485 522 c 128,-1,17
 435 545 435 545 372 545 c 0,18,19
 303 545 303 545 248.5 517.5 c 128,-1,20
 194 490 194 490 162 443 c 1,21,22
 185 450 185 450 213 450 c 0,23,24
 278 450 278 450 312.5 408 c 128,-1,25
 347 366 347 366 347 301 c 0,26,27
 347 237 347 237 307 193.5 c 128,-1,28
 267 150 267 150 191 150 c 0,29,30
 122 150 122 150 81 193.5 c 128,-1,31
 40 237 40 237 40 317 c 0,32,33
 40 391 40 391 68.5 447 c 128,-1,34
 97 503 97 503 145 542 c 128,-1,35
 193 581 193 581 253 600.5 c 128,-1,36
 313 620 313 620 377 620 c 0,37,38
 462 620 462 620 529.5 588 c 128,-1,39
 597 556 597 556 637 494 c 128,-1,40
 677 432 677 432 677 343 c 0,41,42
 677 267 677 267 649 203 c 128,-1,43
 621 139 621 139 581 96 c 1,44,45
 642 93 642 93 693.5 80.5 c 128,-1,46
 745 68 745 68 777 50 c 1,47,-1
 750 -26 l 1,0,1
125 319 m 0,48,49
 125 272 125 272 143 251 c 128,-1,50
 161 230 161 230 196 230 c 0,51,52
 228 230 228 230 246 249.5 c 128,-1,53
 264 269 264 269 264 304 c 0,54,55
 264 342 264 342 241.5 361 c 128,-1,56
 219 380 219 380 187 380 c 0,57,58
 172 380 172 380 157.5 376.5 c 128,-1,59
 143 373 143 373 130 367 c 1,60,61
 125 344 125 344 125 319 c 0,48,49
EndSplineSet
EndChar

StartChar: u112D0
Encoding: 53 70352 54
Width: 702
GlyphClass: 2
Flags: W
HStem: -10 80<542.211 670.273> 25 80<172.657 350.289> 251 80<171.098 297.404> 540 80<139.929 394.757>
VStem: 65 85<127.694 231.822> 495 85<243.644 443.646>
AnchorPoint: "+BBEENQQ3BEsEPARPBD0EPQQ+BDUA--4" 464 680 basechar 0
AnchorPoint: "+BBEENQQ3BEsEPARPBD0EPQQ+BDUA--3" 308 680 basechar 0
AnchorPoint: "+BBEENQQ3BEsEPARPBD0EPQQ+BDUA--1" 405 580 basechar 0
AnchorPoint: "+BBEENQQ3BEsEPARPBD0EPQQ+BDUA--0" 320 0 basechar 0
LayerCount: 2
Fore
SplineSet
600 -10 m 0,0,1
 546 -10 546 -10 507.5 10.5 c 128,-1,2
 469 31 469 31 429 76 c 1,3,4
 387 50 387 50 339.5 37.5 c 128,-1,5
 292 25 292 25 246 25 c 0,6,7
 158 25 158 25 111.5 67 c 128,-1,8
 65 109 65 109 65 178 c 0,9,10
 65 233 65 233 90.5 266.5 c 128,-1,11
 116 300 116 300 154.5 315.5 c 128,-1,12
 193 331 193 331 233 331 c 0,13,14
 280 331 280 331 316.5 313 c 128,-1,15
 353 295 353 295 383.5 264 c 128,-1,16
 414 233 414 233 444 196 c 1,17,18
 467 224 467 224 481 262 c 128,-1,19
 495 300 495 300 495 348 c 0,20,21
 495 400 495 400 473.5 443.5 c 128,-1,22
 452 487 452 487 404.5 513.5 c 128,-1,23
 357 540 357 540 279 540 c 0,24,25
 223 540 223 540 168.5 526.5 c 128,-1,26
 114 513 114 513 66 486 c 1,27,-1
 30 552 l 1,28,29
 89 587 89 587 154 603.5 c 128,-1,30
 219 620 219 620 280 620 c 0,31,32
 361 620 361 620 429 591.5 c 128,-1,33
 497 563 497 563 538.5 503 c 128,-1,34
 580 443 580 443 580 348 c 0,35,36
 580 279 580 279 557.5 224.5 c 128,-1,37
 535 170 535 170 497 130 c 1,38,39
 521 105 521 105 548.5 87.5 c 128,-1,40
 576 70 576 70 613 70 c 0,41,42
 628 70 628 70 651 72.5 c 128,-1,43
 674 75 674 75 682 76 c 1,44,-1
 670 -1 l 1,45,46
 634 -10 634 -10 600 -10 c 0,0,1
150 179 m 0,47,48
 150 148 150 148 172 126.5 c 128,-1,49
 194 105 194 105 248 105 c 0,50,51
 278 105 278 105 311.5 113.5 c 128,-1,52
 345 122 345 122 377 140 c 1,53,-1
 373 145 l 2,54,55
 340 189 340 189 308.5 220 c 128,-1,56
 277 251 277 251 230 251 c 0,57,58
 195 251 195 251 172.5 232.5 c 128,-1,59
 150 214 150 214 150 179 c 0,47,48
EndSplineSet
EndChar

StartChar: u112D1
Encoding: 54 70353 55
Width: 776
GlyphClass: 2
Flags: W
AnchorPoint: "+BBEENQQ3BEsEPARPBD0EPQQ+BDUA--4" 544 680 basechar 0
AnchorPoint: "+BBEENQQ3BEsEPARPBD0EPQQ+BDUA--3" 400 680 basechar 0
AnchorPoint: "+BBEENQQ3BEsEPARPBD0EPQQ+BDUA--1" 697 585 basechar 0
AnchorPoint: "+BBEENQQ3BEsEPARPBD0EPQQ+BDUA--0" 295 0 basechar 0
LayerCount: 2
Fore
SplineSet
240 -10 m 1,0,-1
 169 9 l 1,1,2
 151 43 151 43 131 91.5 c 128,-1,3
 111 140 111 140 91.5 195 c 128,-1,4
 72 250 72 250 55.5 304 c 128,-1,5
 39 358 39 358 27 404 c 128,-1,6
 15 450 15 450 10 480 c 1,7,-1
 93 497 l 1,8,9
 103 449 103 449 119 390 c 128,-1,10
 135 331 135 331 154.5 271.5 c 128,-1,11
 174 212 174 212 194 161.5 c 128,-1,12
 214 111 214 111 231 79 c 1,13,14
 323 145 323 145 409.5 229.5 c 128,-1,15
 496 314 496 314 568.5 412 c 128,-1,16
 641 510 641 510 691 615 c 1,17,-1
 765 574 l 1,18,19
 694 436 694 436 610 331 c 128,-1,20
 526 226 526 226 432.5 143.5 c 128,-1,21
 339 61 339 61 240 -10 c 1,0,-1
EndSplineSet
PairPos2: "'dist' Distance in Khudawadi lookup 6 subtable" u112E7_straight dx=0 dy=0 dh=0 dv=0 dx=0 dy=3 dh=0 dv=0
PairPos2: "'dist' Distance in Khudawadi lookup 1 subtable" u112E2 dx=0 dy=0 dh=0 dv=0 dx=190 dy=0 dh=190 dv=0
EndChar

StartChar: u112D2
Encoding: 55 70354 56
Width: 576
GlyphClass: 2
Flags: W
HStem: -10 80<487.256 548> 497 80<100.836 374.75>
VStem: 395 84<88.5652 527>
AnchorPoint: "+BBEENQQ3BEsEPARPBD0EPQQ+BDUA--4" 404 680 basechar 0
AnchorPoint: "+BBEENQQ3BEsEPARPBD0EPQQ+BDUA--3" 288 680 basechar 0
AnchorPoint: "+BBEENQQ3BEsEPARPBD0EPQQ+BDUA--1" 411 610 basechar 0
AnchorPoint: "+BBEENQQ3BEsEPARPBD0EPQQ+BDUA--0" 301 0 basechar 0
LayerCount: 2
Fore
SplineSet
504 -10 m 0,0,1
 457 -10 457 -10 433.5 8.5 c 128,-1,2
 410 27 410 27 402.5 57.5 c 128,-1,3
 395 88 395 88 395 124 c 2,4,-1
 395 527 l 1,5,6
 355 508 355 508 311 502.5 c 128,-1,7
 267 497 267 497 229 497 c 0,8,9
 164 497 164 497 113.5 510 c 128,-1,10
 63 523 63 523 10 549 c 1,11,-1
 46 620 l 1,12,13
 89 601 89 601 133.5 589 c 128,-1,14
 178 577 178 577 229 577 c 0,15,16
 253 577 253 577 287.5 580.5 c 128,-1,17
 322 584 322 584 356.5 593 c 128,-1,18
 391 602 391 602 412 620 c 1,19,-1
 479 608 l 1,20,-1
 479 135 l 2,21,22
 479 106 479 106 487 88 c 128,-1,23
 495 70 495 70 526 70 c 0,24,25
 532 70 532 70 540.5 71 c 128,-1,26
 549 72 549 72 556 74 c 1,27,-1
 548 -4 l 1,28,29
 537 -7 537 -7 527 -8.5 c 128,-1,30
 517 -10 517 -10 504 -10 c 0,0,1
EndSplineSet
PairPos2: "'dist' Distance in Khudawadi lookup 1 subtable" u112E2 dx=0 dy=0 dh=0 dv=0 dx=93 dy=0 dh=93 dv=0
EndChar

StartChar: u112D3
Encoding: 56 70355 57
Width: 693
GlyphClass: 2
Flags: W
HStem: -10 79<369.848 441.875> 535 75<44.6597 422.975>
VStem: 558 85<196.352 410.651>
AnchorPoint: "+BBEENQQ3BEsEPARPBD0EPQQ+BDUA--4" 504 680 basechar 0
AnchorPoint: "+BBEENQQ3BEsEPARPBD0EPQQ+BDUA--2" 322 0 basechar 0
AnchorPoint: "+BBEENQQ3BEsEPARPBD0EPQQ+BDUA--1" 438 570 basechar 0
AnchorPoint: "+BBEENQQ3BEsEPARPBD0EPQQ+BDUA--0" 302 0 basechar 0
LayerCount: 2
Fore
SplineSet
135 64 m 1,0,-1
 83 124 l 1,1,-1
 474 486 l 1,2,3
 407 535 407 535 298 535 c 2,4,-1
 192 535 l 2,5,6
 138 535 138 535 96 540 c 128,-1,7
 54 545 54 545 20 564 c 1,8,-1
 44 632 l 1,9,10
 65 623 65 623 100 616.5 c 128,-1,11
 135 610 135 610 198 610 c 2,12,-1
 309 610 l 2,13,14
 412 610 412 610 487 572 c 128,-1,15
 562 534 562 534 602.5 465.5 c 128,-1,16
 643 397 643 397 643 304 c 256,17,18
 643 211 643 211 605.5 141.5 c 128,-1,19
 568 72 568 72 506.5 33 c 128,-1,20
 445 -6 445 -6 371 -10 c 1,21,-1
 358 69 l 1,22,23
 412 72 412 72 450 94.5 c 128,-1,24
 488 117 488 117 512 151.5 c 128,-1,25
 536 186 536 186 547 226.5 c 128,-1,26
 558 267 558 267 558 307 c 0,27,28
 558 376 558 376 528 427 c 1,29,-1
 135 64 l 1,0,-1
EndSplineSet
EndChar

StartChar: u112D4
Encoding: 57 70356 58
Width: 879
GlyphClass: 2
Flags: W
HStem: 0 21G<163.131 236.604 472.327 545.895>
AnchorPoint: "+BBEENQQ3BEsEPARPBD0EPQQ+BDUA--4" 644 680 basechar 0
AnchorPoint: "+BBEENQQ3BEsEPARPBD0EPQQ+BDUA--3" 442 680 basechar 0
AnchorPoint: "+BBEENQQ3BEsEPARPBD0EPQQ+BDUA--1" 802 586 basechar 0
AnchorPoint: "+BBEENQQ3BEsEPARPBD0EPQQ+BDUA--0" 373 0 basechar 0
LayerCount: 2
Fore
SplineSet
167 0 m 1,0,-1
 96 367 l 2,1,2
 80 450 80 450 62 496.5 c 128,-1,3
 44 543 44 543 20 567 c 1,4,-1
 78 620 l 1,5,6
 116 586 116 586 136.5 524.5 c 128,-1,7
 157 463 157 463 171 389 c 2,8,-1
 218 143 l 1,9,-1
 413 551 l 1,10,-1
 482 531 l 1,11,-1
 529 146 l 1,12,-1
 685 442 l 2,13,14
 718 505 718 505 756.5 553 c 128,-1,15
 795 601 795 601 856 620 c 1,16,-1
 879 545 l 1,17,18
 847 525 847 525 825 503.5 c 128,-1,19
 803 482 803 482 784.5 452.5 c 128,-1,20
 766 423 766 423 742 380 c 2,21,-1
 535 0 l 1,22,-1
 475 0 l 1,23,-1
 421 404 l 1,24,-1
 227 0 l 1,25,-1
 167 0 l 1,0,-1
EndSplineSet
PairPos2: "'dist' Distance in Khudawadi lookup 6 subtable" u112E7_straight dx=0 dy=0 dh=0 dv=0 dx=9 dy=-25 dh=0 dv=0
PairPos2: "'dist' Distance in Khudawadi lookup 1 subtable" u112E2 dx=0 dy=0 dh=0 dv=0 dx=210 dy=0 dh=210 dv=0
EndChar

StartChar: u112D5
Encoding: 58 70357 59
Width: 656
GlyphClass: 2
Flags: W
HStem: -10 80<276.008 476.128> 284 75<162.984 325> 540 80<380.687 483.478>
VStem: 40 85<395.421 547.102> 278 83<406.839 520.495> 501 84<399.045 519.494> 521 85<111.216 254.329>
AnchorPoint: "+BBEENQQ3BEsEPARPBD0EPQQ+BDUA--4" 464 680 basechar 0
AnchorPoint: "+BBEENQQ3BEsEPARPBD0EPQQ+BDUA--3" 365 680 basechar 0
AnchorPoint: "+BBEENQQ3BEsEPARPBD0EPQQ+BDUA--1" 469 590 basechar 0
AnchorPoint: "+BBEENQQ3BEsEPARPBD0EPQQ+BDUA--0" 377 0 basechar 0
LayerCount: 2
Fore
SplineSet
378 -10 m 0,0,1
 317 -10 317 -10 260.5 10.5 c 128,-1,2
 204 31 204 31 160 63 c 1,3,-1
 204 132 l 1,4,5
 230 112 230 112 277 91 c 128,-1,6
 324 70 324 70 383 70 c 0,7,8
 445 70 445 70 483 96 c 128,-1,9
 521 122 521 122 521 184 c 0,10,11
 521 230 521 230 501 254 c 128,-1,12
 481 278 481 278 443 291 c 1,13,14
 403 286 403 286 356.5 285 c 128,-1,15
 310 284 310 284 266 284 c 256,16,17
 222 284 222 284 181.5 290.5 c 128,-1,18
 141 297 141 297 109 315 c 128,-1,19
 77 333 77 333 58.5 367 c 128,-1,20
 40 401 40 401 40 456 c 0,21,22
 40 504 40 504 55.5 544.5 c 128,-1,23
 71 585 71 585 94 620 c 1,24,-1
 168 586 l 1,25,26
 144 548 144 548 134.5 515.5 c 128,-1,27
 125 483 125 483 125 460 c 0,28,29
 125 418 125 418 144.5 396 c 128,-1,30
 164 374 164 374 199.5 366.5 c 128,-1,31
 235 359 235 359 281 359 c 2,32,-1
 325 359 l 1,33,34
 303 381 303 381 290.5 407.5 c 128,-1,35
 278 434 278 434 278 467 c 0,36,37
 278 535 278 535 320 577.5 c 128,-1,38
 362 620 362 620 432 620 c 0,39,40
 484 620 484 620 518 598 c 128,-1,41
 552 576 552 576 568.5 541 c 128,-1,42
 585 506 585 506 585 468 c 0,43,44
 585 431 585 431 568.5 398 c 128,-1,45
 552 365 552 365 522 338 c 1,46,47
 567 314 567 314 586.5 272.5 c 128,-1,48
 606 231 606 231 606 184 c 0,49,50
 606 128 606 128 579 84 c 128,-1,51
 552 40 552 40 501.5 15 c 128,-1,52
 451 -10 451 -10 378 -10 c 0,0,1
361 465 m 0,53,54
 361 429 361 429 382.5 407 c 128,-1,55
 404 385 404 385 440 370 c 1,56,57
 473 384 473 384 487 411 c 128,-1,58
 501 438 501 438 501 461 c 0,59,60
 501 495 501 495 484 517.5 c 128,-1,61
 467 540 467 540 431 540 c 0,62,63
 401 540 401 540 381 520 c 128,-1,64
 361 500 361 500 361 465 c 0,53,54
EndSplineSet
PairPos2: "'dist' Distance in Khudawadi lookup 1 subtable" u112E2 dx=0 dy=0 dh=0 dv=0 dx=80 dy=0 dh=80 dv=0
EndChar

StartChar: u112D6
Encoding: 59 70358 60
Width: 988
GlyphClass: 2
Flags: W
HStem: 0 21G<283 354.941 616.327 689.75> 293 77<148 282.406> 540 80<145.55 254.999>
VStem: 40 83<395.07 517.271> 283 84<183 308 376.259 513.448> 891 78<540.959 592.692>
AnchorPoint: "+BBEENQQ3BEsEPARPBD0EPQQ+BDUA--4" 754 680 basechar 0
AnchorPoint: "+BBEENQQ3BEsEPARPBD0EPQQ+BDUA--3" 582 680 basechar 0
AnchorPoint: "+BBEENQQ3BEsEPARPBD0EPQQ+BDUA--1" 901 600 basechar 0
AnchorPoint: "+BBEENQQ3BEsEPARPBD0EPQQ+BDUA--0" 513 0 basechar 0
LayerCount: 2
Fore
SplineSet
283 0 m 1,0,-1
 283 308 l 1,1,2
 264 301 264 301 243 297 c 128,-1,3
 222 293 222 293 198 293 c 0,4,5
 143 293 143 293 108 315.5 c 128,-1,6
 73 338 73 338 56.5 374.5 c 128,-1,7
 40 411 40 411 40 452 c 0,8,9
 40 498 40 498 58 536 c 128,-1,10
 76 574 76 574 113.5 597 c 128,-1,11
 151 620 151 620 209 620 c 0,12,13
 273 620 273 620 307 590.5 c 128,-1,14
 341 561 341 561 354 513.5 c 128,-1,15
 367 466 367 466 367 410 c 2,16,-1
 367 183 l 1,17,-1
 557 551 l 1,18,-1
 626 531 l 1,19,-1
 673 146 l 1,20,-1
 783 352 l 2,21,22
 826 432 826 432 854.5 501.5 c 128,-1,23
 883 571 883 571 891 620 c 1,24,-1
 969 590 l 1,25,26
 962 544 962 544 929 474 c 128,-1,27
 896 404 896 404 851 320 c 2,28,-1
 679 0 l 1,29,-1
 619 0 l 1,30,-1
 565 404 l 1,31,-1
 344 0 l 1,32,-1
 283 0 l 1,0,-1
123 457 m 0,33,34
 123 418 123 418 145.5 394 c 128,-1,35
 168 370 168 370 209 370 c 0,36,37
 229 370 229 370 247 373 c 128,-1,38
 265 376 265 376 283 385 c 1,39,-1
 283 400 l 2,40,41
 283 440 283 440 277.5 471.5 c 128,-1,42
 272 503 272 503 254.5 521.5 c 128,-1,43
 237 540 237 540 202 540 c 0,44,45
 166 540 166 540 144.5 517.5 c 128,-1,46
 123 495 123 495 123 457 c 0,33,34
EndSplineSet
PairPos2: "'dist' Distance in Khudawadi lookup 6 subtable" u112E7_straight dx=0 dy=0 dh=0 dv=0 dx=0 dy=3 dh=0 dv=0
PairPos2: "'dist' Distance in Khudawadi lookup 1 subtable" u112E2 dx=0 dy=0 dh=0 dv=0 dx=200 dy=0 dh=200 dv=0
EndChar

StartChar: u112D7
Encoding: 60 70359 61
Width: 602
GlyphClass: 2
Flags: W
HStem: -10 80<481.024 576> 535 85<310.7 422.77>
VStem: 375 84<91.6426 266.793> 435 84<329.729 520.427>
AnchorPoint: "+BBEENQQ3BEsEPARPBD0EPQQ+BDUA--4" 454 680 basechar 0
AnchorPoint: "+BBEENQQ3BEsEPARPBD0EPQQ+BDUA--3" 400 680 basechar 0
AnchorPoint: "+BBEENQQ3BEsEPARPBD0EPQQ+BDUA--1" 420 590 basechar 0
AnchorPoint: "+BBEENQQ3BEsEPARPBD0EPQQ+BDUA--0" 300 0 basechar 0
LayerCount: 2
Fore
SplineSet
105 -10 m 1,0,-1
 22 0 l 1,1,-1
 91 337 l 2,2,3
 94 351 94 351 96.5 366.5 c 128,-1,4
 99 382 99 382 99 399 c 0,5,6
 99 445 99 445 80 481 c 128,-1,7
 61 517 61 517 26 556 c 1,8,-1
 84 618 l 1,9,10
 115 583 115 583 140 544.5 c 128,-1,11
 165 506 165 506 176 462 c 1,12,13
 200 504 200 504 232.5 540 c 128,-1,14
 265 576 265 576 304.5 598 c 128,-1,15
 344 620 344 620 389 620 c 0,16,17
 455 620 455 620 487 581.5 c 128,-1,18
 519 543 519 543 519 470 c 0,19,20
 519 427 519 427 508 376.5 c 128,-1,21
 497 326 497 326 484 279 c 0,22,23
 474 241 474 241 466.5 208 c 128,-1,24
 459 175 459 175 459 152 c 0,25,26
 459 106 459 106 485 88 c 128,-1,27
 511 70 511 70 544 70 c 0,28,29
 561 70 561 70 582 73 c 1,30,-1
 576 -7 l 1,31,32
 563 -8 563 -8 552.5 -9 c 128,-1,33
 542 -10 542 -10 531 -10 c 0,34,35
 455 -10 455 -10 415 28.5 c 128,-1,36
 375 67 375 67 375 144 c 0,37,38
 375 181 375 181 384 220.5 c 128,-1,39
 393 260 393 260 405 300 c 0,40,41
 417 341 417 341 426 382.5 c 128,-1,42
 435 424 435 424 435 455 c 0,43,44
 435 497 435 497 422.5 516 c 128,-1,45
 410 535 410 535 374 535 c 0,46,47
 332 535 332 535 287 495.5 c 128,-1,48
 242 456 242 456 205 386 c 128,-1,49
 168 316 168 316 150 224 c 2,50,-1
 105 -10 l 1,0,-1
EndSplineSet
EndChar

StartChar: u112D8
Encoding: 61 70360 62
Width: 857
GlyphClass: 2
Flags: W
HStem: -10 80<123.866 349.43 726.956 815> 273 80<155.377 322.687> 283 74<154.703 258.592> 535 75<121 357.204 451 609.733>
VStem: 389 85<385.773 504.807> 399 85<114.225 242.377> 629 85<88.0509 427.013> 643 85<176.485 502.26>
AnchorPoint: "+BBEENQQ3BEsEPARPBD0EPQQ+BDUA--4" 634 680 basechar 0
AnchorPoint: "+BBEENQQ3BEsEPARPBD0EPQQ+BDUA--3" 435 680 basechar 0
AnchorPoint: "+BBEENQQ3BEsEPARPBD0EPQQ+BDUA--1" 558 600 basechar 0
AnchorPoint: "+BBEENQQ3BEsEPARPBD0EPQQ+BDUA--0" 422 0 basechar 0
LayerCount: 2
Fore
SplineSet
255 -10 m 0,0,1
 199 -10 199 -10 147.5 4 c 128,-1,2
 96 18 96 18 55 37 c 1,3,-1
 85 110 l 1,4,5
 114 92 114 92 162.5 81 c 128,-1,6
 211 70 211 70 251 70 c 0,7,8
 288 70 288 70 321.5 79.5 c 128,-1,9
 355 89 355 89 377 113 c 128,-1,10
 399 137 399 137 399 181 c 0,11,12
 399 217 399 217 381 240.5 c 128,-1,13
 363 264 363 264 323 276 c 0,14,15
 313 275 313 275 302.5 274 c 128,-1,16
 292 273 292 273 272 273 c 0,17,18
 244 273 244 273 212 275 c 128,-1,19
 180 277 180 277 144 283 c 1,20,-1
 155 362 l 1,21,22
 167 359 167 359 186.5 357 c 128,-1,23
 206 355 206 355 226 354 c 128,-1,24
 246 353 246 353 259 353 c 0,25,26
 311 353 311 353 339 366 c 128,-1,27
 367 379 367 379 378 400.5 c 128,-1,28
 389 422 389 422 389 445 c 0,29,30
 389 495 389 495 354 515 c 128,-1,31
 319 535 319 535 260 535 c 2,32,-1
 106 535 l 1,33,-1
 121 610 l 1,34,-1
 551 610 l 2,35,36
 603 610 603 610 642.5 595 c 128,-1,37
 682 580 682 580 705 545 c 128,-1,38
 728 510 728 510 728 450 c 0,39,40
 728 437 728 437 726 393 c 128,-1,41
 724 349 724 349 721 297 c 0,42,43
 719 263 719 263 717.5 230 c 128,-1,44
 716 197 716 197 715 172.5 c 128,-1,45
 714 148 714 148 714 139 c 0,46,47
 714 105 714 105 727.5 87.5 c 128,-1,48
 741 70 741 70 781 70 c 0,49,50
 800 70 800 70 824 73 c 1,51,-1
 815 -7 l 1,52,53
 793 -10 793 -10 776 -10 c 0,54,55
 695 -10 695 -10 662 26 c 128,-1,56
 629 62 629 62 629 131 c 0,57,58
 629 144 629 144 630.5 175.5 c 128,-1,59
 632 207 632 207 634 242.5 c 128,-1,60
 636 278 636 278 637 304 c 0,61,62
 643 420 643 420 643 428 c 0,63,64
 643 454 643 454 635 478.5 c 128,-1,65
 627 503 627 503 602 519 c 128,-1,66
 577 535 577 535 524 535 c 2,67,-1
 451 535 l 1,68,69
 462 517 462 517 468 494.5 c 128,-1,70
 474 472 474 472 474 443 c 0,71,72
 474 397 474 397 459 366.5 c 128,-1,73
 444 336 444 336 419 316 c 1,74,75
 451 293 451 293 467.5 262.5 c 128,-1,76
 484 232 484 232 484 183 c 0,77,78
 484 86 484 86 423.5 38 c 128,-1,79
 363 -10 363 -10 255 -10 c 0,0,1
EndSplineSet
EndChar

StartChar: u112D9
Encoding: 62 70361 63
Width: 545
GlyphClass: 2
Flags: W
HStem: 219 75<40 240.496> 535 75<90 367>
VStem: 412 85<339.968 492.154>
AnchorPoint: "+BBEENQQ3BEsEPARPBD0EPQQ+BDUA--4" 400 680 basechar 0
AnchorPoint: "+BBEENQQ3BEsEPARPBD0EPQQ+BDUA--3" 280 680 basechar 0
AnchorPoint: "+BBEENQQ3BEsEPARPBD0EPQQ+BDUA--1" 360 580 basechar 0
AnchorPoint: "+BBEENQQ3BEsEPARPBD0EPQQ+BDUA--0" 260 0 basechar 0
LayerCount: 2
Fore
SplineSet
426 -10 m 1,0,1
 399 43 399 43 360 93 c 128,-1,2
 321 143 321 143 272 178 c 128,-1,3
 223 213 223 213 165 219 c 1,4,-1
 25 219 l 1,5,-1
 40 294 l 1,6,-1
 243 294 l 2,7,8
 284 294 284 294 323 302 c 128,-1,9
 362 310 362 310 387 336.5 c 128,-1,10
 412 363 412 363 412 418 c 0,11,12
 412 460 412 460 397 483.5 c 128,-1,13
 382 507 382 507 357.5 518 c 128,-1,14
 333 529 333 529 303 532 c 128,-1,15
 273 535 273 535 243 535 c 2,16,-1
 75 535 l 1,17,-1
 90 610 l 1,18,-1
 244 610 l 2,19,20
 281 610 281 610 324.5 605.5 c 128,-1,21
 368 601 368 601 407.5 584 c 128,-1,22
 447 567 447 567 472 529 c 128,-1,23
 497 491 497 491 497 424 c 0,24,25
 497 336 497 336 452.5 289 c 128,-1,26
 408 242 408 242 335 227 c 1,27,28
 394 195 394 195 433 145 c 128,-1,29
 472 95 472 95 505 29 c 1,30,-1
 426 -10 l 1,0,1
EndSplineSet
EndChar

StartChar: u112DA
Encoding: 63 70362 64
Width: 638
GlyphClass: 2
Flags: W
HStem: 132 77<100.332 284.773> 535 75<66.5326 349.626>
VStem: 407 85<321.171 482.494>
AnchorPoint: "+BBEENQQ3BEsEPARPBD0EPQQ+BDUA--4" 444 680 basechar 0
AnchorPoint: "+BBEENQQ3BEsEPARPBD0EPQQ+BDUA--3" 266 680 basechar 0
AnchorPoint: "+BBEENQQ3BEsEPARPBD0EPQQ+BDUA--1" 350 580 basechar 0
AnchorPoint: "+BBEENQQ3BEsEPARPBD0EPQQ+BDUA--0" 305 0 basechar 0
LayerCount: 2
Fore
SplineSet
584 -10 m 1,0,1
 524 52 524 52 445.5 92 c 128,-1,2
 367 132 367 132 258 132 c 0,3,4
 191 132 191 132 133 118.5 c 128,-1,5
 75 105 75 105 48 91 c 1,6,-1
 35 168 l 1,7,8
 69 181 69 181 123 193.5 c 128,-1,9
 177 206 177 206 244 209 c 1,10,11
 289 229 289 229 326 257 c 128,-1,12
 363 285 363 285 385 320.5 c 128,-1,13
 407 356 407 356 407 400 c 0,14,15
 407 471 407 471 367 503 c 128,-1,16
 327 535 327 535 250 535 c 2,17,-1
 152 535 l 2,18,19
 96 535 96 535 48 552 c 1,20,-1
 66 626 l 1,21,22
 83 619 83 619 105.5 614.5 c 128,-1,23
 128 610 128 610 158 610 c 2,24,-1
 264 610 l 2,25,26
 368 610 368 610 430 558.5 c 128,-1,27
 492 507 492 507 492 404 c 0,28,29
 492 335 492 335 454.5 285.5 c 128,-1,30
 417 236 417 236 366 201 c 1,31,32
 426 189 426 189 476.5 164.5 c 128,-1,33
 527 140 527 140 565.5 110.5 c 128,-1,34
 604 81 604 81 628 55 c 1,35,-1
 584 -10 l 1,0,1
EndSplineSet
PairPos2: "'dist' Distance in Khudawadi lookup 1 subtable" u112E2 dx=0 dy=0 dh=0 dv=0 dx=-60 dy=0 dh=-60 dv=0
EndChar

StartChar: u112DB
Encoding: 64 70363 65
Width: 625
GlyphClass: 2
Flags: W
HStem: -10 80<225.251 399.16> 540 80<222.262 402.161>
VStem: 50 85<176.513 440.077> 490 85<176.513 440.077>
AnchorPoint: "+BBEENQQ3BEsEPARPBD0EPQQ+BDUA--4" 424 680 basechar 0
AnchorPoint: "+BBEENQQ3BEsEPARPBD0EPQQ+BDUA--3" 316 680 basechar 0
AnchorPoint: "+BBEENQQ3BEsEPARPBD0EPQQ+BDUA--1" 390 580 basechar 0
AnchorPoint: "+BBEENQQ3BEsEPARPBD0EPQQ+BDUA--0" 320 0 basechar 0
LayerCount: 2
Fore
SplineSet
312 -10 m 256,0,1
 232 -10 232 -10 173 30.5 c 128,-1,2
 114 71 114 71 82 142 c 128,-1,3
 50 213 50 213 50 305 c 256,4,5
 50 397 50 397 82 468 c 128,-1,6
 114 539 114 539 173 579.5 c 128,-1,7
 232 620 232 620 312 620 c 256,8,9
 392 620 392 620 451 579.5 c 128,-1,10
 510 539 510 539 542.5 468 c 128,-1,11
 575 397 575 397 575 305 c 256,12,13
 575 213 575 213 542.5 142 c 128,-1,14
 510 71 510 71 451 30.5 c 128,-1,15
 392 -10 392 -10 312 -10 c 256,0,1
312 70 m 0,16,17
 399 70 399 70 444.5 132.5 c 128,-1,18
 490 195 490 195 490 309 c 256,19,20
 490 423 490 423 444.5 481.5 c 128,-1,21
 399 540 399 540 312 540 c 0,22,23
 226 540 226 540 180.5 481.5 c 128,-1,24
 135 423 135 423 135 309 c 256,25,26
 135 195 135 195 180.5 132.5 c 128,-1,27
 226 70 226 70 312 70 c 0,16,17
EndSplineSet
EndChar

StartChar: u112DC
Encoding: 65 70364 66
Width: 769
GlyphClass: 2
Flags: W
HStem: -10 80<214.381 329.636 660.866 750> 247 80<194.161 333.534> 533 77<184.277 564>
VStem: 99 85<102.202 231.25 302 533> 355 83<95.4595 226.011> 564 85<88.0509 533>
AnchorPoint: "+BBEENQQ3BEsEPARPBD0EPQQ+BDUA--4" 574 680 basechar 0
AnchorPoint: "+BBEENQQ3BEsEPARPBD0EPQQ+BDUA--3" 344 680 basechar 0
AnchorPoint: "+BBEENQQ3BEsEPARPBD0EPQQ+BDUA--1" 549 585 basechar 0
AnchorPoint: "+BBEENQQ3BEsEPARPBD0EPQQ+BDUA--0" 394 0 basechar 0
LayerCount: 2
Fore
SplineSet
268 -10 m 0,0,1
 205 -10 205 -10 168 19 c 128,-1,2
 131 48 131 48 115 99 c 128,-1,3
 99 150 99 150 99 216 c 2,4,-1
 99 542 l 1,5,6
 78 548 78 548 61.5 558 c 128,-1,7
 45 568 45 568 30 581 c 1,8,-1
 76 643 l 1,9,10
 93 631 93 631 120.5 620.5 c 128,-1,11
 148 610 148 610 188 610 c 2,12,-1
 607 610 l 1,13,-1
 649 566 l 1,14,-1
 649 139 l 2,15,16
 649 105 649 105 660.5 87.5 c 128,-1,17
 672 70 672 70 712 70 c 0,18,19
 721 70 721 70 734 71.5 c 128,-1,20
 747 73 747 73 759 74 c 1,21,-1
 750 -7 l 1,22,23
 728 -10 728 -10 705 -10 c 0,24,25
 629 -10 629 -10 596.5 22.5 c 128,-1,26
 564 55 564 55 564 131 c 2,27,-1
 564 533 l 1,28,-1
 184 533 l 1,29,-1
 184 302 l 1,30,31
 205 313 205 313 229 320 c 128,-1,32
 253 327 253 327 283 327 c 0,33,34
 359 327 359 327 398.5 281.5 c 128,-1,35
 438 236 438 236 438 164 c 0,36,37
 438 116 438 116 419.5 76.5 c 128,-1,38
 401 37 401 37 363.5 13.5 c 128,-1,39
 326 -10 326 -10 268 -10 c 0,0,1
270 247 m 0,40,41
 225 247 225 247 184 219 c 1,42,43
 184 196 184 196 186 170 c 128,-1,44
 188 144 188 144 196 121.5 c 128,-1,45
 204 99 204 99 222 84.5 c 128,-1,46
 240 70 240 70 271 70 c 0,47,48
 315 70 315 70 335 98 c 128,-1,49
 355 126 355 126 355 164 c 0,50,51
 355 200 355 200 336 223.5 c 128,-1,52
 317 247 317 247 270 247 c 0,40,41
EndSplineSet
PairPos2: "'dist' Distance in Khudawadi lookup 1 subtable" u112E2 dx=0 dy=0 dh=0 dv=0 dx=93 dy=0 dh=93 dv=0
EndChar

StartChar: u112DD
Encoding: 66 70365 67
Width: 651
GlyphClass: 2
Flags: W
HStem: -10 80<190.866 280 542.866 632> 533 77<179.4 446>
VStem: 94 85<88.0509 533> 446 85<88.0509 533>
AnchorPoint: "+BBEENQQ3BEsEPARPBD0EPQQ+BDUA--4" 436 680 basechar 0
AnchorPoint: "+BBEENQQ3BEsEPARPBD0EPQQ+BDUA--3" 320 680 basechar 0
AnchorPoint: "+BBEENQQ3BEsEPARPBD0EPQQ+BDUA--1" 431 585 basechar 0
AnchorPoint: "+BBEENQQ3BEsEPARPBD0EPQQ+BDUA--0" 339 0 basechar 0
LayerCount: 2
Fore
SplineSet
235 -10 m 0,0,1
 159 -10 159 -10 126.5 22.5 c 128,-1,2
 94 55 94 55 94 131 c 2,3,-1
 94 543 l 1,4,5
 75 549 75 549 59.5 558.5 c 128,-1,6
 44 568 44 568 30 581 c 1,7,-1
 76 643 l 1,8,9
 93 631 93 631 120.5 620.5 c 128,-1,10
 148 610 148 610 188 610 c 2,11,-1
 489 610 l 1,12,-1
 531 566 l 1,13,-1
 531 139 l 2,14,15
 531 105 531 105 542.5 87.5 c 128,-1,16
 554 70 554 70 594 70 c 0,17,18
 603 70 603 70 616 71.5 c 128,-1,19
 629 73 629 73 641 74 c 1,20,-1
 632 -7 l 1,21,22
 610 -10 610 -10 587 -10 c 0,23,24
 511 -10 511 -10 478.5 22.5 c 128,-1,25
 446 55 446 55 446 131 c 2,26,-1
 446 533 l 1,27,-1
 179 533 l 1,28,-1
 179 139 l 2,29,30
 179 105 179 105 190.5 87.5 c 128,-1,31
 202 70 202 70 242 70 c 0,32,33
 251 70 251 70 264 71.5 c 128,-1,34
 277 73 277 73 289 74 c 1,35,-1
 280 -7 l 1,36,37
 258 -10 258 -10 235 -10 c 0,0,1
EndSplineSet
PairPos2: "'dist' Distance in Khudawadi lookup 1 subtable" u112E2 dx=0 dy=0 dh=0 dv=0 dx=93 dy=0 dh=93 dv=0
EndChar

StartChar: u112DE
Encoding: 67 70366 68
Width: 647
GlyphClass: 2
Flags: W
HStem: -10 79<210.953 390.418> 218 75<74 193.275> 541 79<185.614 396.985>
VStem: 513 84<198.402 358.228>
AnchorPoint: "+BBEENQQ3BEsEPARPBD0EPQQ+BDUA--4" 464 680 basechar 0
AnchorPoint: "+BBEENQQ3BEsEPARPBD0EPQQ+BDUA--3" 312 680 basechar 0
AnchorPoint: "+BBEENQQ3BEsEPARPBD0EPQQ+BDUA--1" 408 580 basechar 0
AnchorPoint: "+BBEENQQ3BEsEPARPBD0EPQQ+BDUA--0" 310 0 basechar 0
LayerCount: 2
Fore
SplineSet
74 218 m 1,0,-1
 74 293 l 1,1,2
 96 293 96 293 126 298.5 c 128,-1,3
 156 304 156 304 187 313 c 128,-1,4
 218 322 218 322 244.5 331 c 128,-1,5
 271 340 271 340 286 346 c 2,6,-1
 486 433 l 1,7,8
 460 484 460 484 410.5 512.5 c 128,-1,9
 361 541 361 541 293 541 c 0,10,11
 235 541 235 541 185.5 519.5 c 128,-1,12
 136 498 136 498 94 451 c 1,13,-1
 38 508 l 1,14,15
 81 557 81 557 144 588.5 c 128,-1,16
 207 620 207 620 294 620 c 0,17,18
 379 620 379 620 447.5 585 c 128,-1,19
 516 550 516 550 556.5 481.5 c 128,-1,20
 597 413 597 413 597 313 c 0,21,22
 597 216 597 216 558.5 143.5 c 128,-1,23
 520 71 520 71 451.5 30.5 c 128,-1,24
 383 -10 383 -10 293 -10 c 0,25,26
 251 -10 251 -10 210 0 c 1,27,-1
 210 77 l 1,28,29
 230 73 230 73 250.5 71 c 128,-1,30
 271 69 271 69 290 69 c 0,31,32
 357 69 357 69 407 99 c 128,-1,33
 457 129 457 129 485 184 c 128,-1,34
 513 239 513 239 513 312 c 0,35,36
 513 337 513 337 510 359 c 1,37,-1
 315 276 l 2,38,39
 283 262 283 262 241 248.5 c 128,-1,40
 199 235 199 235 155.5 226.5 c 128,-1,41
 112 218 112 218 74 218 c 1,0,-1
EndSplineSet
EndChar

StartChar: u112DF
Encoding: 68 70367 69
Width: 0
GlyphClass: 4
Flags: W
HStem: 685 135<-345.451 -258.58>
VStem: -363.5 124<701.505 804.526>
AnchorPoint: "+BBEENQQ3BEsEPARPBD0EPQQ+BDUA--5" -300.5 680 mark 0
AnchorPoint: "+BBEENQQ3BEsEPARPBD0EPQQ+BDUA--3" -300.5 680 mark 0
LayerCount: 2
Fore
SplineSet
-302.5 685 m 256,0,1
 -328.5 685 -328.5 685 -346 701 c 128,-1,2
 -363.5 717 -363.5 717 -363.5 753 c 0,3,4
 -363.5 790 -363.5 790 -346 805 c 128,-1,5
 -328.5 820 -328.5 820 -302.5 820 c 256,6,7
 -276.5 820 -276.5 820 -258 805 c 128,-1,8
 -239.5 790 -239.5 790 -239.5 753 c 0,9,10
 -239.5 717 -239.5 717 -258 701 c 128,-1,11
 -276.5 685 -276.5 685 -302.5 685 c 256,0,1
EndSplineSet
Position2: "Single Positioning lookup 13 subtable" dx=-100 dy=0 dh=0 dv=0
Position2: "Single Positioning lookup 12 subtable" dx=-70 dy=0 dh=0 dv=0
Position2: "Single Positioning lookup 11 subtable" dx=50 dy=0 dh=0 dv=0
Position2: "Single Positioning lookup 10 subtable" dx=40 dy=0 dh=0 dv=0
EndChar

StartChar: u112E0
Encoding: 69 70368 70
Width: 263
GlyphClass: 2
Flags: W
VStem: 85 84<0 610>
AnchorPoint: "+BBEENQQ3BEsEPARPBD0EPQQ+BDUA--3" -299 680 basechar 0
LayerCount: 2
Fore
SplineSet
169 -10 m 1,0,-1
 85 0 l 1,1,-1
 85 620 l 1,2,-1
 169 610 l 1,3,-1
 169 -10 l 1,0,-1
EndSplineSet
EndChar

StartChar: u112E1
Encoding: 70 70369 71
Width: 262
GlyphClass: 2
Flags: W
HStem: 700 80<223.185 367.173>
VStem: 85 85<0 638.451>
AnchorPoint: "+BBEENQQ3BEsEPARPBD0EPQQ+BDUA--3" 294 870 basechar 0
LayerCount: 2
Fore
SplineSet
170 -10 m 1,0,-1
 85 0 l 1,1,-1
 85 522 l 2,2,3
 85 597 85 597 106 655.5 c 128,-1,4
 127 714 127 714 172 747 c 128,-1,5
 217 780 217 780 288 780 c 0,6,7
 344 780 344 780 383.5 761 c 128,-1,8
 423 742 423 742 450 710.5 c 128,-1,9
 477 679 477 679 495 641 c 128,-1,10
 513 603 513 603 526 564 c 1,11,-1
 452 540 l 1,12,13
 436 582 436 582 417 618.5 c 128,-1,14
 398 655 398 655 368.5 677.5 c 128,-1,15
 339 700 339 700 291 700 c 0,16,17
 261 700 261 700 233 685 c 128,-1,18
 205 670 205 670 187.5 630 c 128,-1,19
 170 590 170 590 170 513 c 2,20,-1
 170 -10 l 1,0,-1
EndSplineSet
Substitution2: "Single Substitution lookup 5 subtable" u112E1.alt3
Substitution2: "Single Substitution lookup 4 subtable" u112E1.alt2
Substitution2: "Single Substitution lookup 3 subtable" u112E1.alt
PairPos2: "'dist' Distance in Khudawadi lookup 0 subtable" u112D7 dx=0 dy=0 dh=0 dv=0 dx=155 dy=0 dh=155 dv=0
PairPos2: "'dist' Distance in Khudawadi lookup 0 subtable" u112D4 dx=0 dy=0 dh=0 dv=0 dx=150 dy=0 dh=150 dv=0
PairPos2: "'dist' Distance in Khudawadi lookup 0 subtable" u112D1 dx=0 dy=0 dh=0 dv=0 dx=150 dy=0 dh=150 dv=0
PairPos2: "'dist' Distance in Khudawadi lookup 0 subtable" u112C4 dx=0 dy=0 dh=0 dv=0 dx=-20 dy=0 dh=-20 dv=0
PairPos2: "'dist' Distance in Khudawadi lookup 0 subtable" u112C3 dx=0 dy=0 dh=0 dv=0 dx=160 dy=0 dh=160 dv=0
PairPos2: "'dist' Distance in Khudawadi lookup 0 subtable" u112C2 dx=0 dy=0 dh=0 dv=0 dx=-80 dy=0 dh=-80 dv=0
PairPos2: "'dist' Distance in Khudawadi lookup 0 subtable" u112C0 dx=0 dy=0 dh=0 dv=0 dx=180 dy=0 dh=180 dv=0
PairPos2: "'dist' Distance in Khudawadi lookup 0 subtable" u112BD dx=0 dy=0 dh=0 dv=0 dx=-130 dy=0 dh=-130 dv=0
EndChar

StartChar: u112E2
Encoding: 71 70370 72
Width: 274
GlyphClass: 2
Flags: W
HStem: 700 80<-131.78 29.1646>
VStem: -294 73<558.507 587.239> 95 85<0 624.76>
AnchorPoint: "+BBEENQQ3BEsEPARPBD0EPQQ+BDUA--3" -42 870 basechar 0
LayerCount: 2
Fore
SplineSet
180 -10 m 1,0,-1
 95 0 l 1,1,-1
 95 494 l 2,2,3
 95 575 95 575 76 619.5 c 128,-1,4
 57 664 57 664 24 682 c 128,-1,5
 -9 700 -9 700 -52 700 c 0,6,7
 -99 700 -99 700 -129.5 680 c 128,-1,8
 -160 660 -160 660 -181 623.5 c 128,-1,9
 -202 587 -202 587 -221 535 c 1,10,-1
 -294 561 l 1,11,12
 -259 674 -259 674 -194.5 727 c 128,-1,13
 -130 780 -130 780 -42 780 c 0,14,15
 70 780 70 780 125 706 c 128,-1,16
 180 632 180 632 180 504 c 2,17,-1
 180 -10 l 1,0,-1
EndSplineSet
Substitution2: "Single Substitution lookup 3 subtable" u112E2.alt
EndChar

StartChar: u112E3
Encoding: 72 70371 73
Width: 0
GlyphClass: 4
Flags: W
HStem: -200 80<-419.423 -169.907>
AnchorPoint: "+BBEENQQ3BEsEPARPBD0EPQQ+BDUA--6" -294.5 0 mark 0
AnchorPoint: "+BBEENQQ3BEsEPARPBD0EPQQ+BDUA--0" -294.5 0 mark 0
LayerCount: 2
Fore
SplineSet
-294.5 -200 m 0,0,1
 -412.5 -200 -412.5 -200 -529.5 -132 c 1,2,-1
 -493.5 -66 l 1,3,4
 -447.5 -91 -447.5 -91 -395 -105.5 c 128,-1,5
 -342.5 -120 -342.5 -120 -294.5 -120 c 0,6,7
 -247.5 -120 -247.5 -120 -194.5 -105.5 c 128,-1,8
 -141.5 -91 -141.5 -91 -95.5 -66 c 1,9,-1
 -59.5 -132 l 1,10,11
 -115.5 -164 -115.5 -164 -177.5 -182 c 128,-1,12
 -239.5 -200 -239.5 -200 -294.5 -200 c 0,0,1
EndSplineSet
EndChar

StartChar: u112E5
Encoding: 74 70373 75
Width: 0
GlyphClass: 4
Flags: W
HStem: 728 68<-462 -318.905>
AnchorPoint: "+BBEENQQ3BEsEPARPBD0EPQQ+BDUA--5" -226 800 basemark 0
AnchorPoint: "+BBEENQQ3BEsEPARPBD0EPQQ+BDUA--1" -141 590 mark 0
LayerCount: 2
Fore
SplineSet
-73 579 m 1,0,-1
 -156 589 l 1,1,2
 -177 637 -177 637 -224.5 666.5 c 128,-1,3
 -272 696 -272 696 -336.5 711 c 128,-1,4
 -401 726 -401 726 -474 728 c 1,5,-1
 -462 796 l 1,6,7
 -394 795 -394 795 -329 781.5 c 128,-1,8
 -264 768 -264 768 -209 741.5 c 128,-1,9
 -154 715 -154 715 -118 674.5 c 128,-1,10
 -82 634 -82 634 -73 579 c 1,0,-1
EndSplineSet
EndChar

StartChar: u112E6
Encoding: 75 70374 76
Width: 0
GlyphClass: 4
Flags: W
HStem: 728 68<-440 -296.686>
AnchorPoint: "+BBEENQQ3BEsEPARPBD0EPQQ+BDUA--5" -99 850 basemark 0
AnchorPoint: "+BBEENQQ3BEsEPARPBD0EPQQ+BDUA--1" -119 590 mark 0
LayerCount: 2
Fore
SplineSet
-51 579 m 1,0,-1
 -134 589 l 1,1,2
 -154 636 -154 636 -202 666 c 128,-1,3
 -250 696 -250 696 -314.5 711 c 128,-1,4
 -379 726 -379 726 -452 728 c 1,5,-1
 -440 796 l 1,6,7
 -373 795 -373 795 -307.5 781.5 c 128,-1,8
 -242 768 -242 768 -188 742 c 1,9,10
 -219 786 -219 786 -263.5 820.5 c 128,-1,11
 -308 855 -308 855 -375 881 c 1,12,-1
 -335 939 l 1,13,14
 -224 901 -224 901 -151 810 c 128,-1,15
 -78 719 -78 719 -51 579 c 1,0,-1
EndSplineSet
EndChar

StartChar: u112E7
Encoding: 76 70375 77
Width: 0
GlyphClass: 4
Flags: W
HStem: 668 71<-503.556 -308.821> 700 71<-362.68 -160.243>
VStem: -596 72<761.69 802> -140 80<590.25 679.369>
AnchorPoint: "+BBEENQQ3BEsEPARPBD0EPQQ+BDUA--5" -313 800 basemark 0
AnchorPoint: "+BBEENQQ3BEsEPARPBD0EPQQ+BDUA--1" -128 585 mark 0
LayerCount: 2
Fore
SplineSet
-65 575 m 1,0,-1
 -144 590 l 1,1,2
 -142 598 -142 598 -141 606.5 c 128,-1,3
 -140 615 -140 615 -140 622 c 0,4,5
 -140 640 -140 640 -146.5 658 c 128,-1,6
 -153 676 -153 676 -172 688 c 128,-1,7
 -191 700 -191 700 -227 700 c 0,8,9
 -249 700 -249 700 -277.5 695.5 c 128,-1,10
 -306 691 -306 691 -335 684 c 0,11,12
 -361 678 -361 678 -391 673 c 128,-1,13
 -421 668 -421 668 -450 668 c 0,14,15
 -472 668 -472 668 -497 671.5 c 128,-1,16
 -522 675 -522 675 -544.5 688 c 128,-1,17
 -567 701 -567 701 -581.5 728 c 128,-1,18
 -596 755 -596 755 -596 802 c 1,19,-1
 -524 815 l 1,20,21
 -518 783 -518 783 -504 761 c 128,-1,22
 -490 739 -490 739 -448 739 c 0,23,24
 -427 739 -427 739 -398.5 743.5 c 128,-1,25
 -370 748 -370 748 -341 753 c 0,26,27
 -309 759 -309 759 -271 765 c 128,-1,28
 -233 771 -233 771 -205 771 c 0,29,30
 -144 771 -144 771 -102 736.5 c 128,-1,31
 -60 702 -60 702 -60 636 c 0,32,33
 -60 628 -60 628 -61 610 c 128,-1,34
 -62 592 -62 592 -65 575 c 1,0,-1
EndSplineSet
Substitution2: "Single Substitution lookup 4 subtable" u112E7_straight
Substitution2: "Single Substitution lookup 3 subtable" u112E7.alt
EndChar

StartChar: u112E8
Encoding: 77 70376 78
Width: 0
GlyphClass: 4
Flags: W
HStem: 556 71<-212.574 -123.1> 683 71<-477.555 -295.742> 728 66<-215.028 -124.645>
VStem: -569 71<774.112 812> -295 74<636.055 705.7> -112 74<638.257 716.032>
AnchorPoint: "+BBEENQQ3BEsEPARPBD0EPQQ+BDUA--5" -335 800 basemark 0
AnchorPoint: "+BBEENQQ3BEsEPARPBD0EPQQ+BDUA--4" -179 570 mark 0
LayerCount: 2
Fore
SplineSet
-167 556 m 0,0,1
 -228 556 -228 556 -261.5 587.5 c 128,-1,2
 -295 619 -295 619 -295 674 c 0,3,4
 -295 690 -295 690 -292 706 c 1,5,6
 -355 683 -355 683 -426 683 c 0,7,8
 -448 683 -448 683 -472.5 687 c 128,-1,9
 -497 691 -497 691 -519 703.5 c 128,-1,10
 -541 716 -541 716 -555 742 c 128,-1,11
 -569 768 -569 768 -569 812 c 1,12,-1
 -498 825 l 1,13,14
 -492 793 -492 793 -477 773.5 c 128,-1,15
 -462 754 -462 754 -419 754 c 0,16,17
 -393 754 -393 754 -366.5 758.5 c 128,-1,18
 -340 763 -340 763 -312 770 c 0,19,20
 -284 778 -284 778 -247 786 c 128,-1,21
 -210 794 -210 794 -175 794 c 0,22,23
 -114 794 -114 794 -76 764 c 128,-1,24
 -38 734 -38 734 -38 676 c 0,25,26
 -38 622 -38 622 -71.5 589 c 128,-1,27
 -105 556 -105 556 -167 556 c 0,0,1
-165 627 m 0,28,29
 -140 627 -140 627 -126 640.5 c 128,-1,30
 -112 654 -112 654 -112 676 c 0,31,32
 -112 700 -112 700 -127.5 714 c 128,-1,33
 -143 728 -143 728 -172 728 c 0,34,35
 -182 728 -182 728 -191.5 726.5 c 128,-1,36
 -201 725 -201 725 -212 723 c 1,37,38
 -217 715 -217 715 -219 704 c 128,-1,39
 -221 693 -221 693 -221 682 c 0,40,41
 -221 627 -221 627 -165 627 c 0,28,29
EndSplineSet
Substitution2: "Single Substitution lookup 3 subtable" u112E8.alt
EndChar

StartChar: u112E9
Encoding: 78 70377 79
Width: 0
GlyphClass: 4
Flags: W
HStem: -146 135<-338.951 -252.08>
VStem: -357 124<-129.495 -26.4741>
AnchorPoint: "+BBEENQQ3BEsEPARPBD0EPQQ+BDUA--6" -297 -110 basemark 0
AnchorPoint: "+BBEENQQ3BEsEPARPBD0EPQQ+BDUA--0" -297 40 mark 0
LayerCount: 2
Fore
SplineSet
-296 -146 m 256,0,1
 -322 -146 -322 -146 -339.5 -130 c 128,-1,2
 -357 -114 -357 -114 -357 -78 c 0,3,4
 -357 -41 -357 -41 -339.5 -26 c 128,-1,5
 -322 -11 -322 -11 -296 -11 c 256,6,7
 -270 -11 -270 -11 -251.5 -26 c 128,-1,8
 -233 -41 -233 -41 -233 -78 c 0,9,10
 -233 -114 -233 -114 -251.5 -130 c 128,-1,11
 -270 -146 -270 -146 -296 -146 c 256,0,1
EndSplineSet
EndChar

StartChar: u112EA
Encoding: 79 70378 80
Width: 0
GlyphClass: 4
Flags: W
HStem: -279 250
VStem: -365 289
AnchorPoint: "+BBEENQQ3BEsEPARPBD0EPQQ+BDUA--6" -306 1 mark 0
AnchorPoint: "+BBEENQQ3BEsEPARPBD0EPQQ+BDUA--0" -306 1 mark 0
LayerCount: 2
Fore
SplineSet
-126 -279 m 1,0,-1
 -365 -89 l 1,1,-1
 -313 -29 l 1,2,-1
 -76 -216 l 1,3,-1
 -126 -279 l 1,0,-1
EndSplineSet
EndChar

StartChar: u112F0
Encoding: 80 70384 81
Width: 533
GlyphClass: 2
Flags: W
HStem: 72 80<193.32 337.273> 448 80<194.807 336.906>
VStem: 50 85<212.454 385.944> 398 85<214.067 384.286>
LayerCount: 2
Fore
SplineSet
266 72 m 256,0,1
 206 72 206 72 157 100.5 c 128,-1,2
 108 129 108 129 79 180.5 c 128,-1,3
 50 232 50 232 50 300 c 256,4,5
 50 368 50 368 79 419.5 c 128,-1,6
 108 471 108 471 157 499.5 c 128,-1,7
 206 528 206 528 266 528 c 256,8,9
 326 528 326 528 375 499.5 c 128,-1,10
 424 471 424 471 453.5 419.5 c 128,-1,11
 483 368 483 368 483 300 c 256,12,13
 483 232 483 232 453.5 180.5 c 128,-1,14
 424 129 424 129 375 100.5 c 128,-1,15
 326 72 326 72 266 72 c 256,0,1
265 152 m 256,16,17
 319 152 319 152 358.5 191 c 128,-1,18
 398 230 398 230 398 299 c 0,19,20
 398 345 398 345 380 378.5 c 128,-1,21
 362 412 362 412 331.5 430 c 128,-1,22
 301 448 301 448 265 448 c 0,23,24
 211 448 211 448 173 408 c 128,-1,25
 135 368 135 368 135 299 c 256,26,27
 135 230 135 230 173 191 c 128,-1,28
 211 152 211 152 265 152 c 256,16,17
EndSplineSet
EndChar

StartChar: u112F1
Encoding: 81 70385 82
Width: 518
GlyphClass: 2
Flags: W
HStem: -10 80<399.351 489> 287 76<159.535 301.312> 540 80<155.763 268.017>
VStem: 50 83<389.194 516.892> 302 86<89.0829 303 374.425 502.088>
LayerCount: 2
Fore
SplineSet
447 -10 m 0,0,1
 365 -10 365 -10 333.5 26.5 c 128,-1,2
 302 63 302 63 302 136 c 2,3,-1
 302 303 l 1,4,5
 280 295 280 295 257 291 c 128,-1,6
 234 287 234 287 206 287 c 0,7,8
 133 287 133 287 91.5 330.5 c 128,-1,9
 50 374 50 374 50 448 c 0,10,11
 50 496 50 496 68 535 c 128,-1,12
 86 574 86 574 123 597 c 128,-1,13
 160 620 160 620 216 620 c 0,14,15
 270 620 270 620 303.5 599 c 128,-1,16
 337 578 337 578 355.5 543.5 c 128,-1,17
 374 509 374 509 381 467.5 c 128,-1,18
 388 426 388 426 388 385 c 2,19,-1
 388 145 l 2,20,21
 388 107 388 107 399 88.5 c 128,-1,22
 410 70 410 70 451 70 c 0,23,24
 460 70 460 70 473 71 c 128,-1,25
 486 72 486 72 498 73 c 1,26,-1
 489 -7 l 1,27,28
 467 -10 467 -10 447 -10 c 0,0,1
133 454 m 256,29,30
 133 414 133 414 155.5 388.5 c 128,-1,31
 178 363 178 363 223 363 c 0,32,33
 243 363 243 363 262 368.5 c 128,-1,34
 281 374 281 374 302 383 c 1,35,36
 302 407 302 407 299.5 434.5 c 128,-1,37
 297 462 297 462 288 486 c 128,-1,38
 279 510 279 510 261 525 c 128,-1,39
 243 540 243 540 212 540 c 0,40,41
 175 540 175 540 154 517 c 128,-1,42
 133 494 133 494 133 454 c 256,29,30
EndSplineSet
EndChar

StartChar: u112F2
Encoding: 82 70386 83
Width: 627
GlyphClass: 2
Flags: W
HStem: -10 78<149.758 319.219> 165 76<154.381 315.584> 540 80<115.07 341.924>
VStem: 55 85<79.8211 153.106> 445 85<206.98 433.287>
LayerCount: 2
Fore
SplineSet
222 -10 m 0,0,1
 177 -10 177 -10 139 2.5 c 128,-1,2
 101 15 101 15 78 42.5 c 128,-1,3
 55 70 55 70 55 115 c 0,4,5
 55 162 55 162 79 189.5 c 128,-1,6
 103 217 103 217 139.5 229 c 128,-1,7
 176 241 176 241 214 241 c 0,8,9
 262 241 262 241 311 224.5 c 128,-1,10
 360 208 360 208 411 180 c 1,11,12
 428 212 428 212 436.5 249 c 128,-1,13
 445 286 445 286 445 325 c 0,14,15
 445 387 445 387 422.5 435.5 c 128,-1,16
 400 484 400 484 353.5 512 c 128,-1,17
 307 540 307 540 234 540 c 0,18,19
 191 540 191 540 151 529.5 c 128,-1,20
 111 519 111 519 71 499 c 1,21,-1
 40 569 l 1,22,23
 90 595 90 595 138 607.5 c 128,-1,24
 186 620 186 620 238 620 c 0,25,26
 327 620 327 620 392.5 585 c 128,-1,27
 458 550 458 550 494 485 c 128,-1,28
 530 420 530 420 530 329 c 0,29,30
 530 222 530 222 481 138 c 1,31,32
 511 118 511 118 542.5 96 c 128,-1,33
 574 74 574 74 607 50 c 1,34,-1
 564 -10 l 1,35,36
 533 14 533 14 501 36.5 c 128,-1,37
 469 59 469 59 438 80 c 1,38,39
 398 38 398 38 343.5 14 c 128,-1,40
 289 -10 289 -10 222 -10 c 0,0,1
140 117 m 0,41,42
 140 68 140 68 222 68 c 0,43,44
 267 68 267 68 303 82.5 c 128,-1,45
 339 97 339 97 366 121 c 1,46,47
 326 141 326 141 288 153 c 128,-1,48
 250 165 250 165 214 165 c 0,49,50
 179 165 179 165 159.5 153 c 128,-1,51
 140 141 140 141 140 117 c 0,41,42
EndSplineSet
EndChar

StartChar: u112F3
Encoding: 83 70387 84
Width: 519
GlyphClass: 2
Flags: W
HStem: -10 80<142.526 331.786> 273 80<140.473 307.687> 540 80<137.815 332.989>
VStem: 374 85<385.913 501.897> 384 85<118.131 241.965>
LayerCount: 2
Fore
SplineSet
242 -10 m 0,0,1
 169 -10 169 -10 120.5 12.5 c 128,-1,2
 72 35 72 35 35 61 c 1,3,-1
 78 132 l 1,4,5
 108 109 108 109 147 89.5 c 128,-1,6
 186 70 186 70 241 70 c 0,7,8
 275 70 275 70 308 81 c 128,-1,9
 341 92 341 92 362.5 117.5 c 128,-1,10
 384 143 384 143 384 185 c 0,11,12
 384 217 384 217 366 240.5 c 128,-1,13
 348 264 348 264 308 276 c 0,14,15
 298 275 298 275 287.5 274 c 128,-1,16
 277 273 277 273 261 273 c 0,17,18
 229 273 229 273 197 276 c 128,-1,19
 165 279 165 279 129 285 c 1,20,-1
 140 364 l 1,21,22
 155 360 155 360 188 356.5 c 128,-1,23
 221 353 221 353 248 353 c 0,24,25
 296 353 296 353 323.5 366 c 128,-1,26
 351 379 351 379 362.5 400 c 128,-1,27
 374 421 374 421 374 444 c 0,28,29
 374 489 374 489 338.5 514.5 c 128,-1,30
 303 540 303 540 244 540 c 0,31,32
 196 540 196 540 155 525 c 128,-1,33
 114 510 114 510 82 492 c 1,34,-1
 47 567 l 1,35,36
 85 587 85 587 135 603.5 c 128,-1,37
 185 620 185 620 248 620 c 0,38,39
 307 620 307 620 354.5 601 c 128,-1,40
 402 582 402 582 430.5 543 c 128,-1,41
 459 504 459 504 459 442 c 0,42,43
 459 397 459 397 444 366.5 c 128,-1,44
 429 336 429 336 404 316 c 1,45,46
 433 296 433 296 451 264.5 c 128,-1,47
 469 233 469 233 469 183 c 0,48,49
 469 89 469 89 406.5 39.5 c 128,-1,50
 344 -10 344 -10 242 -10 c 0,0,1
EndSplineSet
EndChar

StartChar: u112F4
Encoding: 84 70388 85
Width: 645
GlyphClass: 2
Flags: W
HStem: -10 80<287.202 418.427> 543 77<68.6655 148.79>
VStem: 176 85<96.3356 222.283> 441 85<92.7881 220.023>
LayerCount: 2
Fore
SplineSet
349 -10 m 0,0,1
 271 -10 271 -10 223.5 30.5 c 128,-1,2
 176 71 176 71 176 147 c 0,3,4
 176 212 176 212 209.5 260 c 128,-1,5
 243 308 243 308 299 363 c 1,6,-1
 227 442 l 2,7,8
 173 501 173 501 148 522 c 128,-1,9
 123 543 123 543 108 543 c 0,10,11
 92 543 92 543 80 533 c 128,-1,12
 68 523 68 523 55 503 c 1,13,-1
 0 550 l 1,14,15
 22 585 22 585 46 602.5 c 128,-1,16
 70 620 70 620 114 620 c 0,17,18
 140 620 140 620 161 610.5 c 128,-1,19
 182 601 182 601 210 576 c 128,-1,20
 238 551 238 551 282 502 c 2,21,-1
 359 419 l 1,22,-1
 570 620 l 1,23,-1
 625 562 l 1,24,-1
 413 360 l 1,25,26
 467 301 467 301 496.5 254.5 c 128,-1,27
 526 208 526 208 526 153 c 0,28,29
 526 97 526 97 502.5 60.5 c 128,-1,30
 479 24 479 24 439 7 c 128,-1,31
 399 -10 399 -10 349 -10 c 0,0,1
261 155 m 0,32,33
 261 113 261 113 287 91.5 c 128,-1,34
 313 70 313 70 353 70 c 0,35,36
 388 70 388 70 414.5 88.5 c 128,-1,37
 441 107 441 107 441 152 c 0,38,39
 441 185 441 185 420 219 c 128,-1,40
 399 253 399 253 353 303 c 1,41,42
 302 252 302 252 281.5 221 c 128,-1,43
 261 190 261 190 261 155 c 0,32,33
EndSplineSet
EndChar

StartChar: u112F5
Encoding: 85 70389 86
Width: 606
GlyphClass: 2
Flags: W
HStem: -10 80<515.98 578> 325 80<168.686 361.832>
VStem: 20 81<489.375 610> 423 86<89.0807 391 461.25 610>
LayerCount: 2
Fore
SplineSet
533 -10 m 0,0,1
 487 -10 487 -10 463 8.5 c 128,-1,2
 439 27 439 27 431 58 c 128,-1,3
 423 89 423 89 423 127 c 2,4,-1
 423 391 l 1,5,6
 388 352 388 352 344.5 338.5 c 128,-1,7
 301 325 301 325 262 325 c 0,8,9
 138 325 138 325 80 397.5 c 128,-1,10
 22 470 22 470 20 620 c 1,11,-1
 101 610 l 1,12,13
 105 548 105 548 118 501.5 c 128,-1,14
 131 455 131 455 164 430 c 128,-1,15
 197 405 197 405 262 405 c 0,16,17
 391 405 391 405 424 505 c 1,18,-1
 424 620 l 1,19,-1
 509 610 l 1,20,-1
 509 136 l 2,21,22
 509 107 509 107 516.5 88.5 c 128,-1,23
 524 70 524 70 553 70 c 0,24,25
 573 70 573 70 586 74 c 1,26,-1
 578 -4 l 1,27,28
 556 -10 556 -10 533 -10 c 0,0,1
EndSplineSet
EndChar

StartChar: u112F6
Encoding: 86 70390 87
Width: 519
GlyphClass: 2
Flags: W
HStem: -10 80<179.102 387.812> 273 80<203.345 373.527> 540 80<174.717 369.242>
VStem: 40 85<117.879 245.622> 55 85<388.35 507.038>
LayerCount: 2
Fore
SplineSet
272 -10 m 0,0,1
 166 -10 166 -10 103 39 c 128,-1,2
 40 88 40 88 40 177 c 0,3,4
 40 221 40 221 61.5 255.5 c 128,-1,5
 83 290 83 290 117 316 c 1,6,7
 89 337 89 337 72 370 c 128,-1,8
 55 403 55 403 55 446 c 0,9,10
 55 508 55 508 83.5 546 c 128,-1,11
 112 584 112 584 161 602 c 128,-1,12
 210 620 210 620 270 620 c 0,13,14
 320 620 320 620 359.5 608.5 c 128,-1,15
 399 597 399 597 437 577 c 1,16,-1
 402 502 l 1,17,18
 370 520 370 520 338.5 530 c 128,-1,19
 307 540 307 540 263 540 c 0,20,21
 201 540 201 540 170.5 515.5 c 128,-1,22
 140 491 140 491 140 450 c 0,23,24
 140 411 140 411 167 382 c 128,-1,25
 194 353 194 353 266 353 c 0,26,27
 293 353 293 353 326 356.5 c 128,-1,28
 359 360 359 360 374 364 c 1,29,-1
 385 285 l 1,30,31
 349 279 349 279 323.5 276 c 128,-1,32
 298 273 298 273 272 273 c 0,33,34
 250 273 250 273 232 275.5 c 128,-1,35
 214 278 214 278 203 280 c 1,36,37
 163 268 163 268 144 242.5 c 128,-1,38
 125 217 125 217 125 183 c 0,39,40
 125 130 125 130 165.5 100 c 128,-1,41
 206 70 206 70 273 70 c 0,42,43
 334 70 334 70 383.5 90 c 128,-1,44
 433 110 433 110 461 132 c 1,45,-1
 504 61 l 1,46,47
 468 35 468 35 408.5 12.5 c 128,-1,48
 349 -10 349 -10 272 -10 c 0,0,1
EndSplineSet
EndChar

StartChar: u112F7
Encoding: 87 70391 88
Width: 725
GlyphClass: 2
Flags: W
HStem: -10 80<275.386 492.5> 538 82<411.903 519.639>
VStem: 40 85<273.129 598.092> 55 83<230.901 453.282 457.436 457.844 461.187 600.771> 312 85<404.672 523.886> 584 91<169.518 248.291 321 453.402>
LayerCount: 2
Fore
SplineSet
377 -10 m 0,0,1
 280 -10 280 -10 215 29.5 c 128,-1,2
 150 69 150 69 111.5 136 c 128,-1,3
 73 203 73 203 56.5 286 c 128,-1,4
 40 369 40 369 40 456 c 0,5,6
 40 502 40 502 44 541.5 c 128,-1,7
 48 581 48 581 55 620 c 1,8,-1
 138 599 l 1,9,10
 133 570 133 570 129 534 c 128,-1,11
 125 498 125 498 125 460 c 0,12,13
 125 391 125 391 136 322 c 128,-1,14
 147 253 147 253 175 196 c 128,-1,15
 203 139 203 139 253.5 104.5 c 128,-1,16
 304 70 304 70 384 70 c 0,17,18
 481 70 481 70 527 116.5 c 128,-1,19
 573 163 573 163 584 245 c 1,20,21
 544 250 544 250 497 264 c 128,-1,22
 450 278 450 278 408 303.5 c 128,-1,23
 366 329 366 329 339 370 c 128,-1,24
 312 411 312 411 312 471 c 0,25,26
 312 535 312 535 346.5 577.5 c 128,-1,27
 381 620 381 620 453 620 c 256,28,29
 525 620 525 620 574.5 577.5 c 128,-1,30
 624 535 624 535 649.5 464.5 c 128,-1,31
 675 394 675 394 675 310 c 0,32,33
 675 197 675 197 636.5 126.5 c 128,-1,34
 598 56 598 56 531 23 c 128,-1,35
 464 -10 464 -10 377 -10 c 0,0,1
397 471 m 256,36,37
 397 436 397 436 414.5 410 c 128,-1,38
 432 384 432 384 460.5 366.5 c 128,-1,39
 489 349 489 349 522.5 338 c 128,-1,40
 556 327 556 327 588 321 c 1,41,42
 586 373 586 373 572.5 423 c 128,-1,43
 559 473 559 473 531 505.5 c 128,-1,44
 503 538 503 538 458 538 c 0,45,46
 430 538 430 538 413.5 522 c 128,-1,47
 397 506 397 506 397 471 c 256,36,37
EndSplineSet
EndChar

StartChar: u112F8
Encoding: 88 70392 89
Width: 705
GlyphClass: 2
Flags: W
HStem: 0 75<183.454 672>
VStem: 40 85<124.307 263.265>
LayerCount: 2
Fore
SplineSet
289 0 m 2,0,1
 243 0 243 0 198.5 7 c 128,-1,2
 154 14 154 14 118 33.5 c 128,-1,3
 82 53 82 53 61 90.5 c 128,-1,4
 40 128 40 128 40 188 c 0,5,6
 40 246 40 246 65.5 288 c 128,-1,7
 91 330 91 330 126.5 360 c 128,-1,8
 162 390 162 390 193 409 c 2,9,-1
 523 620 l 1,10,-1
 569 556 l 1,11,-1
 234 339 l 2,12,13
 211 324 211 324 185.5 304.5 c 128,-1,14
 160 285 160 285 142.5 257.5 c 128,-1,15
 125 230 125 230 125 191 c 0,16,17
 125 147 125 147 149 121.5 c 128,-1,18
 173 96 173 96 213.5 85.5 c 128,-1,19
 254 75 254 75 304 75 c 2,20,-1
 685 75 l 1,21,-1
 672 0 l 1,22,-1
 289 0 l 2,0,1
EndSplineSet
EndChar

StartChar: u112F9
Encoding: 89 70393 90
Width: 726
GlyphClass: 2
Flags: W
HStem: -10 80<253.53 467.39>
VStem: 40 85<207.564 477.378>
LayerCount: 2
Fore
SplineSet
357 -10 m 0,0,1
 255 -10 255 -10 184 33 c 128,-1,2
 113 76 113 76 76.5 152.5 c 128,-1,3
 40 229 40 229 40 331 c 0,4,5
 40 395 40 395 52.5 451.5 c 128,-1,6
 65 508 65 508 82 551.5 c 128,-1,7
 99 595 99 595 112 620 c 1,8,-1
 191 594 l 1,9,10
 169 544 169 544 147 477.5 c 128,-1,11
 125 411 125 411 125 334 c 0,12,13
 125 276 125 276 138 232 c 128,-1,14
 151 188 151 188 173 157 c 1,15,-1
 505 590 l 1,16,-1
 566 539 l 1,17,-1
 232 102 l 1,18,19
 261 86 261 86 293.5 78 c 128,-1,20
 326 70 326 70 360 70 c 0,21,22
 422 70 422 70 473.5 94.5 c 128,-1,23
 525 119 525 119 561.5 162 c 128,-1,24
 598 205 598 205 616 259 c 1,25,-1
 686 217 l 1,26,27
 667 145 667 145 619.5 94 c 128,-1,28
 572 43 572 43 504.5 16.5 c 128,-1,29
 437 -10 437 -10 357 -10 c 0,0,1
EndSplineSet
EndChar

StartChar: u112E1_u112C0
Encoding: 91 -1 91
Width: 829
GlyphClass: 2
Flags: W
HStem: -10 80<551.609 681.381> 700 80<221.98 353.641>
VStem: 85 85<0 637.865> 442 85<92.5325 217.52> 706 85<92.9537 218.154>
AnchorPoint: "+BBEENQQ3BEsEPARPBD0EPQQ+BDUA--3" 245 830 basechar 0
AnchorPoint: "+BBEENQQ3BEsEPARPBD0EPQQ+BDUA--0" 546 0 basechar 0
LayerCount: 2
Fore
SplineSet
170 -10 m 1,0,-1
 85 0 l 1,1,-1
 85 522 l 2,2,3
 85 597 85 597 106 655.5 c 128,-1,4
 127 714 127 714 171.5 747 c 128,-1,5
 216 780 216 780 284 780 c 0,6,7
 340 780 340 780 379.5 757 c 128,-1,8
 419 734 419 734 450 697 c 128,-1,9
 481 660 481 660 511 616 c 2,10,-1
 621 457 l 1,11,-1
 745 630 l 1,12,-1
 807 584 l 1,13,-1
 667 390 l 1,14,15
 717 318 717 318 743.5 273.5 c 128,-1,16
 770 229 770 229 780.5 199 c 128,-1,17
 791 169 791 169 791 140 c 0,18,19
 791 76 791 76 743.5 33 c 128,-1,20
 696 -10 696 -10 615 -10 c 0,21,22
 560 -10 560 -10 521.5 10.5 c 128,-1,23
 483 31 483 31 462.5 65.5 c 128,-1,24
 442 100 442 100 442 142 c 0,25,26
 442 189 442 189 474.5 244 c 128,-1,27
 507 299 507 299 553 363 c 2,28,-1
 572 390 l 1,29,-1
 456 556 l 2,30,31
 422 606 422 606 396 637.5 c 128,-1,32
 370 669 370 669 344.5 684.5 c 128,-1,33
 319 700 319 700 284 700 c 0,34,35
 259 700 259 700 232.5 685.5 c 128,-1,36
 206 671 206 671 188 630.5 c 128,-1,37
 170 590 170 590 170 513 c 2,38,-1
 170 -10 l 1,0,-1
527 143 m 0,39,40
 527 109 527 109 552.5 89.5 c 128,-1,41
 578 70 578 70 616 70 c 256,42,43
 654 70 654 70 680 89 c 128,-1,44
 706 108 706 108 706 143 c 0,45,46
 706 162 706 162 699.5 183 c 128,-1,47
 693 204 693 204 674.5 236.5 c 128,-1,48
 656 269 656 269 619 322 c 1,49,50
 583 272 583 272 563 241.5 c 128,-1,51
 543 211 543 211 535 188.5 c 128,-1,52
 527 166 527 166 527 143 c 0,39,40
EndSplineSet
Ligature2: "'abvs' Above Base Substitutions in Khudawadi lookup 1 subtable" u112E1 u112C0
EndChar

StartChar: u112C0_u112E2
Encoding: 92 -1 92
Width: 782
GlyphClass: 2
Flags: W
HStem: -10 80<134.644 263.391> 700 80<461.866 593.491>
VStem: 24 85<93.244 218.154> 288 85<92.5325 217.52> 645 85<0 637.865>
AnchorPoint: "+BBEENQQ3BEsEPARPBD0EPQQ+BDUA--3" 497 830 basechar 0
AnchorPoint: "+BBEENQQ3BEsEPARPBD0EPQQ+BDUA--0" 196 0 basechar 0
LayerCount: 2
Fore
SplineSet
200 -10 m 0,0,1
 119 -10 119 -10 71.5 33 c 128,-1,2
 24 76 24 76 24 140 c 0,3,4
 24 169 24 169 34.5 199 c 128,-1,5
 45 229 45 229 71.5 273.5 c 128,-1,6
 98 318 98 318 148 390 c 1,7,-1
 8 584 l 1,8,-1
 70 630 l 1,9,-1
 194 457 l 1,10,-1
 304 616 l 2,11,12
 334 660 334 660 365 697 c 128,-1,13
 396 734 396 734 436 757 c 128,-1,14
 476 780 476 780 531 780 c 0,15,16
 600 780 600 780 644 747 c 128,-1,17
 688 714 688 714 709 655.5 c 128,-1,18
 730 597 730 597 730 522 c 2,19,-1
 730 -10 l 1,20,-1
 645 0 l 1,21,-1
 645 513 l 2,22,23
 645 590 645 590 627 630.5 c 128,-1,24
 609 671 609 671 583 685.5 c 128,-1,25
 557 700 557 700 531 700 c 0,26,27
 497 700 497 700 471 684.5 c 128,-1,28
 445 669 445 669 419.5 637.5 c 128,-1,29
 394 606 394 606 359 556 c 2,30,-1
 243 390 l 1,31,-1
 262 363 l 2,32,33
 308 299 308 299 340.5 244 c 128,-1,34
 373 189 373 189 373 142 c 0,35,36
 373 100 373 100 352.5 65.5 c 128,-1,37
 332 31 332 31 293.5 10.5 c 128,-1,38
 255 -10 255 -10 200 -10 c 0,0,1
109 143 m 0,39,40
 109 109 109 109 135 89.5 c 128,-1,41
 161 70 161 70 199 70 c 256,42,43
 237 70 237 70 262.5 89.5 c 128,-1,44
 288 109 288 109 288 143 c 0,45,46
 288 166 288 166 280 188.5 c 128,-1,47
 272 211 272 211 252 241.5 c 128,-1,48
 232 272 232 272 196 322 c 1,49,50
 159 269 159 269 140.5 236.5 c 128,-1,51
 122 204 122 204 115.5 183 c 128,-1,52
 109 162 109 162 109 143 c 0,39,40
EndSplineSet
Ligature2: "'abvf' Above Base Forms in Khudawadi lookup 0 subtable" u112C0 u112E2
EndChar

StartChar: u112E1_u112C3
Encoding: 93 -1 93
Width: 1382
GlyphClass: 2
Flags: W
HStem: -10 80<1075.38 1198.66> 0 21G<460.303 546.381 717.707 800.5> 285 77<1056.81 1190.73> 540 80<1219.31 1345> 700 80<231.473 381.025>
VStem: 85 85<0 631.054> 444 80<317 618.322> 461 76<149 200.941> 715 71<0 53.5981 159 341> 950 83<118.512 233.445> 1228 83<100.744 247.873>
AnchorPoint: "+BBEENQQ3BEsEPARPBD0EPQQ+BDUA--3" 290 830 basechar 0
AnchorPoint: "+BBEENQQ3BEsEPARPBD0EPQQ+BDUA--0" 805 0 basechar 0
LayerCount: 2
Fore
SplineSet
170 -10 m 1,0,-1
 85 0 l 1,1,-1
 85 522 l 2,2,3
 85 597 85 597 108 655.5 c 128,-1,4
 131 714 131 714 180.5 747 c 128,-1,5
 230 780 230 780 308 780 c 0,6,7
 421 780 421 780 470.5 709 c 128,-1,8
 520 638 520 638 524 513 c 2,9,-1
 537 149 l 1,10,-1
 715 500 l 1,11,-1
 786 485 l 1,12,-1
 790 159 l 1,13,14
 857 276 857 276 963 327 c 1,15,16
 984 416 984 416 1039.5 481.5 c 128,-1,17
 1095 547 1095 547 1177 583.5 c 128,-1,18
 1259 620 1259 620 1362 620 c 1,19,-1
 1345 540 l 1,20,21
 1238 540 1238 540 1163.5 490.5 c 128,-1,22
 1089 441 1089 441 1056 357 c 1,23,24
 1085 362 1085 362 1115 362 c 0,25,26
 1173 362 1173 362 1211 343.5 c 128,-1,27
 1249 325 1249 325 1271 296 c 128,-1,28
 1293 267 1293 267 1302 233.5 c 128,-1,29
 1311 200 1311 200 1311 169 c 0,30,31
 1311 123 1311 123 1293 82.5 c 128,-1,32
 1275 42 1275 42 1236 16 c 128,-1,33
 1197 -10 1197 -10 1135 -10 c 0,34,35
 1041 -10 1041 -10 995.5 53 c 128,-1,36
 950 116 950 116 950 220 c 0,37,38
 950 227 950 227 950 234 c 1,39,40
 901 199 901 199 859 140.5 c 128,-1,41
 817 82 817 82 784 0 c 1,42,-1
 718 0 l 1,43,-1
 713 341 l 1,44,-1
 536 0 l 1,45,-1
 461 0 l 1,46,-1
 444 488 l 2,47,48
 442 550 442 550 429 597.5 c 128,-1,49
 416 645 416 645 387.5 672.5 c 128,-1,50
 359 700 359 700 311 700 c 0,51,52
 276 700 276 700 243.5 685 c 128,-1,53
 211 670 211 670 190.5 630 c 128,-1,54
 170 590 170 590 170 513 c 2,55,-1
 170 -10 l 1,0,-1
1033 228 m 0,56,57
 1033 191 1033 191 1041.5 154.5 c 128,-1,58
 1050 118 1050 118 1072.5 94 c 128,-1,59
 1095 70 1095 70 1137 70 c 0,60,61
 1185 70 1185 70 1206.5 101 c 128,-1,62
 1228 132 1228 132 1228 176 c 0,63,64
 1228 226 1228 226 1199.5 255.5 c 128,-1,65
 1171 285 1171 285 1103 285 c 0,66,67
 1069 285 1069 285 1036 276 c 1,68,69
 1033 253 1033 253 1033 228 c 0,56,57
EndSplineSet
Ligature2: "'abvs' Above Base Substitutions in Khudawadi lookup 1 subtable" u112E1 u112C3
EndChar

StartChar: u112C3_u112E2
Encoding: 94 -1 94
Width: 1256
GlyphClass: 2
Flags: W
HStem: -10 80<704.379 827.663> 0 21G<90 175.386 346.585 429.5> 285 77<671.82 819.727> 546 74<27.2027 63.1182> 700 80<850.088 1019.38>
VStem: 90 81<159 518.798> 340 73<159 337> 347 66<0 48.9551 159 337> 579 83<118.512 234> 857 83<100.744 247.873> 1077 85<0 634.902>
AnchorPoint: "+BBEENQQ3BEsEPARPBD0EPQQ+BDUA--3" 938 830 basechar 0
AnchorPoint: "+BBEENQQ3BEsEPARPBD0EPQQ+BDUA--0" 448 0 basechar 0
LayerCount: 2
Fore
SplineSet
764 -10 m 0,0,1
 670 -10 670 -10 624.5 53 c 128,-1,2
 579 116 579 116 579 220 c 0,3,4
 579 227 579 227 579 234 c 1,5,6
 530 199 530 199 488 140.5 c 128,-1,7
 446 82 446 82 413 0 c 1,8,-1
 347 0 l 1,9,-1
 340 337 l 1,10,-1
 165 0 l 1,11,-1
 90 0 l 1,12,-1
 90 444 l 2,13,14
 90 497 90 497 68 520.5 c 128,-1,15
 46 544 46 544 10 546 c 1,16,-1
 29 620 l 1,17,18
 113 612 113 612 142 566.5 c 128,-1,19
 171 521 171 521 171 444 c 2,20,-1
 171 159 l 1,21,-1
 344 500 l 1,22,-1
 413 485 l 1,23,-1
 419 159 l 1,24,25
 484 272 484 272 586 324 c 1,26,27
 593 386 593 386 610.5 450.5 c 128,-1,28
 628 515 628 515 657 574 c 128,-1,29
 686 633 686 633 727 679.5 c 128,-1,30
 768 726 768 726 823 753 c 128,-1,31
 878 780 878 780 949 780 c 0,32,33
 1024 780 1024 780 1071 747 c 128,-1,34
 1118 714 1118 714 1140 655.5 c 128,-1,35
 1162 597 1162 597 1162 522 c 2,36,-1
 1162 0 l 1,37,-1
 1077 -10 l 1,38,-1
 1077 513 l 2,39,40
 1077 590 1077 590 1058 630 c 128,-1,41
 1039 670 1039 670 1009 685 c 128,-1,42
 979 700 979 700 946 700 c 0,43,44
 884 700 884 700 837 671 c 128,-1,45
 790 642 790 642 756.5 593 c 128,-1,46
 723 544 723 544 702 482 c 128,-1,47
 681 420 681 420 671 355 c 1,48,49
 707 362 707 362 744 362 c 0,50,51
 802 362 802 362 840 343.5 c 128,-1,52
 878 325 878 325 900 296 c 128,-1,53
 922 267 922 267 931 233.5 c 128,-1,54
 940 200 940 200 940 169 c 0,55,56
 940 123 940 123 922 82.5 c 128,-1,57
 904 42 904 42 865 16 c 128,-1,58
 826 -10 826 -10 764 -10 c 0,0,1
662 228 m 0,59,60
 662 191 662 191 670.5 154.5 c 128,-1,61
 679 118 679 118 701.5 94 c 128,-1,62
 724 70 724 70 766 70 c 0,63,64
 814 70 814 70 835.5 101 c 128,-1,65
 857 132 857 132 857 176 c 0,66,67
 857 226 857 226 828.5 255.5 c 128,-1,68
 800 285 800 285 732 285 c 0,69,70
 697 285 697 285 663 275 c 1,71,72
 662 252 662 252 662 228 c 0,59,60
EndSplineSet
Ligature2: "'abvf' Above Base Forms in Khudawadi lookup 0 subtable" u112C3 u112E2
EndChar

StartChar: u112E1_u112D1
Encoding: 95 -1 95
Width: 1229
GlyphClass: 2
Flags: W
HStem: 700 80<223.185 364.908>
VStem: 85 85<0 638.451>
AnchorPoint: "+BBEENQQ3BEsEPARPBD0EPQQ+BDUA--3" 273 830 basechar 0
AnchorPoint: "+BBEENQQ3BEsEPARPBD0EPQQ+BDUA--0" 630 0 basechar 0
LayerCount: 2
Fore
SplineSet
170 -10 m 1,0,-1
 85 0 l 1,1,-1
 85 522 l 2,2,3
 85 597 85 597 106 655.5 c 128,-1,4
 127 714 127 714 172 747 c 128,-1,5
 217 780 217 780 288 780 c 0,6,7
 346 780 346 780 389 755.5 c 128,-1,8
 432 731 432 731 462 690 c 128,-1,9
 492 649 492 649 512.5 599 c 128,-1,10
 533 549 533 549 546 497 c 0,11,12
 558 449 558 449 574.5 390.5 c 128,-1,13
 591 332 591 332 610 272.5 c 128,-1,14
 629 213 629 213 648 162 c 128,-1,15
 667 111 667 111 684 79 c 1,16,17
 776 145 776 145 862.5 229.5 c 128,-1,18
 949 314 949 314 1021.5 412 c 128,-1,19
 1094 510 1094 510 1144 615 c 1,20,-1
 1218 574 l 1,21,22
 1147 436 1147 436 1063 331 c 128,-1,23
 979 226 979 226 885.5 143.5 c 128,-1,24
 792 61 792 61 693 -10 c 1,25,-1
 622 9 l 1,26,27
 604 43 604 43 584.5 91.5 c 128,-1,28
 565 140 565 140 546.5 195 c 128,-1,29
 528 250 528 250 511.5 304 c 128,-1,30
 495 358 495 358 482.5 404 c 128,-1,31
 470 450 470 450 463 480 c 0,32,33
 447 545 447 545 426 594.5 c 128,-1,34
 405 644 405 644 373 672 c 128,-1,35
 341 700 341 700 291 700 c 0,36,37
 261 700 261 700 233 685 c 128,-1,38
 205 670 205 670 187.5 630 c 128,-1,39
 170 590 170 590 170 513 c 2,40,-1
 170 -10 l 1,0,-1
EndSplineSet
Ligature2: "'abvs' Above Base Substitutions in Khudawadi lookup 1 subtable" u112E1 u112D1
EndChar

StartChar: u112D1_u112E2
Encoding: 96 -1 96
Width: 1119
GlyphClass: 2
Flags: W
HStem: 700 80<740.516 890.369>
VStem: 940 85<0 642.506>
AnchorPoint: "+BBEENQQ3BEsEPARPBD0EPQQ+BDUA--3" 840 830 basechar 0
AnchorPoint: "+BBEENQQ3BEsEPARPBD0EPQQ+BDUA--0" 245 0 basechar 0
LayerCount: 2
Fore
SplineSet
240 -10 m 1,0,-1
 169 9 l 1,1,2
 151 43 151 43 131 91.5 c 128,-1,3
 111 140 111 140 91.5 195 c 128,-1,4
 72 250 72 250 55.5 304 c 128,-1,5
 39 358 39 358 27 404 c 128,-1,6
 15 450 15 450 10 480 c 1,7,-1
 93 497 l 1,8,9
 103 449 103 449 119 391 c 128,-1,10
 135 333 135 333 154.5 274.5 c 128,-1,11
 174 216 174 216 194 166 c 128,-1,12
 214 116 214 116 231 84 c 1,13,14
 325 182 325 182 401 295 c 128,-1,15
 477 408 477 408 550 553 c 0,16,17
 573 597 573 597 597.5 638 c 128,-1,18
 622 679 622 679 653 711 c 128,-1,19
 684 743 684 743 725 761.5 c 128,-1,20
 766 780 766 780 822 780 c 0,21,22
 898 780 898 780 942 747 c 128,-1,23
 986 714 986 714 1005.5 655.5 c 128,-1,24
 1025 597 1025 597 1025 522 c 2,25,-1
 1025 0 l 1,26,-1
 940 -10 l 1,27,-1
 940 513 l 2,28,29
 940 590 940 590 924 630 c 128,-1,30
 908 670 908 670 881 685 c 128,-1,31
 854 700 854 700 819 700 c 0,32,33
 770 700 770 700 734.5 674.5 c 128,-1,34
 699 649 699 649 672.5 610 c 128,-1,35
 646 571 646 571 624 528 c 0,36,37
 571 427 571 427 526 350.5 c 128,-1,38
 481 274 481 274 437.5 213 c 128,-1,39
 394 152 394 152 346 98.5 c 128,-1,40
 298 45 298 45 240 -10 c 1,0,-1
EndSplineSet
Ligature2: "'abvf' Above Base Forms in Khudawadi lookup 0 subtable" u112D1 u112E2
EndChar

StartChar: u112E1_u112D4
Encoding: 97 -1 97
Width: 1283
GlyphClass: 2
Flags: W
HStem: 0 21G<566.634 640.604 876.327 949.895> 700 80<223.185 373.254>
VStem: 85 85<0 638.451>
AnchorPoint: "+BBEENQQ3BEsEPARPBD0EPQQ+BDUA--3" 280 830 basechar 0
AnchorPoint: "+BBEENQQ3BEsEPARPBD0EPQQ+BDUA--0" 749 0 basechar 0
LayerCount: 2
Fore
SplineSet
170 -10 m 1,0,-1
 85 0 l 1,1,-1
 85 522 l 2,2,3
 85 597 85 597 106 655.5 c 128,-1,4
 127 714 127 714 172 747 c 128,-1,5
 217 780 217 780 288 780 c 0,6,7
 349 780 349 780 391 760 c 128,-1,8
 433 740 433 740 461 706.5 c 128,-1,9
 489 673 489 673 505.5 630 c 128,-1,10
 522 587 522 587 532 542 c 2,11,-1
 622 143 l 1,12,-1
 817 551 l 1,13,-1
 886 531 l 1,14,-1
 933 146 l 1,15,-1
 1089 442 l 2,16,17
 1122 505 1122 505 1160.5 553 c 128,-1,18
 1199 601 1199 601 1260 620 c 1,19,-1
 1283 545 l 1,20,21
 1251 525 1251 525 1229 503.5 c 128,-1,22
 1207 482 1207 482 1188.5 452.5 c 128,-1,23
 1170 423 1170 423 1146 380 c 2,24,-1
 939 0 l 1,25,-1
 879 0 l 1,26,-1
 825 404 l 1,27,-1
 631 0 l 1,28,-1
 571 0 l 1,29,-1
 459 513 l 2,30,31
 448 566 448 566 429 608 c 128,-1,32
 410 650 410 650 377.5 675 c 128,-1,33
 345 700 345 700 291 700 c 0,34,35
 261 700 261 700 233 685 c 128,-1,36
 205 670 205 670 187.5 630 c 128,-1,37
 170 590 170 590 170 513 c 2,38,-1
 170 -10 l 1,0,-1
EndSplineSet
LCarets2: 1 0
Ligature2: "'abvs' Above Base Substitutions in Khudawadi lookup 1 subtable" u112E1 u112D4
EndChar

StartChar: u112D4_u112E2
Encoding: 98 -1 98
Width: 1261
GlyphClass: 2
Flags: W
HStem: 0 21G<163.131 236.604 472.327 544.908> 700 80<892.056 1029.29>
VStem: 1082 85<0 638.451>
AnchorPoint: "+BBEENQQ3BEsEPARPBD0EPQQ+BDUA--3" 980 830 basechar 0
AnchorPoint: "+BBEENQQ3BEsEPARPBD0EPQQ+BDUA--0" 378 0 basechar 0
LayerCount: 2
Fore
SplineSet
1167 -10 m 1,0,-1
 1082 0 l 1,1,-1
 1082 513 l 2,2,3
 1082 590 1082 590 1064.5 630 c 128,-1,4
 1047 670 1047 670 1019.5 685 c 128,-1,5
 992 700 992 700 961 700 c 0,6,7
 926 700 926 700 902 685.5 c 128,-1,8
 878 671 878 671 856 637 c 128,-1,9
 834 603 834 603 805 545 c 2,10,-1
 535 0 l 1,11,-1
 475 0 l 1,12,-1
 421 404 l 1,13,-1
 227 0 l 1,14,-1
 167 0 l 1,15,-1
 96 367 l 2,16,17
 80 450 80 450 62 496.5 c 128,-1,18
 44 543 44 543 20 567 c 1,19,-1
 78 620 l 1,20,21
 116 586 116 586 136.5 524.5 c 128,-1,22
 157 463 157 463 171 389 c 2,23,-1
 218 143 l 1,24,-1
 413 551 l 1,25,-1
 482 531 l 1,26,-1
 529 146 l 1,27,-1
 729 567 l 2,28,29
 761 635 761 635 790 682.5 c 128,-1,30
 819 730 819 730 859 755 c 128,-1,31
 899 780 899 780 964 780 c 0,32,33
 1036 780 1036 780 1080.5 747 c 128,-1,34
 1125 714 1125 714 1146 655.5 c 128,-1,35
 1167 597 1167 597 1167 522 c 2,36,-1
 1167 -10 l 1,0,-1
EndSplineSet
Ligature2: "'abvf' Above Base Forms in Khudawadi lookup 0 subtable" u112D4 u112E2
EndChar

StartChar: u112D6_u112E2
Encoding: 99 -1 99
Width: 1389
GlyphClass: 2
Flags: W
HStem: 0 21G<283 354.941 616.327 688.432> 293 77<148 282.406> 540 80<145.55 254.999> 700 80<1023.04 1157.29>
VStem: 40 83<395.07 517.271> 283 84<183 308 376.259 513.448> 1210 85<0 638.451>
AnchorPoint: "+BBEENQQ3BEsEPARPBD0EPQQ+BDUA--3" 1134 830 basechar 0
AnchorPoint: "+BBEENQQ3BEsEPARPBD0EPQQ+BDUA--0" 511 0 basechar 0
LayerCount: 2
Fore
SplineSet
1295 -10 m 1,0,-1
 1210 0 l 1,1,-1
 1210 513 l 2,2,3
 1210 590 1210 590 1192.5 630 c 128,-1,4
 1175 670 1175 670 1147.5 685 c 128,-1,5
 1120 700 1120 700 1089 700 c 0,6,7
 1052 700 1052 700 1025.5 680 c 128,-1,8
 999 660 999 660 976.5 621.5 c 128,-1,9
 954 583 954 583 928 528 c 2,10,-1
 679 0 l 1,11,-1
 619 0 l 1,12,-1
 565 404 l 1,13,-1
 344 0 l 1,14,-1
 283 0 l 1,15,-1
 283 308 l 1,16,17
 264 301 264 301 243 297 c 128,-1,18
 222 293 222 293 198 293 c 0,19,20
 143 293 143 293 108 315.5 c 128,-1,21
 73 338 73 338 56.5 374.5 c 128,-1,22
 40 411 40 411 40 452 c 0,23,24
 40 498 40 498 58 536 c 128,-1,25
 76 574 76 574 113.5 597 c 128,-1,26
 151 620 151 620 209 620 c 0,27,28
 273 620 273 620 307 590.5 c 128,-1,29
 341 561 341 561 354 513.5 c 128,-1,30
 367 466 367 466 367 410 c 2,31,-1
 367 183 l 1,32,-1
 557 551 l 1,33,-1
 626 531 l 1,34,-1
 673 155 l 1,35,-1
 854 552 l 2,36,37
 884 617 884 617 913 668.5 c 128,-1,38
 942 720 942 720 983.5 750 c 128,-1,39
 1025 780 1025 780 1092 780 c 0,40,41
 1164 780 1164 780 1208.5 747 c 128,-1,42
 1253 714 1253 714 1274 655.5 c 128,-1,43
 1295 597 1295 597 1295 522 c 2,44,-1
 1295 -10 l 1,0,-1
123 457 m 0,45,46
 123 418 123 418 145.5 394 c 128,-1,47
 168 370 168 370 209 370 c 0,48,49
 229 370 229 370 247 373 c 128,-1,50
 265 376 265 376 283 385 c 1,51,-1
 283 400 l 2,52,53
 283 440 283 440 277.5 471.5 c 128,-1,54
 272 503 272 503 254.5 521.5 c 128,-1,55
 237 540 237 540 202 540 c 0,56,57
 166 540 166 540 144.5 517.5 c 128,-1,58
 123 495 123 495 123 457 c 0,45,46
EndSplineSet
Ligature2: "'abvf' Above Base Forms in Khudawadi lookup 0 subtable" u112D6 u112E2
EndChar

StartChar: u112E1_u112BD
Encoding: 100 -1 100
Width: 944
GlyphClass: 2
Flags: W
HStem: -10 80<399.842 517.46> 269 78<400.73 535.697> 700 80<264.274 471.528>
VStem: 85 85<0 598.995> 290 83<97.9485 240.06> 557 82<117.277 247.165 319 606.773> 766 84<0 610>
AnchorPoint: "+BBEENQQ3BEsEPARPBD0EPQQ+BDUA--3" 378 830 basechar 0
AnchorPoint: "+BBEENQQ3BEsEPARPBD0EPQQ+BDUA--0" 658 0 basechar 0
LayerCount: 2
Fore
SplineSet
170 -10 m 1,0,-1
 85 0 l 1,1,-1
 85 482 l 2,2,3
 85 569 85 569 114.5 636 c 128,-1,4
 144 703 144 703 205 741.5 c 128,-1,5
 266 780 266 780 362 780 c 0,6,7
 493 780 493 780 566 709 c 128,-1,8
 639 638 639 638 639 500 c 2,9,-1
 639 246 l 2,10,11
 639 221 639 221 637 188 c 128,-1,12
 635 155 635 155 627 120.5 c 128,-1,13
 619 86 619 86 600 56.5 c 128,-1,14
 581 27 581 27 547.5 8.5 c 128,-1,15
 514 -10 514 -10 461 -10 c 0,16,17
 402 -10 402 -10 364 14.5 c 128,-1,18
 326 39 326 39 308 79 c 128,-1,19
 290 119 290 119 290 167 c 0,20,21
 290 244 290 244 333 295.5 c 128,-1,22
 376 347 376 347 456 347 c 0,23,24
 487 347 487 347 511.5 339.5 c 128,-1,25
 536 332 536 332 557 319 c 1,26,-1
 557 473 l 2,27,28
 557 562 557 562 533.5 611.5 c 128,-1,29
 510 661 510 661 467 680.5 c 128,-1,30
 424 700 424 700 365 700 c 0,31,32
 329 700 329 700 294.5 690.5 c 128,-1,33
 260 681 260 681 231.5 656.5 c 128,-1,34
 203 632 203 632 186.5 587.5 c 128,-1,35
 170 543 170 543 170 473 c 2,36,-1
 170 -10 l 1,0,-1
850 -10 m 1,37,-1
 766 0 l 1,38,-1
 766 620 l 1,39,-1
 850 610 l 1,40,-1
 850 -10 l 1,37,-1
373 171 m 0,41,42
 373 131 373 131 393 100.5 c 128,-1,43
 413 70 413 70 459 70 c 0,44,45
 500 70 500 70 520.5 94.5 c 128,-1,46
 541 119 541 119 548.5 157 c 128,-1,47
 556 195 556 195 557 234 c 1,48,49
 533 250 533 250 510.5 259.5 c 128,-1,50
 488 269 488 269 462 269 c 0,51,52
 416 269 416 269 394.5 240.5 c 128,-1,53
 373 212 373 212 373 171 c 0,41,42
EndSplineSet
Ligature2: "'abvs' Above Base Substitutions in Khudawadi lookup 1 subtable" u112E1 u112BD
EndChar

StartChar: u112E1_u112D7
Encoding: 101 -1 101
Width: 1009
GlyphClass: 2
Flags: W
HStem: -10 80<888.024 983> 535 85<717.7 829.77> 700 80<223.185 359.928>
VStem: 85 85<0 638.451> 782 84<91.6426 266.793> 842 84<329.729 520.427>
AnchorPoint: "+BBEENQQ3BEsEPARPBD0EPQQ+BDUA--3" 287 830 basechar 0
AnchorPoint: "+BBEENQQ3BEsEPARPBD0EPQQ+BDUA--0" 680 0 basechar 0
LayerCount: 2
Fore
SplineSet
170 -10 m 1,0,-1
 85 0 l 1,1,-1
 85 522 l 2,2,3
 85 597 85 597 106 655.5 c 128,-1,4
 127 714 127 714 172 747 c 128,-1,5
 217 780 217 780 288 780 c 0,6,7
 344 780 344 780 391.5 753.5 c 128,-1,8
 439 727 439 727 476.5 682 c 128,-1,9
 514 637 514 637 541 580 c 128,-1,10
 568 523 568 523 583 462 c 1,11,12
 607 504 607 504 639.5 540 c 128,-1,13
 672 576 672 576 711.5 598 c 128,-1,14
 751 620 751 620 796 620 c 0,15,16
 862 620 862 620 894 581.5 c 128,-1,17
 926 543 926 543 926 470 c 0,18,19
 926 427 926 427 915 376.5 c 128,-1,20
 904 326 904 326 891 279 c 0,21,22
 881 241 881 241 873.5 208 c 128,-1,23
 866 175 866 175 866 152 c 0,24,25
 866 106 866 106 892 88 c 128,-1,26
 918 70 918 70 951 70 c 0,27,28
 968 70 968 70 989 73 c 1,29,-1
 983 -7 l 1,30,31
 970 -8 970 -8 959.5 -9 c 128,-1,32
 949 -10 949 -10 938 -10 c 0,33,34
 862 -10 862 -10 822 28.5 c 128,-1,35
 782 67 782 67 782 144 c 0,36,37
 782 181 782 181 791 220.5 c 128,-1,38
 800 260 800 260 812 300 c 0,39,40
 824 341 824 341 833 382.5 c 128,-1,41
 842 424 842 424 842 455 c 0,42,43
 842 497 842 497 829.5 516 c 128,-1,44
 817 535 817 535 781 535 c 0,45,46
 739 535 739 535 694 495.5 c 128,-1,47
 649 456 649 456 612 386 c 128,-1,48
 575 316 575 316 557 224 c 2,49,-1
 512 -10 l 1,50,-1
 429 0 l 1,51,-1
 498 337 l 2,52,53
 501 351 501 351 503.5 366.5 c 128,-1,54
 506 382 506 382 506 399 c 0,55,56
 506 433 506 433 495 473.5 c 128,-1,57
 484 514 484 514 463.5 554 c 128,-1,58
 443 594 443 594 416 627 c 128,-1,59
 389 660 389 660 357.5 680 c 128,-1,60
 326 700 326 700 291 700 c 0,61,62
 261 700 261 700 233 685 c 128,-1,63
 205 670 205 670 187.5 630 c 128,-1,64
 170 590 170 590 170 513 c 2,65,-1
 170 -10 l 1,0,-1
EndSplineSet
Ligature2: "'abvs' Above Base Substitutions in Khudawadi lookup 1 subtable" u112E1 u112D7
EndChar

StartChar: u112E2.alt
Encoding: 102 -1 102
Width: 274
GlyphClass: 2
Flags: W
HStem: 700 80<-131.522 29.1646>
VStem: 95 85<0 624.76>
AnchorPoint: "+BBEENQQ3BEsEPARPBD0EPQQ+BDUA--3" -42 870 basechar 0
LayerCount: 2
Fore
SplineSet
180 -10 m 1,0,-1
 95 0 l 1,1,-1
 95 494 l 2,2,3
 95 575 95 575 76 619.5 c 128,-1,4
 57 664 57 664 24 682 c 128,-1,5
 -9 700 -9 700 -52 700 c 0,6,7
 -110 700 -110 700 -142.5 669.5 c 128,-1,8
 -175 639 -175 639 -195 590 c 1,9,-1
 -271 620 l 1,10,11
 -234 702 -234 702 -175.5 741 c 128,-1,12
 -117 780 -117 780 -42 780 c 0,13,14
 70 780 70 780 125 706 c 128,-1,15
 180 632 180 632 180 504 c 2,16,-1
 180 -10 l 1,0,-1
EndSplineSet
EndChar

StartChar: u112E8.alt
Encoding: 103 -1 103
Width: 0
GlyphClass: 4
Flags: W
HStem: 556 71<-246.276 -173.363> 683 71<-434.807 -324.575> 728 66<-243.75 -177.409>
VStem: -521 71<774.112 812> -327 74<633.191 701> -164 74<636.847 716.757>
AnchorPoint: "+BBEENQQ3BEsEPARPBD0EPQQ+BDUA--5" -347 800 basemark 0
AnchorPoint: "+BBEENQQ3BEsEPARPBD0EPQQ+BDUA--4" -231 570 mark 0
LayerCount: 2
Fore
SplineSet
-209 556 m 0,0,1
 -265 556 -265 556 -296 587.5 c 128,-1,2
 -327 619 -327 619 -327 674 c 0,3,4
 -327 688 -327 688 -324 701 c 1,5,6
 -340 694 -340 694 -361 688.5 c 128,-1,7
 -382 683 -382 683 -409 683 c 0,8,9
 -424 683 -424 683 -443 687 c 128,-1,10
 -462 691 -462 691 -480 703.5 c 128,-1,11
 -498 716 -498 716 -509.5 742 c 128,-1,12
 -521 768 -521 768 -521 812 c 1,13,-1
 -450 825 l 1,14,15
 -445 793 -445 793 -434.5 773.5 c 128,-1,16
 -424 754 -424 754 -396 754 c 0,17,18
 -379 754 -379 754 -362 758.5 c 128,-1,19
 -345 763 -345 763 -327 770 c 0,20,21
 -302 781 -302 781 -274 787.5 c 128,-1,22
 -246 794 -246 794 -217 794 c 0,23,24
 -161 794 -161 794 -125.5 764 c 128,-1,25
 -90 734 -90 734 -90 676 c 0,26,27
 -90 622 -90 622 -120.5 589 c 128,-1,28
 -151 556 -151 556 -209 556 c 0,0,1
-207 627 m 0,29,30
 -187 627 -187 627 -175.5 640.5 c 128,-1,31
 -164 654 -164 654 -164 676 c 0,32,33
 -164 700 -164 700 -177 714 c 128,-1,34
 -190 728 -190 728 -214 728 c 0,35,36
 -221 728 -221 728 -228.5 726.5 c 128,-1,37
 -236 725 -236 725 -244 723 c 1,38,39
 -249 715 -249 715 -251 704 c 128,-1,40
 -253 693 -253 693 -253 682 c 0,41,42
 -253 627 -253 627 -207 627 c 0,29,30
EndSplineSet
EndChar

StartChar: u112E7.alt
Encoding: 104 -1 104
Width: 0
GlyphClass: 4
Flags: W
HStem: 668 71<-406.652 -256.403> 700 71<-295.851 -163.862>
VStem: -495 72<760.144 801> -143 80<590.25 687.624>
AnchorPoint: "+BBEENQQ3BEsEPARPBD0EPQQ+BDUA--5" -279 800 basemark 0
AnchorPoint: "+BBEENQQ3BEsEPARPBD0EPQQ+BDUA--1" -131 590 mark 0
LayerCount: 2
Fore
SplineSet
-68 575 m 1,0,-1
 -147 590 l 1,1,2
 -145 598 -145 598 -144 606.5 c 128,-1,3
 -143 615 -143 615 -143 622 c 0,4,5
 -143 640 -143 640 -147.5 658 c 128,-1,6
 -152 676 -152 676 -163.5 688 c 128,-1,7
 -175 700 -175 700 -198 700 c 0,8,9
 -212 700 -212 700 -232.5 695 c 128,-1,10
 -253 690 -253 690 -285 681 c 0,11,12
 -310 674 -310 674 -335 671 c 128,-1,13
 -360 668 -360 668 -377 668 c 0,14,15
 -392 668 -392 668 -412 672 c 128,-1,16
 -432 676 -432 676 -451 688.5 c 128,-1,17
 -470 701 -470 701 -482.5 728 c 128,-1,18
 -495 755 -495 755 -495 801 c 1,19,-1
 -423 815 l 1,20,21
 -418 780 -418 780 -407 759.5 c 128,-1,22
 -396 739 -396 739 -368 739 c 0,23,24
 -351 739 -351 739 -326.5 744.5 c 128,-1,25
 -302 750 -302 750 -281 755 c 0,26,27
 -249 763 -249 763 -225.5 767 c 128,-1,28
 -202 771 -202 771 -180 771 c 0,29,30
 -130 771 -130 771 -96.5 736.5 c 128,-1,31
 -63 702 -63 702 -63 636 c 0,32,33
 -63 628 -63 628 -64 610 c 128,-1,34
 -65 592 -65 592 -68 575 c 1,0,-1
EndSplineSet
Substitution2: "Single Substitution lookup 4 subtable" u112E7_straight.alt
EndChar

StartChar: u112E7_straight
Encoding: 105 -1 105
Width: 0
GlyphClass: 4
Flags: W
HStem: 668 71<92.4443 287.179> 700 71<233.32 430.692>
VStem: 0 72<761.69 802> 451 85<575 681.07>
AnchorPoint: "+BBEENQQ3BEsEPARPBD0EPQQ+BDUA--5" 286 800 basemark 0
AnchorPoint: "+BBEENQQ3BEsEPARPBD0EPQQ+BDUA--1" 468 590 mark 0
LayerCount: 2
Fore
SplineSet
451 575 m 1,0,-1
 451 622 l 2,1,2
 451 640 451 640 444.5 658 c 128,-1,3
 438 676 438 676 420.5 688 c 128,-1,4
 403 700 403 700 369 700 c 0,5,6
 347 700 347 700 318.5 695.5 c 128,-1,7
 290 691 290 691 261 684 c 0,8,9
 235 678 235 678 205 673 c 128,-1,10
 175 668 175 668 146 668 c 0,11,12
 124 668 124 668 99 671.5 c 128,-1,13
 74 675 74 675 51.5 688 c 128,-1,14
 29 701 29 701 14.5 728 c 128,-1,15
 0 755 0 755 0 802 c 1,16,-1
 72 815 l 1,17,18
 78 783 78 783 92 761 c 128,-1,19
 106 739 106 739 148 739 c 0,20,21
 169 739 169 739 197.5 743.5 c 128,-1,22
 226 748 226 748 255 753 c 0,23,24
 287 759 287 759 325 765 c 128,-1,25
 363 771 363 771 391 771 c 0,26,27
 452 771 452 771 494 736.5 c 128,-1,28
 536 702 536 702 536 636 c 2,29,-1
 536 575 l 1,30,-1
 451 575 l 1,0,-1
EndSplineSet
EndChar

StartChar: u112E7_straight.alt
Encoding: 106 -1 106
Width: 0
GlyphClass: 4
Flags: W
HStem: 668 71<88.3479 238.597> 700 71<199.149 334.632>
VStem: 0 72<760.144 801> 347 85<575 673.703>
AnchorPoint: "+BBEENQQ3BEsEPARPBD0EPQQ+BDUA--5" 216 800 basemark 0
AnchorPoint: "+BBEENQQ3BEsEPARPBD0EPQQ+BDUA--1" 364 590 mark 0
LayerCount: 2
Fore
SplineSet
347 575 m 1,0,-1
 347 622 l 2,1,2
 347 649 347 649 337.5 674.5 c 128,-1,3
 328 700 328 700 297 700 c 0,4,5
 283 700 283 700 262.5 695 c 128,-1,6
 242 690 242 690 210 681 c 0,7,8
 185 674 185 674 160 671 c 128,-1,9
 135 668 135 668 118 668 c 0,10,11
 103 668 103 668 83 672 c 128,-1,12
 63 676 63 676 44 688.5 c 128,-1,13
 25 701 25 701 12.5 728 c 128,-1,14
 0 755 0 755 0 801 c 1,15,-1
 72 815 l 1,16,17
 77 780 77 780 88 759.5 c 128,-1,18
 99 739 99 739 127 739 c 0,19,20
 144 739 144 739 168.5 744.5 c 128,-1,21
 193 750 193 750 214 755 c 0,22,23
 246 763 246 763 269.5 767 c 128,-1,24
 293 771 293 771 315 771 c 0,25,26
 365 771 365 771 398.5 736.5 c 128,-1,27
 432 702 432 702 432 636 c 2,28,-1
 432 575 l 1,29,-1
 347 575 l 1,0,-1
EndSplineSet
EndChar

StartChar: u112E1.alt
Encoding: 107 -1 107
Width: 262
GlyphClass: 2
Flags: W
HStem: 700 80<223.185 367.884>
VStem: 85 85<0 638.451>
AnchorPoint: "+BBEENQQ3BEsEPARPBD0EPQQ+BDUA--3" 294 870 basechar 0
LayerCount: 2
Fore
SplineSet
170 -10 m 1,0,-1
 85 0 l 1,1,-1
 85 522 l 2,2,3
 85 597 85 597 106 655.5 c 128,-1,4
 127 714 127 714 172 747 c 128,-1,5
 217 780 217 780 288 780 c 0,6,7
 357 780 357 780 401.5 751.5 c 128,-1,8
 446 723 446 723 473.5 679 c 128,-1,9
 501 635 501 635 518 586 c 1,10,-1
 433 586 l 1,11,12
 412 634 412 634 380.5 667 c 128,-1,13
 349 700 349 700 291 700 c 0,14,15
 261 700 261 700 233 685 c 128,-1,16
 205 670 205 670 187.5 630 c 128,-1,17
 170 590 170 590 170 513 c 2,18,-1
 170 -10 l 1,0,-1
EndSplineSet
PairPos2: "'dist' Distance in Khudawadi lookup 0 subtable" u112D5 dx=0 dy=0 dh=0 dv=0 dx=89 dy=0 dh=89 dv=0
PairPos2: "'dist' Distance in Khudawadi lookup 0 subtable" u112BB dx=0 dy=0 dh=0 dv=0 dx=100 dy=0 dh=100 dv=0
EndChar

StartChar: u112E1.alt2
Encoding: 108 -1 108
Width: 262
GlyphClass: 2
Flags: W
HStem: 700 80<223.185 367.346>
VStem: 85 85<0 638.451>
AnchorPoint: "+BBEENQQ3BEsEPARPBD0EPQQ+BDUA--3" 294 870 basechar 0
LayerCount: 2
Fore
SplineSet
170 -10 m 1,0,-1
 85 0 l 1,1,-1
 85 522 l 2,2,3
 85 597 85 597 106 655.5 c 128,-1,4
 127 714 127 714 172 747 c 128,-1,5
 217 780 217 780 288 780 c 0,6,7
 352 780 352 780 394 755.5 c 128,-1,8
 436 731 436 731 463.5 692 c 128,-1,9
 491 653 491 653 509 609 c 1,10,-1
 434 584 l 1,11,12
 413 632 413 632 381.5 666 c 128,-1,13
 350 700 350 700 291 700 c 0,14,15
 261 700 261 700 233 685 c 128,-1,16
 205 670 205 670 187.5 630 c 128,-1,17
 170 590 170 590 170 513 c 2,18,-1
 170 -10 l 1,0,-1
EndSplineSet
PairPos2: "'dist' Distance in Khudawadi lookup 0 subtable" u112CC dx=0 dy=0 dh=0 dv=0 dx=77 dy=0 dh=77 dv=0
EndChar

StartChar: u112E1.alt3
Encoding: 109 -1 109
Width: 262
GlyphClass: 2
Flags: W
HStem: 700 80<223.185 366.556>
VStem: 85 85<0 638.451>
AnchorPoint: "+BBEENQQ3BEsEPARPBD0EPQQ+BDUA--3" 294 870 basechar 0
LayerCount: 2
Fore
SplineSet
170 -10 m 1,0,-1
 85 0 l 1,1,-1
 85 522 l 2,2,3
 85 597 85 597 106 655.5 c 128,-1,4
 127 714 127 714 172 747 c 128,-1,5
 217 780 217 780 288 780 c 0,6,7
 356 780 356 780 399.5 753 c 128,-1,8
 443 726 443 726 470.5 683.5 c 128,-1,9
 498 641 498 641 515 594 c 1,10,-1
 440 570 l 1,11,12
 426 606 426 606 407 635.5 c 128,-1,13
 388 665 388 665 360.5 682.5 c 128,-1,14
 333 700 333 700 291 700 c 0,15,16
 261 700 261 700 233 685 c 128,-1,17
 205 670 205 670 187.5 630 c 128,-1,18
 170 590 170 590 170 513 c 2,19,-1
 170 -10 l 1,0,-1
EndSplineSet
PairPos2: "'dist' Distance in Khudawadi lookup 0 subtable" u112CE dx=0 dy=0 dh=0 dv=0 dx=85 dy=0 dh=85 dv=0
EndChar
